<?xml version="1.0" encoding="utf-8"?>
<!-- by Simon Waldherr (http://simon.waldherr.eu/)  -->
<!DOCTYPE svg PUBLIC "-//W3C//DTD SVG 1.0//EN" "http://www.w3.org/TR/2001/REC-SVG-20010904/DTD/svg10.dtd">
<svg version="1.0" xmlns="http://www.w3.org/2000/svg" xmlns:xlink="http://www.w3.org/1999/xlink" x="0px" y="0px" width="2324px" height="2324px" viewBox="0 0 2324 2324" enable-background="new 0 0 2324 2324" xml:space="preserve">
<g id="lu_1_">
	<g id="Shape_1_copy_119">
		<g>
			<path d="M301.533,1989.799c-13.849-36.975-53.216-28.348-53.475,14.566c-0.144,23.569,18.746,32.379,31.322,41.801
				c12.195,9.139,20.875,21.639,22.235,26.96c1.165-5.214,10.832-18.067,22.121-27.215c12.344-10.002,31.466-18.233,31.323-41.802
				C354.798,1961.088,314.746,1954.299,301.533,1989.799z"/>
		</g>
	</g>
	<g id="Shape_1_copy_119_1_">
		<g>
			<path d="M409.097,1989.799c-13.85-36.975-53.217-28.348-53.476,14.566c-0.144,23.569,18.746,32.379,31.322,41.801
				c12.195,9.139,20.875,21.639,22.235,26.96c1.165-5.214,10.832-18.067,22.121-27.215c12.344-10.002,31.466-18.233,31.322-41.802
				C462.361,1961.088,422.309,1954.299,409.097,1989.799z"/>
		</g>
	</g>
	<g id="Shape_1_copy_119_2_">
		<g>
			<path fill-rule="evenodd" clip-rule="evenodd" d="M301.533,1882.235c-13.849-36.975-53.216-28.348-53.475,14.566
				c-0.144,23.569,18.746,32.38,31.322,41.802c12.195,9.138,20.875,21.638,22.235,26.959c1.165-5.214,10.832-18.067,22.121-27.215
				c12.344-10.002,31.466-18.232,31.323-41.802C354.798,1853.525,314.746,1846.735,301.533,1882.235z"/>
		</g>
	</g>
	<g id="Shape_1_copy_119_3_">
		<g>
			<path d="M409.097,1882.235c-13.85-36.975-53.217-28.348-53.476,14.566c-0.144,23.569,18.746,32.38,31.322,41.802
				c12.195,9.138,20.875,21.638,22.235,26.959c1.165-5.214,10.832-18.067,22.121-27.215c12.344-10.002,31.466-18.232,31.322-41.802
				C462.361,1853.525,422.309,1846.735,409.097,1882.235z"/>
		</g>
	</g>
	<g id="Shape_1_copy_120">
		<g>
			<path fill-rule="evenodd" clip-rule="evenodd" d="M516.66,1989.799c-13.85-36.975-53.217-28.348-53.476,14.566
				c-0.144,23.569,18.746,32.379,31.322,41.801c12.195,9.139,20.875,21.639,22.235,26.96c1.165-5.214,10.832-18.067,22.121-27.215
				c12.343-10.002,31.465-18.233,31.322-41.802C569.924,1961.088,529.872,1954.299,516.66,1989.799z"/>
		</g>
	</g>
	<g id="Shape_1_copy_120_1_">
		<g>
			<path fill-rule="evenodd" clip-rule="evenodd" d="M516.66,1882.235c-13.85-36.975-53.217-28.348-53.476,14.566
				c-0.144,23.569,18.746,32.38,31.322,41.802c12.195,9.138,20.875,21.638,22.235,26.959c1.165-5.214,10.832-18.067,22.121-27.215
				c12.343-10.002,31.465-18.232,31.322-41.802C569.924,1853.525,529.872,1846.735,516.66,1882.235z"/>
		</g>
	</g>
	<g id="Shape_1_copy_126">
		<g>
			<path d="M731.786,2097.361c-13.85-36.975-53.216-28.348-53.476,14.566c-0.144,23.569,18.746,32.38,31.322,41.802
				c12.195,9.138,20.875,21.638,22.235,26.959c1.165-5.214,10.832-18.067,22.121-27.214c12.343-10.002,31.465-18.234,31.322-41.803
				C785.05,2068.651,744.998,2061.861,731.786,2097.361z"/>
		</g>
	</g>
	<g id="Shape_1_copy_126_1_">
		<g>
			<path fill-rule="evenodd" clip-rule="evenodd" d="M731.786,1989.799c-13.85-36.975-53.216-28.348-53.476,14.566
				c-0.144,23.569,18.746,32.379,31.322,41.801c12.195,9.139,20.875,21.639,22.235,26.96c1.165-5.214,10.832-18.067,22.121-27.215
				c12.343-10.002,31.465-18.233,31.322-41.802C785.05,1961.088,744.998,1954.299,731.786,1989.799z"/>
		</g>
	</g>
	<g id="Shape_1_copy_121">
		<g>
			<path fill-rule="evenodd" clip-rule="evenodd" d="M301.533,1774.672c-13.849-36.974-53.216-28.347-53.475,14.567
				c-0.144,23.569,18.746,32.379,31.322,41.802c12.195,9.138,20.875,21.638,22.235,26.959c1.165-5.214,10.832-18.068,22.121-27.215
				c12.344-10.002,31.466-18.233,31.323-41.803C354.798,1745.962,314.746,1739.173,301.533,1774.672z"/>
		</g>
	</g>
	<g id="Shape_1_copy_121_1_">
		<g>
			<path fill-rule="evenodd" clip-rule="evenodd" d="M409.097,1774.672c-13.85-36.974-53.217-28.347-53.476,14.567
				c-0.144,23.569,18.746,32.379,31.322,41.802c12.195,9.138,20.875,21.638,22.235,26.959c1.165-5.214,10.832-18.068,22.121-27.215
				c12.344-10.002,31.466-18.233,31.322-41.803C462.361,1745.962,422.309,1739.173,409.097,1774.672z"/>
		</g>
	</g>
	<g id="Shape_1_copy_121_2_">
		<g>
			<path d="M516.66,1774.672c-13.85-36.974-53.217-28.347-53.476,14.567c-0.144,23.569,18.746,32.379,31.322,41.802
				c12.195,9.138,20.875,21.638,22.235,26.959c1.165-5.214,10.832-18.068,22.121-27.215c12.343-10.002,31.465-18.233,31.322-41.803
				C569.924,1745.962,529.872,1739.173,516.66,1774.672z"/>
		</g>
	</g>
	<g id="Shape_1_copy_125">
		<g>
			<path fill-rule="evenodd" clip-rule="evenodd" d="M731.786,1882.235c-13.85-36.975-53.216-28.348-53.476,14.566
				c-0.144,23.569,18.746,32.38,31.322,41.802c12.195,9.138,20.875,21.638,22.235,26.959c1.165-5.214,10.832-18.067,22.121-27.215
				c12.343-10.002,31.465-18.232,31.322-41.802C785.05,1853.525,744.998,1846.735,731.786,1882.235z"/>
		</g>
	</g>
	<g id="Shape_1_copy_125_1_">
		<g>
			<path d="M731.786,1774.672c-13.85-36.974-53.216-28.347-53.476,14.567c-0.144,23.569,18.746,32.379,31.322,41.802
				c12.195,9.138,20.875,21.638,22.235,26.959c1.165-5.214,10.832-18.068,22.121-27.215c12.343-10.002,31.465-18.233,31.322-41.803
				C785.05,1745.962,744.998,1739.173,731.786,1774.672z"/>
		</g>
	</g>
	<g id="Shape_1_copy_125_2_">
		<g>
			<path fill-rule="evenodd" clip-rule="evenodd" d="M731.786,1667.109c-13.85-36.975-53.216-28.348-53.476,14.566
				c-0.144,23.569,18.746,32.379,31.322,41.802c12.195,9.138,20.875,21.638,22.235,26.959c1.165-5.214,10.832-18.067,22.121-27.215
				c12.343-10.001,31.465-18.233,31.322-41.802C785.05,1638.399,744.998,1631.609,731.786,1667.109z"/>
		</g>
	</g>
	<g id="Shape_1_copy_122">
		<g>
			<path d="M516.66,1559.546c-13.85-36.974-53.217-28.347-53.476,14.567c-0.144,23.568,18.746,32.379,31.322,41.801
				c12.195,9.139,20.875,21.639,22.235,26.96c1.165-5.214,10.832-18.067,22.121-27.215c12.343-10.002,31.465-18.233,31.322-41.802
				C569.924,1530.836,529.872,1524.047,516.66,1559.546z"/>
		</g>
	</g>
	<g id="Shape_1_copy_122_1_">
		<g>
			<path fill-rule="evenodd" clip-rule="evenodd" d="M624.223,1559.546c-13.85-36.974-53.216-28.347-53.476,14.567
				c-0.144,23.568,18.746,32.379,31.322,41.801c12.195,9.139,20.875,21.639,22.235,26.96c1.165-5.214,10.832-18.067,22.121-27.215
				c12.343-10.002,31.465-18.233,31.322-41.802C677.487,1530.836,637.435,1524.047,624.223,1559.546z"/>
		</g>
	</g>
	<g id="Shape_1_copy_122_2_">
		<g>
			<path fill-rule="evenodd" clip-rule="evenodd" d="M731.786,1559.546c-13.85-36.974-53.216-28.347-53.476,14.567
				c-0.144,23.568,18.746,32.379,31.322,41.801c12.195,9.139,20.875,21.639,22.235,26.96c1.165-5.214,10.832-18.067,22.121-27.215
				c12.343-10.002,31.465-18.233,31.322-41.802C785.05,1530.836,744.998,1524.047,731.786,1559.546z"/>
		</g>
	</g>
	<g id="Shape_1_copy_123">
		<g>
			<path fill-rule="evenodd" clip-rule="evenodd" d="M193.97,1559.546c-13.849-36.974-53.216-28.347-53.475,14.567
				c-0.144,23.568,18.746,32.379,31.322,41.801c12.195,9.139,20.875,21.639,22.234,26.96c1.165-5.214,10.833-18.067,22.121-27.215
				c12.344-10.002,31.466-18.233,31.323-41.802C247.235,1530.836,207.183,1524.047,193.97,1559.546z"/>
		</g>
	</g>
	<g id="Shape_1_copy_123_1_">
		<g>
			<path d="M301.533,1559.546c-13.849-36.974-53.216-28.347-53.475,14.567c-0.144,23.568,18.746,32.379,31.322,41.801
				c12.195,9.139,20.875,21.639,22.235,26.96c1.165-5.214,10.832-18.067,22.121-27.215c12.344-10.002,31.466-18.233,31.323-41.802
				C354.798,1530.836,314.746,1524.047,301.533,1559.546z"/>
		</g>
	</g>
	<g id="Shape_1_copy_123_2_">
		<g>
			<path d="M409.097,1559.546c-13.85-36.974-53.217-28.347-53.476,14.567c-0.144,23.568,18.746,32.379,31.322,41.801
				c12.195,9.139,20.875,21.639,22.235,26.96c1.165-5.214,10.832-18.067,22.121-27.215c12.344-10.002,31.466-18.233,31.322-41.802
				C462.361,1530.836,422.309,1524.047,409.097,1559.546z"/>
		</g>
	</g>
	<g id="Shape_1_copy_124">
		<g>
			<path fill-rule="evenodd" clip-rule="evenodd" d="M516.66,2204.924c-13.85-36.974-53.217-28.347-53.476,14.567
				c-0.144,23.569,18.746,32.379,31.322,41.802c12.195,9.138,20.875,21.637,22.235,26.959c1.165-5.214,10.832-18.067,22.121-27.215
				c12.343-10.002,31.465-18.233,31.322-41.802C569.924,2176.215,529.872,2169.425,516.66,2204.924z"/>
		</g>
	</g>
	<g id="Shape_1_copy_124_1_">
		<g>
			<path fill-rule="evenodd" clip-rule="evenodd" d="M624.223,2204.924c-13.85-36.974-53.216-28.347-53.476,14.567
				c-0.144,23.569,18.746,32.379,31.322,41.802c12.195,9.138,20.875,21.637,22.235,26.959c1.165-5.214,10.832-18.067,22.121-27.215
				c12.343-10.002,31.465-18.233,31.322-41.802C677.487,2176.215,637.435,2169.425,624.223,2204.924z"/>
		</g>
	</g>
	<g id="Shape_1_copy_124_2_">
		<g>
			<path d="M731.786,2204.924c-13.85-36.974-53.216-28.347-53.476,14.567c-0.144,23.569,18.746,32.379,31.322,41.802
				c12.195,9.138,20.875,21.637,22.235,26.959c1.165-5.214,10.832-18.067,22.121-27.215c12.343-10.002,31.465-18.233,31.322-41.802
				C785.05,2176.215,744.998,2169.425,731.786,2204.924z"/>
		</g>
	</g>
	<g id="Shape_1_copy_127">
		<g>
			<path fill-rule="evenodd" clip-rule="evenodd" d="M86.407,2097.361c-13.849-36.975-53.216-28.348-53.475,14.566
				c-0.144,23.569,18.746,32.38,31.322,41.802c12.195,9.138,20.875,21.638,22.235,26.959c1.165-5.214,10.832-18.067,22.121-27.214
				c12.344-10.002,31.466-18.234,31.322-41.803C139.672,2068.651,99.62,2061.861,86.407,2097.361z"/>
		</g>
	</g>
	<g id="Shape_1_copy_127_1_">
		<g>
			<path fill-rule="evenodd" clip-rule="evenodd" d="M86.407,1989.799c-13.849-36.975-53.216-28.348-53.475,14.566
				c-0.144,23.569,18.746,32.379,31.322,41.801c12.195,9.139,20.875,21.639,22.235,26.96c1.165-5.214,10.832-18.067,22.121-27.215
				c12.344-10.002,31.466-18.233,31.322-41.802C139.672,1961.088,99.62,1954.299,86.407,1989.799z"/>
		</g>
	</g>
	<g id="Shape_1_copy_127_2_">
		<g>
			<path d="M86.407,1882.235c-13.849-36.975-53.216-28.348-53.475,14.566c-0.144,23.569,18.746,32.38,31.322,41.802
				c12.195,9.138,20.875,21.638,22.235,26.959c1.165-5.214,10.832-18.067,22.121-27.215c12.344-10.002,31.466-18.232,31.322-41.802
				C139.672,1853.525,99.62,1846.735,86.407,1882.235z"/>
		</g>
	</g>
	<g id="Shape_1_copy_127_3_">
		<g>
			<path fill-rule="evenodd" clip-rule="evenodd" d="M86.407,1774.672c-13.849-36.974-53.216-28.347-53.475,14.567
				c-0.144,23.569,18.746,32.379,31.322,41.802c12.195,9.138,20.875,21.638,22.235,26.959c1.165-5.214,10.832-18.068,22.121-27.215
				c12.344-10.002,31.466-18.233,31.322-41.803C139.672,1745.962,99.62,1739.173,86.407,1774.672z"/>
		</g>
	</g>
	<g id="Shape_1_copy_127_4_">
		<g>
			<path fill-rule="evenodd" clip-rule="evenodd" d="M86.407,1667.109c-13.849-36.975-53.216-28.348-53.475,14.566
				c-0.144,23.569,18.746,32.379,31.322,41.802c12.195,9.138,20.875,21.638,22.235,26.959c1.165-5.214,10.832-18.067,22.121-27.215
				c12.344-10.001,31.466-18.233,31.322-41.802C139.672,1638.399,99.62,1631.609,86.407,1667.109z"/>
		</g>
	</g>
	<g id="Shape_1_copy_127_5_">
		<g>
			<path d="M86.407,1559.546c-13.849-36.974-53.216-28.347-53.475,14.567c-0.144,23.568,18.746,32.379,31.322,41.801
				c12.195,9.139,20.875,21.639,22.235,26.96c1.165-5.214,10.832-18.067,22.121-27.215c12.344-10.002,31.466-18.233,31.322-41.802
				C139.672,1530.836,99.62,1524.047,86.407,1559.546z"/>
		</g>
	</g>
	<g id="Shape_1_copy_127_6_">
		<g>
			<path fill-rule="evenodd" clip-rule="evenodd" d="M86.407,2204.924c-13.849-36.974-53.216-28.347-53.475,14.567
				c-0.144,23.569,18.746,32.379,31.322,41.802c12.195,9.138,20.875,21.637,22.235,26.959c1.165-5.214,10.832-18.067,22.121-27.215
				c12.344-10.002,31.466-18.233,31.322-41.802C139.672,2176.215,99.62,2169.425,86.407,2204.924z"/>
		</g>
	</g>
	<g id="Shape_1_copy_124_3_">
		<g>
			<path d="M193.97,2204.924c-13.849-36.974-53.216-28.347-53.475,14.567c-0.144,23.569,18.746,32.379,31.322,41.802
				c12.195,9.138,20.875,21.637,22.234,26.959c1.165-5.214,10.833-18.067,22.121-27.215c12.344-10.002,31.466-18.233,31.323-41.802
				C247.235,2176.215,207.183,2169.425,193.97,2204.924z"/>
		</g>
	</g>
	<g id="Shape_1_copy_124_4_">
		<g>
			<path fill-rule="evenodd" clip-rule="evenodd" d="M301.533,2204.924c-13.849-36.974-53.216-28.347-53.475,14.567
				c-0.144,23.569,18.746,32.379,31.322,41.802c12.195,9.138,20.875,21.637,22.235,26.959c1.165-5.214,10.832-18.067,22.121-27.215
				c12.344-10.002,31.466-18.233,31.323-41.802C354.798,2176.215,314.746,2169.425,301.533,2204.924z"/>
		</g>
	</g>
	<g id="Shape_1_copy_124_5_">
		<g>
			<path d="M409.097,2204.924c-13.85-36.974-53.217-28.347-53.476,14.567c-0.144,23.569,18.746,32.379,31.322,41.802
				c12.195,9.138,20.875,21.637,22.235,26.959c1.165-5.214,10.832-18.067,22.121-27.215c12.344-10.002,31.466-18.233,31.322-41.802
				C462.361,2176.215,422.309,2169.425,409.097,2204.924z"/>
		</g>
	</g>
</g>
<g id="lo_1_">
	<g id="Shape_1_copy_119_4_">
		<g>
			<path d="M301.533,483.916c-13.849-36.975-53.216-28.348-53.475,14.566c-0.144,23.569,18.746,32.38,31.322,41.802
				c12.195,9.138,20.875,21.638,22.235,26.959c1.165-5.214,10.832-18.067,22.121-27.215c12.344-10.001,31.466-18.233,31.323-41.802
				C354.798,455.206,314.746,448.416,301.533,483.916z"/>
		</g>
	</g>
	<g id="Shape_1_copy_119_5_">
		<g>
			<path fill-rule="evenodd" clip-rule="evenodd" d="M409.097,483.916c-13.85-36.975-53.217-28.348-53.476,14.566
				c-0.144,23.569,18.746,32.38,31.322,41.802c12.195,9.138,20.875,21.638,22.235,26.959c1.165-5.214,10.832-18.067,22.121-27.215
				c12.344-10.001,31.466-18.233,31.322-41.802C462.361,455.206,422.309,448.416,409.097,483.916z"/>
		</g>
	</g>
	<g id="Shape_1_copy_119_6_">
		<g>
			<path d="M301.533,376.354c-13.849-36.975-53.216-28.348-53.475,14.566c-0.144,23.569,18.746,32.379,31.322,41.801
				c12.195,9.139,20.875,21.639,22.235,26.96c1.165-5.214,10.832-18.067,22.121-27.215c12.344-10.002,31.466-18.233,31.323-41.802
				C354.798,347.643,314.746,340.854,301.533,376.354z"/>
		</g>
	</g>
	<g id="Shape_1_copy_119_7_">
		<g>
			<path d="M409.097,376.354c-13.85-36.975-53.217-28.348-53.476,14.566c-0.144,23.569,18.746,32.379,31.322,41.801
				c12.195,9.139,20.875,21.639,22.235,26.96c1.165-5.214,10.832-18.067,22.121-27.215c12.344-10.002,31.466-18.233,31.322-41.802
				C462.361,347.643,422.309,340.854,409.097,376.354z"/>
		</g>
	</g>
	<g id="Shape_1_copy_120_2_">
		<g>
			<path d="M516.66,483.916c-13.85-36.975-53.217-28.348-53.476,14.566c-0.144,23.569,18.746,32.38,31.322,41.802
				c12.195,9.138,20.875,21.638,22.235,26.959c1.165-5.214,10.832-18.067,22.121-27.215c12.343-10.001,31.465-18.233,31.322-41.802
				C569.924,455.206,529.872,448.416,516.66,483.916z"/>
		</g>
	</g>
	<g id="Shape_1_copy_120_3_">
		<g>
			<path fill-rule="evenodd" clip-rule="evenodd" d="M516.66,376.354c-13.85-36.975-53.217-28.348-53.476,14.566
				c-0.144,23.569,18.746,32.379,31.322,41.801c12.195,9.139,20.875,21.639,22.235,26.96c1.165-5.214,10.832-18.067,22.121-27.215
				c12.343-10.002,31.465-18.233,31.322-41.802C569.924,347.643,529.872,340.854,516.66,376.354z"/>
		</g>
	</g>
	<g id="Shape_1_copy_126_2_">
		<g>
			<path d="M731.786,591.479c-13.85-36.975-53.216-28.348-53.476,14.566c-0.144,23.569,18.746,32.379,31.322,41.802
				c12.195,9.138,20.875,21.638,22.235,26.959c1.165-5.214,10.832-18.067,22.121-27.215c12.343-10.002,31.465-18.233,31.322-41.802
				C785.05,562.769,744.998,555.979,731.786,591.479z"/>
		</g>
	</g>
	<g id="Shape_1_copy_126_3_">
		<g>
			<path fill-rule="evenodd" clip-rule="evenodd" d="M731.786,483.916c-13.85-36.975-53.216-28.348-53.476,14.566
				c-0.144,23.569,18.746,32.38,31.322,41.802c12.195,9.138,20.875,21.638,22.235,26.959c1.165-5.214,10.832-18.067,22.121-27.215
				c12.343-10.001,31.465-18.233,31.322-41.802C785.05,455.206,744.998,448.416,731.786,483.916z"/>
		</g>
	</g>
	<g id="Shape_1_copy_121_3_">
		<g>
			<path fill-rule="evenodd" clip-rule="evenodd" d="M301.533,268.79c-13.849-36.975-53.216-28.348-53.475,14.566
				c-0.144,23.569,18.746,32.38,31.322,41.802c12.195,9.138,20.875,21.638,22.235,26.959c1.165-5.214,10.832-18.067,22.121-27.215
				c12.344-10.002,31.466-18.232,31.323-41.802C354.798,240.08,314.746,233.29,301.533,268.79z"/>
		</g>
	</g>
	<g id="Shape_1_copy_121_4_">
		<g>
			<path fill-rule="evenodd" clip-rule="evenodd" d="M409.097,268.79c-13.85-36.975-53.217-28.348-53.476,14.566
				c-0.144,23.569,18.746,32.38,31.322,41.802c12.195,9.138,20.875,21.638,22.235,26.959c1.165-5.214,10.832-18.067,22.121-27.215
				c12.344-10.002,31.466-18.232,31.322-41.802C462.361,240.08,422.309,233.29,409.097,268.79z"/>
		</g>
	</g>
	<g id="Shape_1_copy_121_5_">
		<g>
			<path d="M516.66,268.79c-13.85-36.975-53.217-28.348-53.476,14.566c-0.144,23.569,18.746,32.38,31.322,41.802
				c12.195,9.138,20.875,21.638,22.235,26.959c1.165-5.214,10.832-18.067,22.121-27.215c12.343-10.002,31.465-18.232,31.322-41.802
				C569.924,240.08,529.872,233.29,516.66,268.79z"/>
		</g>
	</g>
	<g id="Shape_1_copy_125_3_">
		<g>
			<path d="M731.786,376.354c-13.85-36.975-53.216-28.348-53.476,14.566c-0.144,23.569,18.746,32.379,31.322,41.801
				c12.195,9.139,20.875,21.639,22.235,26.96c1.165-5.214,10.832-18.067,22.121-27.215c12.343-10.002,31.465-18.233,31.322-41.802
				C785.05,347.643,744.998,340.854,731.786,376.354z"/>
		</g>
	</g>
	<g id="Shape_1_copy_125_4_">
		<g>
			<path fill-rule="evenodd" clip-rule="evenodd" d="M731.786,268.79c-13.85-36.975-53.216-28.348-53.476,14.566
				c-0.144,23.569,18.746,32.38,31.322,41.802c12.195,9.138,20.875,21.638,22.235,26.959c1.165-5.214,10.832-18.067,22.121-27.215
				c12.343-10.002,31.465-18.232,31.322-41.802C785.05,240.08,744.998,233.29,731.786,268.79z"/>
		</g>
	</g>
	<g id="Shape_1_copy_125_5_">
		<g>
			<path fill-rule="evenodd" clip-rule="evenodd" d="M731.786,161.227c-13.85-36.975-53.216-28.347-53.476,14.567
				c-0.144,23.568,18.746,32.379,31.322,41.801c12.195,9.139,20.875,21.639,22.235,26.96c1.165-5.214,10.832-18.068,22.121-27.215
				c12.343-10.002,31.465-18.233,31.322-41.802C785.05,132.517,744.998,125.728,731.786,161.227z"/>
		</g>
	</g>
	<g id="Shape_1_copy_122_3_">
		<g>
			<path d="M516.66,53.664c-13.85-36.975-53.217-28.348-53.476,14.566c-0.144,23.569,18.746,32.38,31.322,41.802
				c12.195,9.138,20.875,21.638,22.235,26.959c1.165-5.214,10.832-18.067,22.121-27.215c12.343-10.002,31.465-18.233,31.322-41.802
				C569.924,24.954,529.872,18.164,516.66,53.664z"/>
		</g>
	</g>
	<g id="Shape_1_copy_122_4_">
		<g>
			<path d="M624.223,53.664c-13.85-36.975-53.216-28.348-53.476,14.566c-0.144,23.569,18.746,32.38,31.322,41.802
				c12.195,9.138,20.875,21.638,22.235,26.959c1.165-5.214,10.832-18.067,22.121-27.215c12.343-10.002,31.465-18.233,31.322-41.802
				C677.487,24.954,637.435,18.164,624.223,53.664z"/>
		</g>
	</g>
	<g id="Shape_1_copy_122_5_">
		<g>
			<path d="M731.786,53.664c-13.85-36.975-53.216-28.348-53.476,14.566c-0.144,23.569,18.746,32.38,31.322,41.802
				c12.195,9.138,20.875,21.638,22.235,26.959c1.165-5.214,10.832-18.067,22.121-27.215c12.343-10.002,31.465-18.233,31.322-41.802
				C785.05,24.954,744.998,18.164,731.786,53.664z"/>
		</g>
	</g>
	<g id="Shape_1_copy_123_3_">
		<g>
			<path fill-rule="evenodd" clip-rule="evenodd" d="M193.97,53.664c-13.849-36.975-53.216-28.348-53.475,14.566
				c-0.144,23.569,18.746,32.38,31.322,41.802c12.195,9.138,20.875,21.638,22.234,26.959c1.165-5.214,10.833-18.067,22.121-27.215
				c12.344-10.002,31.466-18.233,31.323-41.802C247.235,24.954,207.183,18.164,193.97,53.664z"/>
		</g>
	</g>
	<g id="Shape_1_copy_123_4_">
		<g>
			<path fill-rule="evenodd" clip-rule="evenodd" d="M301.533,53.664c-13.849-36.975-53.216-28.348-53.475,14.566
				c-0.144,23.569,18.746,32.38,31.322,41.802c12.195,9.138,20.875,21.638,22.235,26.959c1.165-5.214,10.832-18.067,22.121-27.215
				c12.344-10.002,31.466-18.233,31.323-41.802C354.798,24.954,314.746,18.164,301.533,53.664z"/>
		</g>
	</g>
	<g id="Shape_1_copy_123_5_">
		<g>
			<path fill-rule="evenodd" clip-rule="evenodd" d="M409.097,53.664c-13.85-36.975-53.217-28.348-53.476,14.566
				c-0.144,23.569,18.746,32.38,31.322,41.802c12.195,9.138,20.875,21.638,22.235,26.959c1.165-5.214,10.832-18.067,22.121-27.215
				c12.344-10.002,31.466-18.233,31.322-41.802C462.361,24.954,422.309,18.164,409.097,53.664z"/>
		</g>
	</g>
	<g id="Shape_1_copy_124_6_">
		<g>
			<path fill-rule="evenodd" clip-rule="evenodd" d="M516.66,699.042c-13.85-36.975-53.217-28.348-53.476,14.566
				c-0.144,23.569,18.746,32.38,31.322,41.802c12.195,9.138,20.875,21.638,22.235,26.959c1.165-5.213,10.832-18.067,22.121-27.215
				c12.343-10.001,31.465-18.232,31.322-41.802C569.924,670.332,529.872,663.542,516.66,699.042z"/>
		</g>
	</g>
	<g id="Shape_1_copy_124_7_">
		<g>
			<path d="M624.223,699.042c-13.85-36.975-53.216-28.348-53.476,14.566c-0.144,23.569,18.746,32.38,31.322,41.802
				c12.195,9.138,20.875,21.638,22.235,26.959c1.165-5.213,10.832-18.067,22.121-27.215c12.343-10.001,31.465-18.232,31.322-41.802
				C677.487,670.332,637.435,663.542,624.223,699.042z"/>
		</g>
	</g>
	<g id="Shape_1_copy_124_8_">
		<g>
			<path fill-rule="evenodd" clip-rule="evenodd" d="M731.786,699.042c-13.85-36.975-53.216-28.348-53.476,14.566
				c-0.144,23.569,18.746,32.38,31.322,41.802c12.195,9.138,20.875,21.638,22.235,26.959c1.165-5.213,10.832-18.067,22.121-27.215
				c12.343-10.001,31.465-18.232,31.322-41.802C785.05,670.332,744.998,663.542,731.786,699.042z"/>
		</g>
	</g>
	<g id="Shape_1_copy_127_7_">
		<g>
			<path fill-rule="evenodd" clip-rule="evenodd" d="M86.407,591.479c-13.849-36.975-53.216-28.348-53.475,14.566
				c-0.144,23.569,18.746,32.379,31.322,41.802c12.195,9.138,20.875,21.638,22.235,26.959c1.165-5.214,10.832-18.067,22.121-27.215
				c12.344-10.002,31.466-18.233,31.322-41.802C139.672,562.769,99.62,555.979,86.407,591.479z"/>
		</g>
	</g>
	<g id="Shape_1_copy_127_8_">
		<g>
			<path d="M86.407,483.916c-13.849-36.975-53.216-28.348-53.475,14.566c-0.144,23.569,18.746,32.38,31.322,41.802
				c12.195,9.138,20.875,21.638,22.235,26.959c1.165-5.214,10.832-18.067,22.121-27.215c12.344-10.001,31.466-18.233,31.322-41.802
				C139.672,455.206,99.62,448.416,86.407,483.916z"/>
		</g>
	</g>
	<g id="Shape_1_copy_127_9_">
		<g>
			<path fill-rule="evenodd" clip-rule="evenodd" d="M86.407,376.354c-13.849-36.975-53.216-28.348-53.475,14.566
				c-0.144,23.569,18.746,32.379,31.322,41.801c12.195,9.139,20.875,21.639,22.235,26.96c1.165-5.214,10.832-18.067,22.121-27.215
				c12.344-10.002,31.466-18.233,31.322-41.802C139.672,347.643,99.62,340.854,86.407,376.354z"/>
		</g>
	</g>
	<g id="Shape_1_copy_127_10_">
		<g>
			<path d="M86.407,268.79c-13.849-36.975-53.216-28.348-53.475,14.566c-0.144,23.569,18.746,32.38,31.322,41.802
				c12.195,9.138,20.875,21.638,22.235,26.959c1.165-5.214,10.832-18.067,22.121-27.215c12.344-10.002,31.466-18.232,31.322-41.802
				C139.672,240.08,99.62,233.29,86.407,268.79z"/>
		</g>
	</g>
	<g id="Shape_1_copy_127_11_">
		<g>
			<path fill-rule="evenodd" clip-rule="evenodd" d="M86.407,161.227c-13.849-36.975-53.216-28.347-53.475,14.567
				c-0.144,23.568,18.746,32.379,31.322,41.801c12.195,9.139,20.875,21.639,22.235,26.96c1.165-5.214,10.832-18.068,22.121-27.215
				c12.344-10.002,31.466-18.233,31.322-41.802C139.672,132.517,99.62,125.728,86.407,161.227z"/>
		</g>
	</g>
	<g id="Shape_1_copy_127_12_">
		<g>
			<path fill-rule="evenodd" clip-rule="evenodd" d="M86.407,53.664C72.558,16.689,33.191,25.316,32.932,68.23
				c-0.144,23.569,18.746,32.38,31.322,41.802c12.195,9.138,20.875,21.638,22.235,26.959c1.165-5.214,10.832-18.067,22.121-27.215
				c12.344-10.002,31.466-18.233,31.322-41.802C139.672,24.954,99.62,18.164,86.407,53.664z"/>
		</g>
	</g>
	<g id="Shape_1_copy_127_13_">
		<g>
			<path d="M86.407,699.042c-13.849-36.975-53.216-28.348-53.475,14.566c-0.144,23.569,18.746,32.38,31.322,41.802
				c12.195,9.138,20.875,21.638,22.235,26.959c1.165-5.213,10.832-18.067,22.121-27.215c12.344-10.001,31.466-18.232,31.322-41.802
				C139.672,670.332,99.62,663.542,86.407,699.042z"/>
		</g>
	</g>
	<g id="Shape_1_copy_124_9_">
		<g>
			<path d="M193.97,699.042c-13.849-36.975-53.216-28.348-53.475,14.566c-0.144,23.569,18.746,32.38,31.322,41.802
				c12.195,9.138,20.875,21.638,22.234,26.959c1.165-5.213,10.833-18.067,22.121-27.215c12.344-10.001,31.466-18.232,31.323-41.802
				C247.235,670.332,207.183,663.542,193.97,699.042z"/>
		</g>
	</g>
	<g id="Shape_1_copy_124_10_">
		<g>
			<path d="M301.533,699.042c-13.849-36.975-53.216-28.348-53.475,14.566c-0.144,23.569,18.746,32.38,31.322,41.802
				c12.195,9.138,20.875,21.638,22.235,26.959c1.165-5.213,10.832-18.067,22.121-27.215c12.344-10.001,31.466-18.232,31.323-41.802
				C354.798,670.332,314.746,663.542,301.533,699.042z"/>
		</g>
	</g>
	<g id="Shape_1_copy_124_11_">
		<g>
			<path fill-rule="evenodd" clip-rule="evenodd" d="M409.097,699.042c-13.85-36.975-53.217-28.348-53.476,14.566
				c-0.144,23.569,18.746,32.38,31.322,41.802c12.195,9.138,20.875,21.638,22.235,26.959c1.165-5.213,10.832-18.067,22.121-27.215
				c12.344-10.001,31.466-18.232,31.322-41.802C462.361,670.332,422.309,663.542,409.097,699.042z"/>
		</g>
	</g>
</g>
<g id="ro_1_">
	<g id="Shape_1_copy_119_8_">
		<g>
			<path fill-rule="evenodd" clip-rule="evenodd" d="M1807.416,483.916c-13.85-36.975-53.217-28.348-53.476,14.566
				c-0.144,23.569,18.745,32.38,31.322,41.802c12.195,9.138,20.875,21.638,22.235,26.959c1.164-5.214,10.831-18.067,22.12-27.215
				c12.344-10.001,31.466-18.233,31.322-41.802C1860.68,455.206,1820.629,448.416,1807.416,483.916z"/>
		</g>
	</g>
	<g id="Shape_1_copy_119_9_">
		<g>
			<path fill-rule="evenodd" clip-rule="evenodd" d="M1914.979,483.916c-13.85-36.975-53.216-28.348-53.475,14.566
				c-0.145,23.569,18.745,32.38,31.322,41.802c12.194,9.138,20.874,21.638,22.234,26.959c1.164-5.214,10.832-18.067,22.121-27.215
				c12.344-10.001,31.466-18.233,31.322-41.802C1968.243,455.206,1928.191,448.416,1914.979,483.916z"/>
		</g>
	</g>
	<g id="Shape_1_copy_119_10_">
		<g>
			<path d="M1807.416,376.354c-13.85-36.975-53.217-28.348-53.476,14.566c-0.144,23.569,18.745,32.379,31.322,41.801
				c12.195,9.139,20.875,21.639,22.235,26.96c1.164-5.214,10.831-18.067,22.12-27.215c12.344-10.002,31.466-18.233,31.322-41.802
				C1860.68,347.643,1820.629,340.854,1807.416,376.354z"/>
		</g>
	</g>
	<g id="Shape_1_copy_119_11_">
		<g>
			<path fill-rule="evenodd" clip-rule="evenodd" d="M1914.979,376.354c-13.85-36.975-53.216-28.348-53.475,14.566
				c-0.145,23.569,18.745,32.379,31.322,41.801c12.194,9.139,20.874,21.639,22.234,26.96c1.164-5.214,10.832-18.067,22.121-27.215
				c12.344-10.002,31.466-18.233,31.322-41.802C1968.243,347.643,1928.191,340.854,1914.979,376.354z"/>
		</g>
	</g>
	<g id="Shape_1_copy_120_4_">
		<g>
			<path fill-rule="evenodd" clip-rule="evenodd" d="M2022.542,483.916c-13.85-36.975-53.217-28.348-53.476,14.566
				c-0.144,23.569,18.746,32.38,31.322,41.802c12.195,9.138,20.875,21.638,22.234,26.959c1.165-5.214,10.832-18.067,22.121-27.215
				c12.344-10.001,31.466-18.233,31.322-41.802C2075.807,455.206,2035.754,448.416,2022.542,483.916z"/>
		</g>
	</g>
	<g id="Shape_1_copy_120_5_">
		<g>
			<path fill-rule="evenodd" clip-rule="evenodd" d="M2022.542,376.354c-13.85-36.975-53.217-28.348-53.476,14.566
				c-0.144,23.569,18.746,32.379,31.322,41.801c12.195,9.139,20.875,21.639,22.234,26.96c1.165-5.214,10.832-18.067,22.121-27.215
				c12.344-10.002,31.466-18.233,31.322-41.802C2075.807,347.643,2035.754,340.854,2022.542,376.354z"/>
		</g>
	</g>
	<g id="Shape_1_copy_126_4_">
		<g>
			<path d="M2237.668,591.479c-13.85-36.975-53.217-28.348-53.476,14.566c-0.144,23.569,18.745,32.379,31.322,41.802
				c12.195,9.138,20.875,21.638,22.235,26.959c1.164-5.214,10.832-18.067,22.12-27.215c12.344-10.002,31.466-18.233,31.322-41.802
				C2290.932,562.769,2250.881,555.979,2237.668,591.479z"/>
		</g>
	</g>
	<g id="Shape_1_copy_126_5_">
		<g>
			<path d="M2237.668,483.916c-13.85-36.975-53.217-28.348-53.476,14.566c-0.144,23.569,18.745,32.38,31.322,41.802
				c12.195,9.138,20.875,21.638,22.235,26.959c1.164-5.214,10.832-18.067,22.12-27.215c12.344-10.001,31.466-18.233,31.322-41.802
				C2290.932,455.206,2250.881,448.416,2237.668,483.916z"/>
		</g>
	</g>
	<g id="Shape_1_copy_121_6_">
		<g>
			<path d="M1807.416,268.79c-13.85-36.975-53.217-28.348-53.476,14.566c-0.144,23.569,18.745,32.38,31.322,41.802
				c12.195,9.138,20.875,21.638,22.235,26.959c1.164-5.214,10.831-18.067,22.12-27.215c12.344-10.002,31.466-18.232,31.322-41.802
				C1860.68,240.08,1820.629,233.29,1807.416,268.79z"/>
		</g>
	</g>
	<g id="Shape_1_copy_121_7_">
		<g>
			<path fill-rule="evenodd" clip-rule="evenodd" d="M1914.979,268.79c-13.85-36.975-53.216-28.348-53.475,14.566
				c-0.145,23.569,18.745,32.38,31.322,41.802c12.194,9.138,20.874,21.638,22.234,26.959c1.164-5.214,10.832-18.067,22.121-27.215
				c12.344-10.002,31.466-18.232,31.322-41.802C1968.243,240.08,1928.191,233.29,1914.979,268.79z"/>
		</g>
	</g>
	<g id="Shape_1_copy_121_8_">
		<g>
			<path d="M2022.542,268.79c-13.85-36.975-53.217-28.348-53.476,14.566c-0.144,23.569,18.746,32.38,31.322,41.802
				c12.195,9.138,20.875,21.638,22.234,26.959c1.165-5.214,10.832-18.067,22.121-27.215c12.344-10.002,31.466-18.232,31.322-41.802
				C2075.807,240.08,2035.754,233.29,2022.542,268.79z"/>
		</g>
	</g>
	<g id="Shape_1_copy_125_6_">
		<g>
			<path d="M2237.668,376.354c-13.85-36.975-53.217-28.348-53.476,14.566c-0.144,23.569,18.745,32.379,31.322,41.801
				c12.195,9.139,20.875,21.639,22.235,26.96c1.164-5.214,10.832-18.067,22.12-27.215c12.344-10.002,31.466-18.233,31.322-41.802
				C2290.932,347.643,2250.881,340.854,2237.668,376.354z"/>
		</g>
	</g>
	<g id="Shape_1_copy_125_7_">
		<g>
			<path d="M2237.668,268.79c-13.85-36.975-53.217-28.348-53.476,14.566c-0.144,23.569,18.745,32.38,31.322,41.802
				c12.195,9.138,20.875,21.638,22.235,26.959c1.164-5.214,10.832-18.067,22.12-27.215c12.344-10.002,31.466-18.232,31.322-41.802
				C2290.932,240.08,2250.881,233.29,2237.668,268.79z"/>
		</g>
	</g>
	<g id="Shape_1_copy_125_8_">
		<g>
			<path fill-rule="evenodd" clip-rule="evenodd" d="M2237.668,161.227c-13.85-36.975-53.217-28.347-53.476,14.567
				c-0.144,23.568,18.745,32.379,31.322,41.801c12.195,9.139,20.875,21.639,22.235,26.96c1.164-5.214,10.832-18.068,22.12-27.215
				c12.344-10.002,31.466-18.233,31.322-41.802C2290.932,132.517,2250.881,125.728,2237.668,161.227z"/>
		</g>
	</g>
	<g id="Shape_1_copy_122_6_">
		<g>
			<path d="M2022.542,53.664c-13.85-36.975-53.217-28.348-53.476,14.566c-0.144,23.569,18.746,32.38,31.322,41.802
				c12.195,9.138,20.875,21.638,22.234,26.959c1.165-5.214,10.832-18.067,22.121-27.215c12.344-10.002,31.466-18.233,31.322-41.802
				C2075.807,24.954,2035.754,18.164,2022.542,53.664z"/>
		</g>
	</g>
	<g id="Shape_1_copy_122_7_">
		<g>
			<path d="M2130.105,53.664c-13.85-36.975-53.217-28.348-53.477,14.566c-0.143,23.569,18.746,32.38,31.323,41.802
				c12.194,9.138,20.874,21.638,22.234,26.959c1.165-5.214,10.832-18.067,22.121-27.215c12.344-10.002,31.466-18.233,31.322-41.802
				C2183.369,24.954,2143.317,18.164,2130.105,53.664z"/>
		</g>
	</g>
	<g id="Shape_1_copy_122_8_">
		<g>
			<path fill-rule="evenodd" clip-rule="evenodd" d="M2237.668,53.664c-13.85-36.975-53.217-28.348-53.476,14.566
				c-0.144,23.569,18.745,32.38,31.322,41.802c12.195,9.138,20.875,21.638,22.235,26.959c1.164-5.214,10.832-18.067,22.12-27.215
				c12.344-10.002,31.466-18.233,31.322-41.802C2290.932,24.954,2250.881,18.164,2237.668,53.664z"/>
		</g>
	</g>
	<g id="Shape_1_copy_123_6_">
		<g>
			<path fill-rule="evenodd" clip-rule="evenodd" d="M1699.853,53.664c-13.849-36.975-53.216-28.348-53.476,14.566
				c-0.144,23.569,18.746,32.38,31.322,41.802c12.195,9.138,20.875,21.638,22.235,26.959c1.164-5.214,10.832-18.067,22.121-27.215
				c12.343-10.002,31.466-18.233,31.322-41.802C1753.117,24.954,1713.065,18.164,1699.853,53.664z"/>
		</g>
	</g>
	<g id="Shape_1_copy_123_7_">
		<g>
			<path fill-rule="evenodd" clip-rule="evenodd" d="M1807.416,53.664c-13.85-36.975-53.217-28.348-53.476,14.566
				c-0.144,23.569,18.745,32.38,31.322,41.802c12.195,9.138,20.875,21.638,22.235,26.959c1.164-5.214,10.831-18.067,22.12-27.215
				c12.344-10.002,31.466-18.233,31.322-41.802C1860.68,24.954,1820.629,18.164,1807.416,53.664z"/>
		</g>
	</g>
	<g id="Shape_1_copy_123_8_">
		<g>
			<path fill-rule="evenodd" clip-rule="evenodd" d="M1914.979,53.664c-13.85-36.975-53.216-28.348-53.475,14.566
				c-0.145,23.569,18.745,32.38,31.322,41.802c12.194,9.138,20.874,21.638,22.234,26.959c1.164-5.214,10.832-18.067,22.121-27.215
				c12.344-10.002,31.466-18.233,31.322-41.802C1968.243,24.954,1928.191,18.164,1914.979,53.664z"/>
		</g>
	</g>
	<g id="Shape_1_copy_124_12_">
		<g>
			<path d="M2022.542,699.042c-13.85-36.975-53.217-28.348-53.476,14.566c-0.144,23.569,18.746,32.38,31.322,41.802
				c12.195,9.138,20.875,21.638,22.234,26.959c1.165-5.213,10.832-18.067,22.121-27.215c12.344-10.001,31.466-18.232,31.322-41.802
				C2075.807,670.332,2035.754,663.542,2022.542,699.042z"/>
		</g>
	</g>
	<g id="Shape_1_copy_124_13_">
		<g>
			<path d="M2130.105,699.042c-13.85-36.975-53.217-28.348-53.477,14.566c-0.143,23.569,18.746,32.38,31.323,41.802
				c12.194,9.138,20.874,21.638,22.234,26.959c1.165-5.213,10.832-18.067,22.121-27.215c12.344-10.001,31.466-18.232,31.322-41.802
				C2183.369,670.332,2143.317,663.542,2130.105,699.042z"/>
		</g>
	</g>
	<g id="Shape_1_copy_124_14_">
		<g>
			<path fill-rule="evenodd" clip-rule="evenodd" d="M2237.668,699.042c-13.85-36.975-53.217-28.348-53.476,14.566
				c-0.144,23.569,18.745,32.38,31.322,41.802c12.195,9.138,20.875,21.638,22.235,26.959c1.164-5.213,10.832-18.067,22.12-27.215
				c12.344-10.001,31.466-18.232,31.322-41.802C2290.932,670.332,2250.881,663.542,2237.668,699.042z"/>
		</g>
	</g>
	<g id="Shape_1_copy_127_14_">
		<g>
			<path d="M1592.29,591.479c-13.85-36.975-53.217-28.348-53.476,14.566c-0.144,23.569,18.745,32.379,31.322,41.802
				c12.195,9.138,20.875,21.638,22.234,26.959c1.165-5.214,10.832-18.067,22.121-27.215c12.344-10.002,31.466-18.233,31.322-41.802
				C1645.554,562.769,1605.502,555.979,1592.29,591.479z"/>
		</g>
	</g>
	<g id="Shape_1_copy_127_15_">
		<g>
			<path d="M1592.29,483.916c-13.85-36.975-53.217-28.348-53.476,14.566c-0.144,23.569,18.745,32.38,31.322,41.802
				c12.195,9.138,20.875,21.638,22.234,26.959c1.165-5.214,10.832-18.067,22.121-27.215c12.344-10.001,31.466-18.233,31.322-41.802
				C1645.554,455.206,1605.502,448.416,1592.29,483.916z"/>
		</g>
	</g>
	<g id="Shape_1_copy_127_16_">
		<g>
			<path d="M1592.29,376.354c-13.85-36.975-53.217-28.348-53.476,14.566c-0.144,23.569,18.745,32.379,31.322,41.801
				c12.195,9.139,20.875,21.639,22.234,26.96c1.165-5.214,10.832-18.067,22.121-27.215c12.344-10.002,31.466-18.233,31.322-41.802
				C1645.554,347.643,1605.502,340.854,1592.29,376.354z"/>
		</g>
	</g>
	<g id="Shape_1_copy_127_17_">
		<g>
			<path d="M1592.29,268.79c-13.85-36.975-53.217-28.348-53.476,14.566c-0.144,23.569,18.745,32.38,31.322,41.802
				c12.195,9.138,20.875,21.638,22.234,26.959c1.165-5.214,10.832-18.067,22.121-27.215c12.344-10.002,31.466-18.232,31.322-41.802
				C1645.554,240.08,1605.502,233.29,1592.29,268.79z"/>
		</g>
	</g>
	<g id="Shape_1_copy_127_18_">
		<g>
			<path d="M1592.29,161.227c-13.85-36.975-53.217-28.347-53.476,14.567c-0.144,23.568,18.745,32.379,31.322,41.801
				c12.195,9.139,20.875,21.639,22.234,26.96c1.165-5.214,10.832-18.068,22.121-27.215c12.344-10.002,31.466-18.233,31.322-41.802
				C1645.554,132.517,1605.502,125.728,1592.29,161.227z"/>
		</g>
	</g>
	<g id="Shape_1_copy_127_19_">
		<g>
			<path d="M1592.29,53.664c-13.85-36.975-53.217-28.348-53.476,14.566c-0.144,23.569,18.745,32.38,31.322,41.802
				c12.195,9.138,20.875,21.638,22.234,26.959c1.165-5.214,10.832-18.067,22.121-27.215c12.344-10.002,31.466-18.233,31.322-41.802
				C1645.554,24.954,1605.502,18.164,1592.29,53.664z"/>
		</g>
	</g>
	<g id="Shape_1_copy_127_20_">
		<g>
			<path d="M1592.29,699.042c-13.85-36.975-53.217-28.348-53.476,14.566c-0.144,23.569,18.745,32.38,31.322,41.802
				c12.195,9.138,20.875,21.638,22.234,26.959c1.165-5.213,10.832-18.067,22.121-27.215c12.344-10.001,31.466-18.232,31.322-41.802
				C1645.554,670.332,1605.502,663.542,1592.29,699.042z"/>
		</g>
	</g>
	<g id="Shape_1_copy_124_15_">
		<g>
			<path d="M1699.853,699.042c-13.849-36.975-53.216-28.348-53.476,14.566c-0.144,23.569,18.746,32.38,31.322,41.802
				c12.195,9.138,20.875,21.638,22.235,26.959c1.164-5.213,10.832-18.067,22.121-27.215c12.343-10.001,31.466-18.232,31.322-41.802
				C1753.117,670.332,1713.065,663.542,1699.853,699.042z"/>
		</g>
	</g>
	<g id="Shape_1_copy_124_16_">
		<g>
			<path fill-rule="evenodd" clip-rule="evenodd" d="M1807.416,699.042c-13.85-36.975-53.217-28.348-53.476,14.566
				c-0.144,23.569,18.745,32.38,31.322,41.802c12.195,9.138,20.875,21.638,22.235,26.959c1.164-5.213,10.831-18.067,22.12-27.215
				c12.344-10.001,31.466-18.232,31.322-41.802C1860.68,670.332,1820.629,663.542,1807.416,699.042z"/>
		</g>
	</g>
	<g id="Shape_1_copy_124_17_">
		<g>
			<path fill-rule="evenodd" clip-rule="evenodd" d="M1914.979,699.042c-13.85-36.975-53.216-28.348-53.475,14.566
				c-0.145,23.569,18.745,32.38,31.322,41.802c12.194,9.138,20.874,21.638,22.234,26.959c1.164-5.213,10.832-18.067,22.121-27.215
				c12.344-10.001,31.466-18.232,31.322-41.802C1968.243,670.332,1928.191,663.542,1914.979,699.042z"/>
		</g>
	</g>
</g>
<g id="All_1_">
	<g id="Shape_1">
		<g>
			<path d="M1377.164,1129.294c-13.85-36.975-53.217-28.347-53.476,14.567c-0.144,23.568,18.745,32.379,31.322,41.801
				c12.195,9.138,20.874,21.638,22.234,26.959c1.165-5.213,10.832-18.066,22.121-27.215c12.344-10.001,31.466-18.232,31.322-41.802
				C1430.428,1100.584,1390.376,1093.795,1377.164,1129.294z"/>
		</g>
	</g>
	<g id="Shape_1_copy_31">
		<g>
			<path d="M1484.727,914.168c-13.85-36.975-53.216-28.348-53.476,14.566c-0.144,23.569,18.746,32.38,31.322,41.802
				c12.195,9.138,20.875,21.638,22.235,26.959c1.164-5.213,10.832-18.067,22.121-27.214c12.344-10.002,31.466-18.233,31.322-41.803
				C1537.991,885.458,1497.939,878.668,1484.727,914.168z"/>
		</g>
	</g>
	<g id="Shape_1_copy_36">
		<g>
			<path fill-rule="evenodd" clip-rule="evenodd" d="M1699.853,914.168c-13.849-36.975-53.216-28.348-53.476,14.566
				c-0.144,23.569,18.746,32.38,31.322,41.802c12.195,9.138,20.875,21.638,22.235,26.959c1.164-5.213,10.832-18.067,22.121-27.214
				c12.343-10.002,31.466-18.233,31.322-41.803C1753.117,885.458,1713.065,878.668,1699.853,914.168z"/>
		</g>
	</g>
	<g id="Shape_1_copy_85">
		<g>
			<path fill-rule="evenodd" clip-rule="evenodd" d="M1914.979,914.168c-13.85-36.975-53.216-28.348-53.475,14.566
				c-0.145,23.569,18.745,32.38,31.322,41.802c12.194,9.138,20.874,21.638,22.234,26.959c1.164-5.213,10.832-18.067,22.121-27.214
				c12.344-10.002,31.466-18.233,31.322-41.803C1968.243,885.458,1928.191,878.668,1914.979,914.168z"/>
		</g>
	</g>
	<g id="Shape_1_copy_86">
		<g>
			<path fill-rule="evenodd" clip-rule="evenodd" d="M1914.979,1236.857c-13.85-36.975-53.216-28.348-53.475,14.566
				c-0.145,23.569,18.745,32.379,31.322,41.802c12.194,9.138,20.874,21.638,22.234,26.959c1.164-5.214,10.832-18.067,22.121-27.215
				c12.344-10.002,31.466-18.233,31.322-41.802C1968.243,1208.147,1928.191,1201.357,1914.979,1236.857z"/>
		</g>
	</g>
	<g id="Shape_1_copy_87">
		<g>
			<path d="M2022.542,1236.857c-13.85-36.975-53.217-28.348-53.476,14.566c-0.144,23.569,18.746,32.379,31.322,41.802
				c12.195,9.138,20.875,21.638,22.234,26.959c1.165-5.214,10.832-18.067,22.121-27.215c12.344-10.002,31.466-18.233,31.322-41.802
				C2075.807,1208.147,2035.754,1201.357,2022.542,1236.857z"/>
		</g>
	</g>
	<g id="Shape_1_copy_88">
		<g>
			<path fill-rule="evenodd" clip-rule="evenodd" d="M2130.105,1129.294c-13.85-36.975-53.217-28.347-53.477,14.567
				c-0.143,23.568,18.746,32.379,31.323,41.801c12.194,9.138,20.874,21.638,22.234,26.959c1.165-5.213,10.832-18.066,22.121-27.215
				c12.344-10.001,31.466-18.232,31.322-41.802C2183.369,1100.584,2143.317,1093.795,2130.105,1129.294z"/>
		</g>
	</g>
	<g id="Shape_1_copy_92">
		<g>
			<path fill-rule="evenodd" clip-rule="evenodd" d="M2237.668,1236.857c-13.85-36.975-53.217-28.348-53.476,14.566
				c-0.144,23.569,18.745,32.379,31.322,41.802c12.195,9.138,20.875,21.638,22.235,26.959c1.164-5.214,10.832-18.067,22.12-27.215
				c12.344-10.002,31.466-18.233,31.322-41.802C2290.932,1208.147,2250.881,1201.357,2237.668,1236.857z"/>
		</g>
	</g>
	<g id="Shape_1_copy_93">
		<g>
			<path fill-rule="evenodd" clip-rule="evenodd" d="M2237.668,1129.294c-13.85-36.975-53.217-28.347-53.476,14.567
				c-0.144,23.568,18.745,32.379,31.322,41.801c12.195,9.138,20.875,21.638,22.235,26.959c1.164-5.213,10.832-18.066,22.12-27.215
				c12.344-10.001,31.466-18.232,31.322-41.802C2290.932,1100.584,2250.881,1093.795,2237.668,1129.294z"/>
		</g>
	</g>
	<g id="Shape_1_copy_94">
		<g>
			<path fill-rule="evenodd" clip-rule="evenodd" d="M2130.105,1021.731c-13.85-36.975-53.217-28.348-53.477,14.566
				c-0.143,23.569,18.746,32.379,31.323,41.802c12.194,9.138,20.874,21.638,22.234,26.959c1.165-5.214,10.832-18.067,22.121-27.215
				c12.344-10.002,31.466-18.233,31.322-41.802C2183.369,993.021,2143.317,986.231,2130.105,1021.731z"/>
		</g>
	</g>
	<g id="Shape_1_copy_95">
		<g>
			<path fill-rule="evenodd" clip-rule="evenodd" d="M2237.668,1021.731c-13.85-36.975-53.217-28.348-53.476,14.566
				c-0.144,23.569,18.745,32.379,31.322,41.802c12.195,9.138,20.875,21.638,22.235,26.959c1.164-5.214,10.832-18.067,22.12-27.215
				c12.344-10.002,31.466-18.233,31.322-41.802C2290.932,993.021,2250.881,986.231,2237.668,1021.731z"/>
		</g>
	</g>
	<g id="Shape_1_copy_96">
		<g>
			<path fill-rule="evenodd" clip-rule="evenodd" d="M2237.668,914.168c-13.85-36.975-53.217-28.348-53.476,14.566
				c-0.144,23.569,18.745,32.38,31.322,41.802c12.195,9.138,20.875,21.638,22.235,26.959c1.164-5.213,10.832-18.067,22.12-27.214
				c12.344-10.002,31.466-18.233,31.322-41.803C2290.932,885.458,2250.881,878.668,2237.668,914.168z"/>
		</g>
	</g>
	<g id="Shape_1_copy_90">
		<g>
			<path fill-rule="evenodd" clip-rule="evenodd" d="M1914.979,1021.731c-13.85-36.975-53.216-28.348-53.475,14.566
				c-0.145,23.569,18.745,32.379,31.322,41.802c12.194,9.138,20.874,21.638,22.234,26.959c1.164-5.214,10.832-18.067,22.121-27.215
				c12.344-10.002,31.466-18.233,31.322-41.802C1968.243,993.021,1928.191,986.231,1914.979,1021.731z"/>
		</g>
	</g>
	<g id="Shape_1_copy_91">
		<g>
			<path d="M2022.542,914.168c-13.85-36.975-53.217-28.348-53.476,14.566c-0.144,23.569,18.746,32.38,31.322,41.802
				c12.195,9.138,20.875,21.638,22.234,26.959c1.165-5.213,10.832-18.067,22.121-27.214c12.344-10.002,31.466-18.233,31.322-41.803
				C2075.807,885.458,2035.754,878.668,2022.542,914.168z"/>
		</g>
	</g>
	<g id="Shape_1_copy_89">
		<g>
			<path fill-rule="evenodd" clip-rule="evenodd" d="M2022.542,1129.294c-13.85-36.975-53.217-28.347-53.476,14.567
				c-0.144,23.568,18.746,32.379,31.322,41.801c12.195,9.138,20.875,21.638,22.234,26.959c1.165-5.213,10.832-18.066,22.121-27.215
				c12.344-10.001,31.466-18.232,31.322-41.802C2075.807,1100.584,2035.754,1093.795,2022.542,1129.294z"/>
		</g>
	</g>
	<g id="Shape_1_copy_37">
		<g>
			<path d="M1699.853,1021.731c-13.849-36.975-53.216-28.348-53.476,14.566c-0.144,23.569,18.746,32.379,31.322,41.802
				c12.195,9.138,20.875,21.638,22.235,26.959c1.164-5.214,10.832-18.067,22.121-27.215c12.343-10.002,31.466-18.233,31.322-41.802
				C1753.117,993.021,1713.065,986.231,1699.853,1021.731z"/>
		</g>
	</g>
	<g id="Shape_1_copy_38">
		<g>
			<path fill-rule="evenodd" clip-rule="evenodd" d="M1699.853,1129.294c-13.849-36.975-53.216-28.347-53.476,14.567
				c-0.144,23.568,18.746,32.379,31.322,41.801c12.195,9.138,20.875,21.638,22.235,26.959c1.164-5.213,10.832-18.066,22.121-27.215
				c12.343-10.001,31.466-18.232,31.322-41.802C1753.117,1100.584,1713.065,1093.795,1699.853,1129.294z"/>
		</g>
	</g>
	<g id="Shape_1_copy_32">
		<g>
			<path fill-rule="evenodd" clip-rule="evenodd" d="M1592.29,914.168c-13.85-36.975-53.217-28.348-53.476,14.566
				c-0.144,23.569,18.745,32.38,31.322,41.802c12.195,9.138,20.875,21.638,22.234,26.959c1.165-5.213,10.832-18.067,22.121-27.214
				c12.344-10.002,31.466-18.233,31.322-41.803C1645.554,885.458,1605.502,878.668,1592.29,914.168z"/>
		</g>
	</g>
	<g id="Shape_1_copy_33">
		<g>
			<path fill-rule="evenodd" clip-rule="evenodd" d="M1592.29,1021.731c-13.85-36.975-53.217-28.348-53.476,14.566
				c-0.144,23.569,18.745,32.379,31.322,41.802c12.195,9.138,20.875,21.638,22.234,26.959c1.165-5.214,10.832-18.067,22.121-27.215
				c12.344-10.002,31.466-18.233,31.322-41.802C1645.554,993.021,1605.502,986.231,1592.29,1021.731z"/>
		</g>
	</g>
	<g id="Shape_1_copy_35">
		<g>
			<path fill-rule="evenodd" clip-rule="evenodd" d="M1162.038,1236.857c-13.85-36.975-53.217-28.348-53.476,14.566
				c-0.143,23.569,18.746,32.379,31.323,41.802c12.195,9.138,20.875,21.638,22.234,26.959c1.165-5.214,10.832-18.067,22.121-27.215
				c12.344-10.002,31.466-18.233,31.322-41.802C1215.302,1208.147,1175.25,1201.357,1162.038,1236.857z"/>
		</g>
	</g>
	<g id="Shape_1_copy_67">
		<g>
			<path fill-rule="evenodd" clip-rule="evenodd" d="M1162.038,1344.42c-13.85-36.975-53.217-28.347-53.476,14.567
				c-0.143,23.568,18.746,32.379,31.323,41.801c12.195,9.138,20.875,21.638,22.234,26.96c1.165-5.214,10.832-18.068,22.121-27.215
				c12.344-10.002,31.466-18.233,31.322-41.803C1215.302,1315.71,1175.25,1308.92,1162.038,1344.42z"/>
		</g>
	</g>
	<g id="Shape_1_copy_68">
		<g>
			<path fill-rule="evenodd" clip-rule="evenodd" d="M946.912,1236.857c-13.849-36.975-53.216-28.348-53.476,14.566
				c-0.143,23.569,18.746,32.379,31.322,41.802c12.195,9.138,20.875,21.638,22.235,26.959c1.165-5.214,10.832-18.067,22.121-27.215
				c12.343-10.002,31.466-18.233,31.322-41.802C1000.176,1208.147,960.125,1201.357,946.912,1236.857z"/>
		</g>
	</g>
	<g id="Shape_1_copy_69">
		<g>
			<path fill-rule="evenodd" clip-rule="evenodd" d="M946.912,1344.42c-13.849-36.975-53.216-28.347-53.476,14.567
				c-0.143,23.568,18.746,32.379,31.322,41.801c12.195,9.138,20.875,21.638,22.235,26.96c1.165-5.214,10.832-18.068,22.121-27.215
				c12.343-10.002,31.466-18.233,31.322-41.803C1000.176,1315.71,960.125,1308.92,946.912,1344.42z"/>
		</g>
	</g>
	<g id="Shape_1_copy_70">
		<g>
			<path fill-rule="evenodd" clip-rule="evenodd" d="M946.912,1451.983c-13.849-36.975-53.216-28.348-53.476,14.566
				c-0.143,23.569,18.746,32.379,31.322,41.802c12.195,9.138,20.875,21.638,22.235,26.959c1.165-5.214,10.832-18.067,22.121-27.215
				c12.343-10.002,31.466-18.233,31.322-41.802C1000.176,1423.273,960.125,1416.483,946.912,1451.983z"/>
		</g>
	</g>
	<g id="Shape_1_copy_71">
		<g>
			<path fill-rule="evenodd" clip-rule="evenodd" d="M946.912,1559.546c-13.849-36.974-53.216-28.347-53.476,14.567
				c-0.143,23.568,18.746,32.379,31.322,41.801c12.195,9.139,20.875,21.639,22.235,26.96c1.165-5.214,10.832-18.067,22.121-27.215
				c12.343-10.002,31.466-18.233,31.322-41.802C1000.176,1530.836,960.125,1524.047,946.912,1559.546z"/>
		</g>
	</g>
	<g id="Shape_1_copy_72">
		<g>
			<path fill-rule="evenodd" clip-rule="evenodd" d="M1054.475,1559.546c-13.85-36.974-53.216-28.347-53.476,14.567
				c-0.144,23.568,18.746,32.379,31.322,41.801c12.195,9.139,20.875,21.639,22.235,26.96c1.165-5.214,10.832-18.067,22.121-27.215
				c12.343-10.002,31.466-18.233,31.322-41.802C1107.739,1530.836,1067.688,1524.047,1054.475,1559.546z"/>
		</g>
	</g>
	<g id="Shape_1_copy_73">
		<g>
			<path fill-rule="evenodd" clip-rule="evenodd" d="M1054.475,1667.109c-13.85-36.975-53.216-28.348-53.476,14.566
				c-0.144,23.569,18.746,32.379,31.322,41.802c12.195,9.138,20.875,21.638,22.235,26.959c1.165-5.214,10.832-18.067,22.121-27.215
				c12.343-10.001,31.466-18.233,31.322-41.802C1107.739,1638.399,1067.688,1631.609,1054.475,1667.109z"/>
		</g>
	</g>
	<g id="Shape_1_copy_74">
		<g>
			<path fill-rule="evenodd" clip-rule="evenodd" d="M1054.475,1774.672c-13.85-36.974-53.216-28.347-53.476,14.567
				c-0.144,23.569,18.746,32.379,31.322,41.802c12.195,9.138,20.875,21.638,22.235,26.959c1.165-5.214,10.832-18.068,22.121-27.215
				c12.343-10.002,31.466-18.233,31.322-41.803C1107.739,1745.962,1067.688,1739.173,1054.475,1774.672z"/>
		</g>
	</g>
	<g id="Shape_1_copy_75">
		<g>
			<path fill-rule="evenodd" clip-rule="evenodd" d="M1269.601,1774.672c-13.85-36.974-53.216-28.347-53.476,14.567
				c-0.144,23.569,18.746,32.379,31.322,41.802c12.195,9.138,20.875,21.638,22.235,26.959c1.164-5.214,10.831-18.068,22.12-27.215
				c12.344-10.002,31.467-18.233,31.322-41.803C1322.865,1745.962,1282.813,1739.173,1269.601,1774.672z"/>
		</g>
	</g>
	<g id="Shape_1_copy_76">
		<g>
			<path fill-rule="evenodd" clip-rule="evenodd" d="M1269.601,1667.109c-13.85-36.975-53.216-28.348-53.476,14.566
				c-0.144,23.569,18.746,32.379,31.322,41.802c12.195,9.138,20.875,21.638,22.235,26.959c1.164-5.214,10.831-18.067,22.12-27.215
				c12.344-10.001,31.467-18.233,31.322-41.802C1322.865,1638.399,1282.813,1631.609,1269.601,1667.109z"/>
		</g>
	</g>
	<g id="Shape_1_copy_77">
		<g>
			<path fill-rule="evenodd" clip-rule="evenodd" d="M1269.601,1559.546c-13.85-36.974-53.216-28.347-53.476,14.567
				c-0.144,23.568,18.746,32.379,31.322,41.801c12.195,9.139,20.875,21.639,22.235,26.96c1.164-5.214,10.831-18.067,22.12-27.215
				c12.344-10.002,31.467-18.233,31.322-41.802C1322.865,1530.836,1282.813,1524.047,1269.601,1559.546z"/>
		</g>
	</g>
	<g id="Shape_1_copy_78">
		<g>
			<path fill-rule="evenodd" clip-rule="evenodd" d="M1269.601,1451.983c-13.85-36.975-53.216-28.348-53.476,14.566
				c-0.144,23.569,18.746,32.379,31.322,41.802c12.195,9.138,20.875,21.638,22.235,26.959c1.164-5.214,10.831-18.067,22.12-27.215
				c12.344-10.002,31.467-18.233,31.322-41.802C1322.865,1423.273,1282.813,1416.483,1269.601,1451.983z"/>
		</g>
	</g>
	<g id="Shape_1_copy_79">
		<g>
			<path fill-rule="evenodd" clip-rule="evenodd" d="M1484.727,1774.672c-13.85-36.974-53.216-28.347-53.476,14.567
				c-0.144,23.569,18.746,32.379,31.322,41.802c12.195,9.138,20.875,21.638,22.235,26.959c1.164-5.214,10.832-18.068,22.121-27.215
				c12.344-10.002,31.466-18.233,31.322-41.803C1537.991,1745.962,1497.939,1739.173,1484.727,1774.672z"/>
		</g>
	</g>
	<g id="Shape_1_copy_79_1_">
		<g>
			<path fill-rule="evenodd" clip-rule="evenodd" d="M1484.727,1667.109c-13.85-36.975-53.216-28.348-53.476,14.566
				c-0.144,23.569,18.746,32.379,31.322,41.802c12.195,9.138,20.875,21.638,22.235,26.959c1.164-5.214,10.832-18.067,22.121-27.215
				c12.344-10.001,31.466-18.233,31.322-41.802C1537.991,1638.399,1497.939,1631.609,1484.727,1667.109z"/>
		</g>
	</g>
	<g id="Shape_1_copy_80">
		<g>
			<path fill-rule="evenodd" clip-rule="evenodd" d="M1377.164,1667.109c-13.85-36.975-53.217-28.348-53.476,14.566
				c-0.144,23.569,18.745,32.379,31.322,41.802c12.195,9.138,20.874,21.638,22.234,26.959c1.165-5.214,10.832-18.067,22.121-27.215
				c12.344-10.001,31.466-18.233,31.322-41.802C1430.428,1638.399,1390.376,1631.609,1377.164,1667.109z"/>
		</g>
	</g>
	<g id="Shape_1_copy_79_2_">
		<g>
			<path fill-rule="evenodd" clip-rule="evenodd" d="M1484.727,1559.546c-13.85-36.974-53.216-28.347-53.476,14.567
				c-0.144,23.568,18.746,32.379,31.322,41.801c12.195,9.139,20.875,21.639,22.235,26.96c1.164-5.214,10.832-18.067,22.121-27.215
				c12.344-10.002,31.466-18.233,31.322-41.802C1537.991,1530.836,1497.939,1524.047,1484.727,1559.546z"/>
		</g>
	</g>
	<g id="Shape_1_copy_79_3_">
		<g>
			<path fill-rule="evenodd" clip-rule="evenodd" d="M1484.727,1451.983c-13.85-36.975-53.216-28.348-53.476,14.566
				c-0.144,23.569,18.746,32.379,31.322,41.802c12.195,9.138,20.875,21.638,22.235,26.959c1.164-5.214,10.832-18.067,22.121-27.215
				c12.344-10.002,31.466-18.233,31.322-41.802C1537.991,1423.273,1497.939,1416.483,1484.727,1451.983z"/>
		</g>
	</g>
	<g id="Shape_1_copy_83">
		<g>
			<path fill-rule="evenodd" clip-rule="evenodd" d="M1484.727,1344.42c-13.85-36.975-53.216-28.347-53.476,14.567
				c-0.144,23.568,18.746,32.379,31.322,41.801c12.195,9.138,20.875,21.638,22.235,26.96c1.164-5.214,10.832-18.068,22.121-27.215
				c12.344-10.002,31.466-18.233,31.322-41.803C1537.991,1315.71,1497.939,1308.92,1484.727,1344.42z"/>
		</g>
	</g>
	<g id="Shape_1_copy_84">
		<g>
			<path fill-rule="evenodd" clip-rule="evenodd" d="M1592.29,1344.42c-13.85-36.975-53.217-28.347-53.476,14.567
				c-0.144,23.568,18.745,32.379,31.322,41.801c12.195,9.138,20.875,21.638,22.234,26.96c1.165-5.214,10.832-18.068,22.121-27.215
				c12.344-10.002,31.466-18.233,31.322-41.803C1645.554,1315.71,1605.502,1308.92,1592.29,1344.42z"/>
		</g>
	</g>
	<g id="Shape_1_copy_81">
		<g>
			<path fill-rule="evenodd" clip-rule="evenodd" d="M1377.164,1451.983c-13.85-36.975-53.217-28.348-53.476,14.566
				c-0.144,23.569,18.745,32.379,31.322,41.802c12.195,9.138,20.874,21.638,22.234,26.959c1.165-5.214,10.832-18.067,22.121-27.215
				c12.344-10.002,31.466-18.233,31.322-41.802C1430.428,1423.273,1390.376,1416.483,1377.164,1451.983z"/>
		</g>
	</g>
	<g id="Shape_1_copy_82">
		<g>
			<path fill-rule="evenodd" clip-rule="evenodd" d="M1377.164,1344.42c-13.85-36.975-53.217-28.347-53.476,14.567
				c-0.144,23.568,18.745,32.379,31.322,41.801c12.195,9.138,20.874,21.638,22.234,26.96c1.165-5.214,10.832-18.068,22.121-27.215
				c12.344-10.002,31.466-18.233,31.322-41.803C1430.428,1315.71,1390.376,1308.92,1377.164,1344.42z"/>
		</g>
	</g>
	<g id="Shape_1_copy_34">
		<g>
			<path fill-rule="evenodd" clip-rule="evenodd" d="M1592.29,1236.857c-13.85-36.975-53.217-28.348-53.476,14.566
				c-0.144,23.569,18.745,32.379,31.322,41.802c12.195,9.138,20.875,21.638,22.234,26.959c1.165-5.214,10.832-18.067,22.121-27.215
				c12.344-10.002,31.466-18.233,31.322-41.802C1645.554,1208.147,1605.502,1201.357,1592.29,1236.857z"/>
		</g>
	</g>
	<g id="Shape_1_copy">
		<g>
			<path fill-rule="evenodd" clip-rule="evenodd" d="M1269.601,1021.731c-13.85-36.975-53.216-28.348-53.476,14.566
				c-0.144,23.569,18.746,32.379,31.322,41.802c12.195,9.138,20.875,21.638,22.235,26.959c1.164-5.214,10.831-18.067,22.12-27.215
				c12.344-10.002,31.467-18.233,31.322-41.802C1322.865,993.021,1282.813,986.231,1269.601,1021.731z"/>
		</g>
	</g>
	<g id="Shape_1_copy_2">
		<g>
			<path fill-rule="evenodd" clip-rule="evenodd" d="M1162.038,1021.731c-13.85-36.975-53.217-28.348-53.476,14.566
				c-0.143,23.569,18.746,32.379,31.323,41.802c12.195,9.138,20.875,21.638,22.234,26.959c1.165-5.214,10.832-18.067,22.121-27.215
				c12.344-10.002,31.466-18.233,31.322-41.802C1215.302,993.021,1175.25,986.231,1162.038,1021.731z"/>
		</g>
	</g>
	<g id="Shape_1_copy_3">
		<g>
			<path fill-rule="evenodd" clip-rule="evenodd" d="M1162.038,914.168c-13.85-36.975-53.217-28.348-53.476,14.566
				c-0.143,23.569,18.746,32.38,31.323,41.802c12.195,9.138,20.875,21.638,22.234,26.959c1.165-5.213,10.832-18.067,22.121-27.214
				c12.344-10.002,31.466-18.233,31.322-41.803C1215.302,885.458,1175.25,878.668,1162.038,914.168z"/>
		</g>
	</g>
	<g id="Shape_1_copy_4">
		<g>
			<path fill-rule="evenodd" clip-rule="evenodd" d="M1054.475,914.168c-13.85-36.975-53.216-28.348-53.476,14.566
				c-0.144,23.569,18.746,32.38,31.322,41.802c12.195,9.138,20.875,21.638,22.235,26.959c1.165-5.213,10.832-18.067,22.121-27.214
				c12.343-10.002,31.466-18.233,31.322-41.803C1107.739,885.458,1067.688,878.668,1054.475,914.168z"/>
		</g>
	</g>
	<g id="Shape_1_copy_5">
		<g>
			<path d="M946.912,914.168c-13.849-36.975-53.216-28.348-53.476,14.566c-0.143,23.569,18.746,32.38,31.322,41.802
				c12.195,9.138,20.875,21.638,22.235,26.959c1.165-5.213,10.832-18.067,22.121-27.214c12.343-10.002,31.466-18.233,31.322-41.803
				C1000.176,885.458,960.125,878.668,946.912,914.168z"/>
		</g>
	</g>
	<g id="Shape_1_copy_6">
		<g>
			<path d="M839.349,914.168c-13.85-36.975-53.216-28.348-53.476,14.566c-0.144,23.569,18.746,32.38,31.322,41.802
				c12.195,9.138,20.875,21.638,22.235,26.959c1.165-5.213,10.832-18.067,22.121-27.214c12.343-10.002,31.466-18.233,31.322-41.803
				C892.613,885.458,852.561,878.668,839.349,914.168z"/>
		</g>
	</g>
	<g id="Shape_1_copy_7">
		<g>
			<path fill-rule="evenodd" clip-rule="evenodd" d="M731.786,914.168c-13.85-36.975-53.216-28.348-53.476,14.566
				c-0.144,23.569,18.746,32.38,31.322,41.802c12.195,9.138,20.875,21.638,22.235,26.959c1.165-5.213,10.832-18.067,22.121-27.214
				c12.343-10.002,31.465-18.233,31.322-41.803C785.05,885.458,744.998,878.668,731.786,914.168z"/>
		</g>
	</g>
	<g id="Shape_1_copy_8">
		<g>
			<path d="M624.223,914.168c-13.85-36.975-53.216-28.348-53.476,14.566c-0.144,23.569,18.746,32.38,31.322,41.802
				c12.195,9.138,20.875,21.638,22.235,26.959c1.165-5.213,10.832-18.067,22.121-27.214c12.343-10.002,31.465-18.233,31.322-41.803
				C677.487,885.458,637.435,878.668,624.223,914.168z"/>
		</g>
	</g>
	<g id="Shape_1_copy_39">
		<g>
			<path fill-rule="evenodd" clip-rule="evenodd" d="M409.097,914.168c-13.85-36.975-53.217-28.348-53.476,14.566
				c-0.144,23.569,18.746,32.38,31.322,41.802c12.195,9.138,20.875,21.638,22.235,26.959c1.165-5.213,10.832-18.067,22.121-27.214
				c12.344-10.002,31.466-18.233,31.322-41.803C462.361,885.458,422.309,878.668,409.097,914.168z"/>
		</g>
	</g>
	<g id="Shape_1_copy_42">
		<g>
			<path d="M193.97,914.168c-13.849-36.975-53.216-28.348-53.475,14.566c-0.144,23.569,18.746,32.38,31.322,41.802
				c12.195,9.138,20.875,21.638,22.234,26.959c1.165-5.213,10.833-18.067,22.121-27.214c12.344-10.002,31.466-18.233,31.323-41.803
				C247.235,885.458,207.183,878.668,193.97,914.168z"/>
		</g>
	</g>
	<g id="Shape_1_copy_43">
		<g>
			<path d="M193.97,1021.731c-13.849-36.975-53.216-28.348-53.475,14.566c-0.144,23.569,18.746,32.379,31.322,41.802
				c12.195,9.138,20.875,21.638,22.234,26.959c1.165-5.214,10.833-18.067,22.121-27.215c12.344-10.002,31.466-18.233,31.323-41.802
				C247.235,993.021,207.183,986.231,193.97,1021.731z"/>
		</g>
	</g>
	<g id="Shape_1_copy_44">
		<g>
			<path d="M86.407,1021.731c-13.849-36.975-53.216-28.348-53.475,14.566c-0.144,23.569,18.746,32.379,31.322,41.802
				c12.195,9.138,20.875,21.638,22.235,26.959c1.165-5.214,10.832-18.067,22.121-27.215c12.344-10.002,31.466-18.233,31.322-41.802
				C139.672,993.021,99.62,986.231,86.407,1021.731z"/>
		</g>
	</g>
	<g id="Shape_1_copy_45">
		<g>
			<path d="M86.407,1129.294c-13.849-36.975-53.216-28.347-53.475,14.567c-0.144,23.568,18.746,32.379,31.322,41.801
				c12.195,9.138,20.875,21.638,22.235,26.959c1.165-5.213,10.832-18.066,22.121-27.215c12.344-10.001,31.466-18.232,31.322-41.802
				C139.672,1100.584,99.62,1093.795,86.407,1129.294z"/>
		</g>
	</g>
	<g id="Shape_1_copy_46">
		<g>
			<path fill-rule="evenodd" clip-rule="evenodd" d="M193.97,1129.294c-13.849-36.975-53.216-28.347-53.475,14.567
				c-0.144,23.568,18.746,32.379,31.322,41.801c12.195,9.138,20.875,21.638,22.234,26.959c1.165-5.213,10.833-18.066,22.121-27.215
				c12.344-10.001,31.466-18.232,31.323-41.802C247.235,1100.584,207.183,1093.795,193.97,1129.294z"/>
		</g>
	</g>
	<g id="Shape_1_copy_47">
		<g>
			<path d="M301.533,1236.857c-13.849-36.975-53.216-28.348-53.475,14.566c-0.144,23.569,18.746,32.379,31.322,41.802
				c12.195,9.138,20.875,21.638,22.235,26.959c1.165-5.214,10.832-18.067,22.121-27.215c12.344-10.002,31.466-18.233,31.323-41.802
				C354.798,1208.147,314.746,1201.357,301.533,1236.857z"/>
		</g>
	</g>
	<g id="Shape_1_copy_48">
		<g>
			<path fill-rule="evenodd" clip-rule="evenodd" d="M409.097,1236.857c-13.85-36.975-53.217-28.348-53.476,14.566
				c-0.144,23.569,18.746,32.379,31.322,41.802c12.195,9.138,20.875,21.638,22.235,26.959c1.165-5.214,10.832-18.067,22.121-27.215
				c12.344-10.002,31.466-18.233,31.322-41.802C462.361,1208.147,422.309,1201.357,409.097,1236.857z"/>
		</g>
	</g>
	<g id="Shape_1_copy_49">
		<g>
			<path fill-rule="evenodd" clip-rule="evenodd" d="M409.097,1344.42c-13.85-36.975-53.217-28.347-53.476,14.567
				c-0.144,23.568,18.746,32.379,31.322,41.801c12.195,9.138,20.875,21.638,22.235,26.96c1.165-5.214,10.832-18.068,22.121-27.215
				c12.344-10.002,31.466-18.233,31.322-41.803C462.361,1315.71,422.309,1308.92,409.097,1344.42z"/>
		</g>
	</g>
	<g id="Shape_1_copy_50">
		<g>
			<path fill-rule="evenodd" clip-rule="evenodd" d="M516.66,1344.42c-13.85-36.975-53.217-28.347-53.476,14.567
				c-0.144,23.568,18.746,32.379,31.322,41.801c12.195,9.138,20.875,21.638,22.235,26.96c1.165-5.214,10.832-18.068,22.121-27.215
				c12.343-10.002,31.465-18.233,31.322-41.803C569.924,1315.71,529.872,1308.92,516.66,1344.42z"/>
		</g>
	</g>
	<g id="Shape_1_copy_51">
		<g>
			<path fill-rule="evenodd" clip-rule="evenodd" d="M624.223,1129.294c-13.85-36.975-53.216-28.347-53.476,14.567
				c-0.144,23.568,18.746,32.379,31.322,41.801c12.195,9.138,20.875,21.638,22.235,26.959c1.165-5.213,10.832-18.066,22.121-27.215
				c12.343-10.001,31.465-18.232,31.322-41.802C677.487,1100.584,637.435,1093.795,624.223,1129.294z"/>
		</g>
	</g>
	<g id="Shape_1_copy_52">
		<g>
			<path fill-rule="evenodd" clip-rule="evenodd" d="M839.349,1129.294c-13.85-36.975-53.216-28.347-53.476,14.567
				c-0.144,23.568,18.746,32.379,31.322,41.801c12.195,9.138,20.875,21.638,22.235,26.959c1.165-5.213,10.832-18.066,22.121-27.215
				c12.343-10.001,31.466-18.232,31.322-41.802C892.613,1100.584,852.561,1093.795,839.349,1129.294z"/>
		</g>
	</g>
	<g id="Shape_1_copy_54">
		<g>
			<path fill-rule="evenodd" clip-rule="evenodd" d="M731.786,1344.42c-13.85-36.975-53.216-28.347-53.476,14.567
				c-0.144,23.568,18.746,32.379,31.322,41.801c12.195,9.138,20.875,21.638,22.235,26.96c1.165-5.214,10.832-18.068,22.121-27.215
				c12.343-10.002,31.465-18.233,31.322-41.803C785.05,1315.71,744.998,1308.92,731.786,1344.42z"/>
		</g>
	</g>
	<g id="Shape_1_copy_55">
		<g>
			<path d="M839.349,1344.42c-13.85-36.975-53.216-28.347-53.476,14.567c-0.144,23.568,18.746,32.379,31.322,41.801
				c12.195,9.138,20.875,21.638,22.235,26.96c1.165-5.214,10.832-18.068,22.121-27.215c12.343-10.002,31.466-18.233,31.322-41.803
				C892.613,1315.71,852.561,1308.92,839.349,1344.42z"/>
		</g>
	</g>
	<g id="Shape_1_copy_56">
		<g>
			<path fill-rule="evenodd" clip-rule="evenodd" d="M946.912,1667.109c-13.849-36.975-53.216-28.348-53.476,14.566
				c-0.143,23.569,18.746,32.379,31.322,41.802c12.195,9.138,20.875,21.638,22.235,26.959c1.165-5.214,10.832-18.067,22.121-27.215
				c12.343-10.001,31.466-18.233,31.322-41.802C1000.176,1638.399,960.125,1631.609,946.912,1667.109z"/>
		</g>
	</g>
	<g id="Shape_1_copy_57">
		<g>
			<path fill-rule="evenodd" clip-rule="evenodd" d="M1269.601,2210.303c-13.85-36.975-53.216-28.348-53.476,14.566
				c-0.144,23.569,18.746,32.379,31.322,41.802c12.195,9.138,20.875,21.638,22.235,26.959c1.164-5.214,10.831-18.067,22.12-27.215
				c12.344-10.002,31.467-18.233,31.322-41.802C1322.865,2181.593,1282.813,2174.803,1269.601,2210.303z"/>
		</g>
	</g>
	<g id="Shape_1_copy_62">
		<g>
			<path fill-rule="evenodd" clip-rule="evenodd" d="M1377.164,2210.303c-13.85-36.975-53.217-28.348-53.476,14.566
				c-0.144,23.569,18.745,32.379,31.322,41.802c12.195,9.138,20.874,21.638,22.234,26.959c1.165-5.214,10.832-18.067,22.121-27.215
				c12.344-10.002,31.466-18.233,31.322-41.802C1430.428,2181.593,1390.376,2174.803,1377.164,2210.303z"/>
		</g>
	</g>
	<g id="Shape_1_copy_63">
		<g>
			<path fill-rule="evenodd" clip-rule="evenodd" d="M946.912,1882.235c-13.849-36.975-53.216-28.348-53.476,14.566
				c-0.143,23.569,18.746,32.38,31.322,41.802c12.195,9.138,20.875,21.638,22.235,26.959c1.165-5.214,10.832-18.067,22.121-27.215
				c12.343-10.002,31.466-18.232,31.322-41.802C1000.176,1853.525,960.125,1846.735,946.912,1882.235z"/>
		</g>
	</g>
	<g id="Shape_1_copy_64">
		<g>
			<path d="M1162.038,1882.235c-13.85-36.975-53.217-28.348-53.476,14.566c-0.143,23.569,18.746,32.38,31.323,41.802
				c12.195,9.138,20.875,21.638,22.234,26.959c1.165-5.214,10.832-18.067,22.121-27.215c12.344-10.002,31.466-18.232,31.322-41.802
				C1215.302,1853.525,1175.25,1846.735,1162.038,1882.235z"/>
		</g>
	</g>
	<g id="Shape_1_copy_65">
		<g>
			<path fill-rule="evenodd" clip-rule="evenodd" d="M1269.601,1882.235c-13.85-36.975-53.216-28.348-53.476,14.566
				c-0.144,23.569,18.746,32.38,31.322,41.802c12.195,9.138,20.875,21.638,22.235,26.959c1.164-5.214,10.831-18.067,22.12-27.215
				c12.344-10.002,31.467-18.232,31.322-41.802C1322.865,1853.525,1282.813,1846.735,1269.601,1882.235z"/>
		</g>
	</g>
	<g id="Shape_1_copy_66">
		<g>
			<path fill-rule="evenodd" clip-rule="evenodd" d="M1377.164,1989.799c-13.85-36.975-53.217-28.348-53.476,14.566
				c-0.144,23.569,18.745,32.379,31.322,41.801c12.195,9.139,20.874,21.639,22.234,26.96c1.165-5.214,10.832-18.067,22.121-27.215
				c12.344-10.002,31.466-18.233,31.322-41.802C1430.428,1961.088,1390.376,1954.299,1377.164,1989.799z"/>
		</g>
	</g>
	<g id="Shape_1_copy_97">
		<g>
			<path fill-rule="evenodd" clip-rule="evenodd" d="M1484.727,2097.361c-13.85-36.975-53.216-28.348-53.476,14.566
				c-0.144,23.569,18.746,32.38,31.322,41.802c12.195,9.138,20.875,21.638,22.235,26.959c1.164-5.214,10.832-18.067,22.121-27.214
				c12.344-10.002,31.466-18.234,31.322-41.803C1537.991,2068.651,1497.939,2061.861,1484.727,2097.361z"/>
		</g>
	</g>
	<g id="Shape_1_copy_98">
		<g>
			<path fill-rule="evenodd" clip-rule="evenodd" d="M1592.29,2102.739c-13.85-36.974-53.217-28.347-53.476,14.567
				c-0.144,23.568,18.745,32.379,31.322,41.801c12.195,9.139,20.875,21.638,22.234,26.959c1.165-5.213,10.832-18.067,22.121-27.215
				c12.344-10.001,31.466-18.232,31.322-41.801C1645.554,2074.029,1605.502,2067.24,1592.29,2102.739z"/>
		</g>
	</g>
	<g id="Shape_1_copy_99">
		<g>
			<path fill-rule="evenodd" clip-rule="evenodd" d="M1699.853,2210.303c-13.849-36.975-53.216-28.348-53.476,14.566
				c-0.144,23.569,18.746,32.379,31.322,41.802c12.195,9.138,20.875,21.638,22.235,26.959c1.164-5.214,10.832-18.067,22.121-27.215
				c12.343-10.002,31.466-18.233,31.322-41.802C1753.117,2181.593,1713.065,2174.803,1699.853,2210.303z"/>
		</g>
	</g>
	<g id="Shape_1_copy_100">
		<g>
			<path fill-rule="evenodd" clip-rule="evenodd" d="M1807.416,2210.303c-13.85-36.975-53.217-28.348-53.476,14.566
				c-0.144,23.569,18.745,32.379,31.322,41.802c12.195,9.138,20.875,21.638,22.235,26.959c1.164-5.214,10.831-18.067,22.12-27.215
				c12.344-10.002,31.466-18.233,31.322-41.802C1860.68,2181.593,1820.629,2174.803,1807.416,2210.303z"/>
		</g>
	</g>
	<g id="Shape_1_copy_101">
		<g>
			<path fill-rule="evenodd" clip-rule="evenodd" d="M1914.979,2210.303c-13.85-36.975-53.216-28.348-53.475,14.566
				c-0.145,23.569,18.745,32.379,31.322,41.802c12.194,9.138,20.874,21.638,22.234,26.959c1.164-5.214,10.832-18.067,22.121-27.215
				c12.344-10.002,31.466-18.233,31.322-41.802C1968.243,2181.593,1928.191,2174.803,1914.979,2210.303z"/>
		</g>
	</g>
	<g id="Shape_1_copy_102">
		<g>
			<path fill-rule="evenodd" clip-rule="evenodd" d="M1807.416,2102.739c-13.85-36.974-53.217-28.347-53.476,14.567
				c-0.144,23.568,18.745,32.379,31.322,41.801c12.195,9.139,20.875,21.638,22.235,26.959c1.164-5.213,10.831-18.067,22.12-27.215
				c12.344-10.001,31.466-18.232,31.322-41.801C1860.68,2074.029,1820.629,2067.24,1807.416,2102.739z"/>
		</g>
	</g>
	<g id="Shape_1_copy_102_1_">
		<g>
			<path fill-rule="evenodd" clip-rule="evenodd" d="M1914.979,2102.739c-13.85-36.974-53.216-28.347-53.475,14.567
				c-0.145,23.568,18.745,32.379,31.322,41.801c12.194,9.139,20.874,21.638,22.234,26.959c1.164-5.213,10.832-18.067,22.121-27.215
				c12.344-10.001,31.466-18.232,31.322-41.801C1968.243,2074.029,1928.191,2067.24,1914.979,2102.739z"/>
		</g>
	</g>
	<g id="Shape_1_copy_102_2_">
		<g>
			<path fill-rule="evenodd" clip-rule="evenodd" d="M2022.542,2102.739c-13.85-36.974-53.217-28.347-53.476,14.567
				c-0.144,23.568,18.746,32.379,31.322,41.801c12.195,9.139,20.875,21.638,22.234,26.959c1.165-5.213,10.832-18.067,22.121-27.215
				c12.344-10.001,31.466-18.232,31.322-41.801C2075.807,2074.029,2035.754,2067.24,2022.542,2102.739z"/>
		</g>
	</g>
	<g id="Shape_1_copy_117">
		<g>
			<path d="M2130.105,2204.924c-13.85-36.974-53.217-28.347-53.477,14.567c-0.143,23.569,18.746,32.379,31.323,41.802
				c12.194,9.138,20.874,21.637,22.234,26.959c1.165-5.214,10.832-18.067,22.121-27.215c12.344-10.002,31.466-18.233,31.322-41.802
				C2183.369,2176.215,2143.317,2169.425,2130.105,2204.924z"/>
		</g>
	</g>
	<g id="Shape_1_copy_103">
		<g>
			<path d="M1807.416,1995.177c-13.85-36.975-53.217-28.348-53.476,14.566c-0.144,23.569,18.745,32.379,31.322,41.802
				c12.195,9.138,20.875,21.638,22.235,26.959c1.164-5.214,10.831-18.067,22.12-27.215c12.344-10.002,31.466-18.233,31.322-41.802
				C1860.68,1966.467,1820.629,1959.677,1807.416,1995.177z"/>
		</g>
	</g>
	<g id="Shape_1_copy_104">
		<g>
			<path fill-rule="evenodd" clip-rule="evenodd" d="M1807.416,1882.235c-13.85-36.975-53.217-28.348-53.476,14.566
				c-0.144,23.569,18.745,32.38,31.322,41.802c12.195,9.138,20.875,21.638,22.235,26.959c1.164-5.214,10.831-18.067,22.12-27.215
				c12.344-10.002,31.466-18.232,31.322-41.802C1860.68,1853.525,1820.629,1846.735,1807.416,1882.235z"/>
		</g>
	</g>
	<g id="Shape_1_copy_105">
		<g>
			<path d="M1699.853,1882.235c-13.849-36.975-53.216-28.348-53.476,14.566c-0.144,23.569,18.746,32.38,31.322,41.802
				c12.195,9.138,20.875,21.638,22.235,26.959c1.164-5.214,10.832-18.067,22.121-27.215c12.343-10.002,31.466-18.232,31.322-41.802
				C1753.117,1853.525,1713.065,1846.735,1699.853,1882.235z"/>
		</g>
	</g>
	<g id="Shape_1_copy_106">
		<g>
			<path fill-rule="evenodd" clip-rule="evenodd" d="M1592.29,1774.672c-13.85-36.974-53.217-28.347-53.476,14.567
				c-0.144,23.569,18.745,32.379,31.322,41.802c12.195,9.138,20.875,21.638,22.234,26.959c1.165-5.214,10.832-18.068,22.121-27.215
				c12.344-10.002,31.466-18.233,31.322-41.803C1645.554,1745.962,1605.502,1739.173,1592.29,1774.672z"/>
		</g>
	</g>
	<g id="Shape_1_copy_107">
		<g>
			<path fill-rule="evenodd" clip-rule="evenodd" d="M1699.853,1667.109c-13.849-36.975-53.216-28.348-53.476,14.566
				c-0.144,23.569,18.746,32.379,31.322,41.802c12.195,9.138,20.875,21.638,22.235,26.959c1.164-5.214,10.832-18.067,22.121-27.215
				c12.343-10.001,31.466-18.233,31.322-41.802C1753.117,1638.399,1713.065,1631.609,1699.853,1667.109z"/>
		</g>
	</g>
	<g id="Shape_1_copy_108">
		<g>
			<path fill-rule="evenodd" clip-rule="evenodd" d="M1699.853,1559.546c-13.849-36.974-53.216-28.347-53.476,14.567
				c-0.144,23.568,18.746,32.379,31.322,41.801c12.195,9.139,20.875,21.639,22.235,26.96c1.164-5.214,10.832-18.067,22.121-27.215
				c12.343-10.002,31.466-18.233,31.322-41.802C1753.117,1530.836,1713.065,1524.047,1699.853,1559.546z"/>
		</g>
	</g>
	<g id="Shape_1_copy_109">
		<g>
			<path fill-rule="evenodd" clip-rule="evenodd" d="M1807.416,1559.546c-13.85-36.974-53.217-28.347-53.476,14.567
				c-0.144,23.568,18.745,32.379,31.322,41.801c12.195,9.139,20.875,21.639,22.235,26.96c1.164-5.214,10.831-18.067,22.12-27.215
				c12.344-10.002,31.466-18.233,31.322-41.802C1860.68,1530.836,1820.629,1524.047,1807.416,1559.546z"/>
		</g>
	</g>
	<g id="Shape_1_copy_109_1_">
		<g>
			<path fill-rule="evenodd" clip-rule="evenodd" d="M1807.416,1451.983c-13.85-36.975-53.217-28.348-53.476,14.566
				c-0.144,23.569,18.745,32.379,31.322,41.802c12.195,9.138,20.875,21.638,22.235,26.959c1.164-5.214,10.831-18.067,22.12-27.215
				c12.344-10.002,31.466-18.233,31.322-41.802C1860.68,1423.273,1820.629,1416.483,1807.416,1451.983z"/>
		</g>
	</g>
	<g id="Shape_1_copy_110">
		<g>
			<path d="M1914.979,1559.546c-13.85-36.974-53.216-28.347-53.475,14.567c-0.145,23.568,18.745,32.379,31.322,41.801
				c12.194,9.139,20.874,21.639,22.234,26.96c1.164-5.214,10.832-18.067,22.121-27.215c12.344-10.002,31.466-18.233,31.322-41.802
				C1968.243,1530.836,1928.191,1524.047,1914.979,1559.546z"/>
		</g>
	</g>
	<g id="Shape_1_copy_110_1_">
		<g>
			<path fill-rule="evenodd" clip-rule="evenodd" d="M1914.979,1451.983c-13.85-36.975-53.216-28.348-53.475,14.566
				c-0.145,23.569,18.745,32.379,31.322,41.802c12.194,9.138,20.874,21.638,22.234,26.959c1.164-5.214,10.832-18.067,22.121-27.215
				c12.344-10.002,31.466-18.233,31.322-41.802C1968.243,1423.273,1928.191,1416.483,1914.979,1451.983z"/>
		</g>
	</g>
	<g id="Shape_1_copy_111">
		<g>
			<path fill-rule="evenodd" clip-rule="evenodd" d="M1914.979,1774.672c-13.85-36.974-53.216-28.347-53.475,14.567
				c-0.145,23.569,18.745,32.379,31.322,41.802c12.194,9.138,20.874,21.638,22.234,26.959c1.164-5.214,10.832-18.068,22.121-27.215
				c12.344-10.002,31.466-18.233,31.322-41.803C1968.243,1745.962,1928.191,1739.173,1914.979,1774.672z"/>
		</g>
	</g>
	<g id="Shape_1_copy_111_1_">
		<g>
			<path fill-rule="evenodd" clip-rule="evenodd" d="M1914.979,1667.109c-13.85-36.975-53.216-28.348-53.475,14.566
				c-0.145,23.569,18.745,32.379,31.322,41.802c12.194,9.138,20.874,21.638,22.234,26.959c1.164-5.214,10.832-18.067,22.121-27.215
				c12.344-10.001,31.466-18.233,31.322-41.802C1968.243,1638.399,1928.191,1631.609,1914.979,1667.109z"/>
		</g>
	</g>
	<g id="Shape_1_copy_112">
		<g>
			<path fill-rule="evenodd" clip-rule="evenodd" d="M2022.542,1780.051c-13.85-36.975-53.217-28.348-53.476,14.566
				c-0.144,23.569,18.746,32.379,31.322,41.802c12.195,9.138,20.875,21.638,22.234,26.959c1.165-5.214,10.832-18.067,22.121-27.215
				c12.344-10.002,31.466-18.233,31.322-41.802C2075.807,1751.341,2035.754,1744.551,2022.542,1780.051z"/>
		</g>
	</g>
	<g id="Shape_1_copy_112_1_">
		<g>
			<path fill-rule="evenodd" clip-rule="evenodd" d="M2022.542,1672.487c-13.85-36.975-53.217-28.348-53.476,14.567
				c-0.144,23.568,18.746,32.379,31.322,41.801c12.195,9.138,20.875,21.638,22.234,26.959c1.165-5.213,10.832-18.067,22.121-27.215
				c12.344-10.001,31.466-18.232,31.322-41.802C2075.807,1643.777,2035.754,1636.988,2022.542,1672.487z"/>
		</g>
	</g>
	<g id="Shape_1_copy_118">
		<g>
			<path fill-rule="evenodd" clip-rule="evenodd" d="M2130.105,1559.546c-13.85-36.974-53.217-28.347-53.477,14.567
				c-0.143,23.568,18.746,32.379,31.323,41.801c12.194,9.139,20.874,21.639,22.234,26.96c1.165-5.214,10.832-18.067,22.121-27.215
				c12.344-10.002,31.466-18.233,31.322-41.802C2183.369,1530.836,2143.317,1524.047,2130.105,1559.546z"/>
		</g>
	</g>
	<g id="Shape_1_copy_113">
		<g>
			<path fill-rule="evenodd" clip-rule="evenodd" d="M2130.105,1887.613c-13.85-36.975-53.217-28.348-53.477,14.567
				c-0.143,23.568,18.746,32.379,31.323,41.801c12.194,9.138,20.874,21.638,22.234,26.96c1.165-5.214,10.832-18.068,22.121-27.215
				c12.344-10.002,31.466-18.233,31.322-41.803C2183.369,1858.903,2143.317,1852.114,2130.105,1887.613z"/>
		</g>
	</g>
	<g id="Shape_1_copy_115">
		<g>
			<path fill-rule="evenodd" clip-rule="evenodd" d="M2237.668,1887.613c-13.85-36.975-53.217-28.348-53.476,14.567
				c-0.144,23.568,18.745,32.379,31.322,41.801c12.195,9.138,20.875,21.638,22.235,26.96c1.164-5.214,10.832-18.068,22.12-27.215
				c12.344-10.002,31.466-18.233,31.322-41.803C2290.932,1858.903,2250.881,1852.114,2237.668,1887.613z"/>
		</g>
	</g>
	<g id="Shape_1_copy_116">
		<g>
			<path fill-rule="evenodd" clip-rule="evenodd" d="M2237.668,1989.799c-13.85-36.975-53.217-28.348-53.476,14.566
				c-0.144,23.569,18.745,32.379,31.322,41.801c12.195,9.139,20.875,21.639,22.235,26.96c1.164-5.214,10.832-18.067,22.12-27.215
				c12.344-10.002,31.466-18.233,31.322-41.802C2290.932,1961.088,2250.881,1954.299,2237.668,1989.799z"/>
		</g>
	</g>
	<g id="Shape_1_copy_114">
		<g>
			<path d="M2022.542,1887.613c-13.85-36.975-53.217-28.348-53.476,14.567c-0.144,23.568,18.746,32.379,31.322,41.801
				c12.195,9.138,20.875,21.638,22.234,26.96c1.165-5.214,10.832-18.068,22.121-27.215c12.344-10.002,31.466-18.233,31.322-41.803
				C2075.807,1858.903,2035.754,1852.114,2022.542,1887.613z"/>
		</g>
	</g>
	<g id="Shape_1_copy_113_1_">
		<g>
			<path fill-rule="evenodd" clip-rule="evenodd" d="M2130.105,1780.051c-13.85-36.975-53.217-28.348-53.477,14.566
				c-0.143,23.569,18.746,32.379,31.323,41.802c12.194,9.138,20.874,21.638,22.234,26.959c1.165-5.214,10.832-18.067,22.121-27.215
				c12.344-10.002,31.466-18.233,31.322-41.802C2183.369,1751.341,2143.317,1744.551,2130.105,1780.051z"/>
		</g>
	</g>
	<g id="Shape_1_copy_103_1_">
		<g>
			<path d="M1914.979,1995.177c-13.85-36.975-53.216-28.348-53.475,14.566c-0.145,23.569,18.745,32.379,31.322,41.802
				c12.194,9.138,20.874,21.638,22.234,26.959c1.164-5.214,10.832-18.067,22.121-27.215c12.344-10.002,31.466-18.233,31.322-41.802
				C1968.243,1966.467,1928.191,1959.677,1914.979,1995.177z"/>
		</g>
	</g>
	<g id="Shape_1_copy_103_2_">
		<g>
			<path fill-rule="evenodd" clip-rule="evenodd" d="M2022.542,1995.177c-13.85-36.975-53.217-28.348-53.476,14.566
				c-0.144,23.569,18.746,32.379,31.322,41.802c12.195,9.138,20.875,21.638,22.234,26.959c1.165-5.214,10.832-18.067,22.121-27.215
				c12.344-10.002,31.466-18.233,31.322-41.802C2075.807,1966.467,2035.754,1959.677,2022.542,1995.177z"/>
		</g>
	</g>
	<g id="Shape_1_copy_58">
		<g>
			<path d="M1162.038,2204.924c-13.85-36.974-53.217-28.347-53.476,14.567c-0.143,23.569,18.746,32.379,31.323,41.802
				c12.195,9.138,20.875,21.637,22.234,26.959c1.165-5.214,10.832-18.067,22.121-27.215c12.344-10.002,31.466-18.233,31.322-41.802
				C1215.302,2176.215,1175.25,2169.425,1162.038,2204.924z"/>
		</g>
	</g>
	<g id="Shape_1_copy_61">
		<g>
			<path fill-rule="evenodd" clip-rule="evenodd" d="M1162.038,2097.361c-13.85-36.975-53.217-28.348-53.476,14.566
				c-0.143,23.569,18.746,32.38,31.323,41.802c12.195,9.138,20.875,21.638,22.234,26.959c1.165-5.214,10.832-18.067,22.121-27.214
				c12.344-10.002,31.466-18.234,31.322-41.803C1215.302,2068.651,1175.25,2061.861,1162.038,2097.361z"/>
		</g>
	</g>
	<g id="Shape_1_copy_59">
		<g>
			<path fill-rule="evenodd" clip-rule="evenodd" d="M946.912,2097.361c-13.849-36.975-53.216-28.348-53.476,14.566
				c-0.143,23.569,18.746,32.38,31.322,41.802c12.195,9.138,20.875,21.638,22.235,26.959c1.165-5.214,10.832-18.067,22.121-27.214
				c12.343-10.002,31.466-18.234,31.322-41.803C1000.176,2068.651,960.125,2061.861,946.912,2097.361z"/>
		</g>
	</g>
	<g id="Shape_1_copy_60">
		<g>
			<path fill-rule="evenodd" clip-rule="evenodd" d="M1054.475,2204.924c-13.85-36.974-53.216-28.347-53.476,14.567
				c-0.144,23.569,18.746,32.379,31.322,41.802c12.195,9.138,20.875,21.637,22.235,26.959c1.165-5.214,10.832-18.067,22.121-27.215
				c12.343-10.002,31.466-18.233,31.322-41.802C1107.739,2176.215,1067.688,2169.425,1054.475,2204.924z"/>
		</g>
	</g>
	<g id="Shape_1_copy_53">
		<g>
			<path d="M731.786,1129.294c-13.85-36.975-53.216-28.347-53.476,14.567c-0.144,23.568,18.746,32.379,31.322,41.801
				c12.195,9.138,20.875,21.638,22.235,26.959c1.165-5.213,10.832-18.066,22.121-27.215c12.343-10.001,31.465-18.232,31.322-41.802
				C785.05,1100.584,744.998,1093.795,731.786,1129.294z"/>
		</g>
	</g>
	<g id="Shape_1_copy_40">
		<g>
			<path d="M409.097,1021.731c-13.85-36.975-53.217-28.348-53.476,14.566c-0.144,23.569,18.746,32.379,31.322,41.802
				c12.195,9.138,20.875,21.638,22.235,26.959c1.165-5.214,10.832-18.067,22.121-27.215c12.344-10.002,31.466-18.233,31.322-41.802
				C462.361,993.021,422.309,986.231,409.097,1021.731z"/>
		</g>
	</g>
	<g id="Shape_1_copy_41">
		<g>
			<path fill-rule="evenodd" clip-rule="evenodd" d="M516.66,1021.731c-13.85-36.975-53.217-28.348-53.476,14.566
				c-0.144,23.569,18.746,32.379,31.322,41.802c12.195,9.138,20.875,21.638,22.235,26.959c1.165-5.214,10.832-18.067,22.121-27.215
				c12.343-10.002,31.465-18.233,31.322-41.802C569.924,993.021,529.872,986.231,516.66,1021.731z"/>
		</g>
	</g>
	<g id="Shape_1_copy_9">
		<g>
			<path fill-rule="evenodd" clip-rule="evenodd" d="M946.912,806.605c-13.849-36.975-53.216-28.348-53.476,14.566
				c-0.143,23.568,18.746,32.379,31.322,41.802c12.195,9.138,20.875,21.638,22.235,26.959c1.165-5.214,10.832-18.067,22.121-27.215
				c12.343-10.002,31.466-18.233,31.322-41.802C1000.176,777.895,960.125,771.105,946.912,806.605z"/>
		</g>
	</g>
	<g id="Shape_1_copy_10">
		<g>
			<path fill-rule="evenodd" clip-rule="evenodd" d="M946.912,699.042c-13.849-36.975-53.216-28.348-53.476,14.566
				c-0.143,23.569,18.746,32.38,31.322,41.802c12.195,9.138,20.875,21.638,22.235,26.959c1.165-5.213,10.832-18.067,22.121-27.215
				c12.343-10.001,31.466-18.232,31.322-41.802C1000.176,670.332,960.125,663.542,946.912,699.042z"/>
		</g>
	</g>
	<g id="Shape_1_copy_11">
		<g>
			<path fill-rule="evenodd" clip-rule="evenodd" d="M946.912,591.479c-13.849-36.975-53.216-28.348-53.476,14.566
				c-0.143,23.569,18.746,32.379,31.322,41.802c12.195,9.138,20.875,21.638,22.235,26.959c1.165-5.214,10.832-18.067,22.121-27.215
				c12.343-10.002,31.466-18.233,31.322-41.802C1000.176,562.769,960.125,555.979,946.912,591.479z"/>
		</g>
	</g>
	<g id="Shape_1_copy_12">
		<g>
			<path fill-rule="evenodd" clip-rule="evenodd" d="M1054.475,591.479c-13.85-36.975-53.216-28.348-53.476,14.566
				c-0.144,23.569,18.746,32.379,31.322,41.802c12.195,9.138,20.875,21.638,22.235,26.959c1.165-5.214,10.832-18.067,22.121-27.215
				c12.343-10.002,31.466-18.233,31.322-41.802C1107.739,562.769,1067.688,555.979,1054.475,591.479z"/>
		</g>
	</g>
	<g id="Shape_1_copy_14">
		<g>
			<path fill-rule="evenodd" clip-rule="evenodd" d="M1054.475,483.916c-13.85-36.975-53.216-28.348-53.476,14.566
				c-0.144,23.569,18.746,32.38,31.322,41.802c12.195,9.138,20.875,21.638,22.235,26.959c1.165-5.214,10.832-18.067,22.121-27.215
				c12.343-10.001,31.466-18.233,31.322-41.802C1107.739,455.206,1067.688,448.416,1054.475,483.916z"/>
		</g>
	</g>
	<g id="Shape_1_copy_15">
		<g>
			<path fill-rule="evenodd" clip-rule="evenodd" d="M1054.475,376.354c-13.85-36.975-53.216-28.348-53.476,14.566
				c-0.144,23.569,18.746,32.379,31.322,41.801c12.195,9.139,20.875,21.639,22.235,26.96c1.165-5.214,10.832-18.067,22.121-27.215
				c12.343-10.002,31.466-18.233,31.322-41.802C1107.739,347.643,1067.688,340.854,1054.475,376.354z"/>
		</g>
	</g>
	<g id="Shape_1_copy_16">
		<g>
			<path fill-rule="evenodd" clip-rule="evenodd" d="M946.912,376.354c-13.849-36.975-53.216-28.348-53.476,14.566
				c-0.143,23.569,18.746,32.379,31.322,41.801c12.195,9.139,20.875,21.639,22.235,26.96c1.165-5.214,10.832-18.067,22.121-27.215
				c12.343-10.002,31.466-18.233,31.322-41.802C1000.176,347.643,960.125,340.854,946.912,376.354z"/>
		</g>
	</g>
	<g id="Shape_1_copy_17">
		<g>
			<path fill-rule="evenodd" clip-rule="evenodd" d="M946.912,268.79c-13.849-36.975-53.216-28.348-53.476,14.566
				c-0.143,23.569,18.746,32.38,31.322,41.802c12.195,9.138,20.875,21.638,22.235,26.959c1.165-5.214,10.832-18.067,22.121-27.215
				c12.343-10.002,31.466-18.232,31.322-41.802C1000.176,240.08,960.125,233.29,946.912,268.79z"/>
		</g>
	</g>
	<g id="Shape_1_copy_22">
		<g>
			<path fill-rule="evenodd" clip-rule="evenodd" d="M946.912,53.664c-13.849-36.975-53.216-28.348-53.476,14.566
				c-0.143,23.569,18.746,32.38,31.322,41.802c12.195,9.138,20.875,21.638,22.235,26.959c1.165-5.214,10.832-18.067,22.121-27.215
				c12.343-10.002,31.466-18.233,31.322-41.802C1000.176,24.954,960.125,18.164,946.912,53.664z"/>
		</g>
	</g>
	<g id="Shape_1_copy_23">
		<g>
			<path fill-rule="evenodd" clip-rule="evenodd" d="M1054.475,53.664c-13.85-36.975-53.216-28.348-53.476,14.566
				c-0.144,23.569,18.746,32.38,31.322,41.802c12.195,9.138,20.875,21.638,22.235,26.959c1.165-5.214,10.832-18.067,22.121-27.215
				c12.343-10.002,31.466-18.233,31.322-41.802C1107.739,24.954,1067.688,18.164,1054.475,53.664z"/>
		</g>
	</g>
	<g id="Shape_1_copy_24">
		<g>
			<path d="M1054.475,161.227c-13.85-36.975-53.216-28.347-53.476,14.567c-0.144,23.568,18.746,32.379,31.322,41.801
				c12.195,9.139,20.875,21.639,22.235,26.96c1.165-5.214,10.832-18.068,22.121-27.215c12.343-10.002,31.466-18.233,31.322-41.802
				C1107.739,132.517,1067.688,125.728,1054.475,161.227z"/>
		</g>
	</g>
	<g id="Shape_1_copy_25">
		<g>
			<path d="M1162.038,53.664c-13.85-36.975-53.217-28.348-53.476,14.566c-0.143,23.569,18.746,32.38,31.323,41.802
				c12.195,9.138,20.875,21.638,22.234,26.959c1.165-5.214,10.832-18.067,22.121-27.215c12.344-10.002,31.466-18.233,31.322-41.802
				C1215.302,24.954,1175.25,18.164,1162.038,53.664z"/>
		</g>
	</g>
	<g id="Shape_1_copy_26">
		<g>
			<path d="M1162.038,161.227c-13.85-36.975-53.217-28.347-53.476,14.567c-0.143,23.568,18.746,32.379,31.323,41.801
				c12.195,9.139,20.875,21.639,22.234,26.96c1.165-5.214,10.832-18.068,22.121-27.215c12.344-10.002,31.466-18.233,31.322-41.802
				C1215.302,132.517,1175.25,125.728,1162.038,161.227z"/>
		</g>
	</g>
	<g id="Shape_1_copy_27">
		<g>
			<path fill-rule="evenodd" clip-rule="evenodd" d="M1377.164,161.227c-13.85-36.975-53.217-28.347-53.476,14.567
				c-0.144,23.568,18.745,32.379,31.322,41.801c12.195,9.139,20.874,21.639,22.234,26.96c1.165-5.214,10.832-18.068,22.121-27.215
				c12.344-10.002,31.466-18.233,31.322-41.802C1430.428,132.517,1390.376,125.728,1377.164,161.227z"/>
		</g>
	</g>
	<g id="Shape_1_copy_28">
		<g>
			<path d="M1269.601,161.227c-13.85-36.975-53.216-28.347-53.476,14.567c-0.144,23.568,18.746,32.379,31.322,41.801
				c12.195,9.139,20.875,21.639,22.235,26.96c1.164-5.214,10.831-18.068,22.12-27.215c12.344-10.002,31.467-18.233,31.322-41.802
				C1322.865,132.517,1282.813,125.728,1269.601,161.227z"/>
		</g>
	</g>
	<g id="Shape_1_copy_18">
		<g>
			<path fill-rule="evenodd" clip-rule="evenodd" d="M1162.038,483.916c-13.85-36.975-53.217-28.348-53.476,14.566
				c-0.143,23.569,18.746,32.38,31.323,41.802c12.195,9.138,20.875,21.638,22.234,26.959c1.165-5.214,10.832-18.067,22.121-27.215
				c12.344-10.001,31.466-18.233,31.322-41.802C1215.302,455.206,1175.25,448.416,1162.038,483.916z"/>
		</g>
	</g>
	<g id="Shape_1_copy_19">
		<g>
			<path fill-rule="evenodd" clip-rule="evenodd" d="M1269.601,483.916c-13.85-36.975-53.216-28.348-53.476,14.566
				c-0.144,23.569,18.746,32.38,31.322,41.802c12.195,9.138,20.875,21.638,22.235,26.959c1.164-5.214,10.831-18.067,22.12-27.215
				c12.344-10.001,31.467-18.233,31.322-41.802C1322.865,455.206,1282.813,448.416,1269.601,483.916z"/>
		</g>
	</g>
	<g id="Shape_1_copy_29">
		<g>
			<path fill-rule="evenodd" clip-rule="evenodd" d="M1377.164,483.916c-13.85-36.975-53.217-28.348-53.476,14.566
				c-0.144,23.569,18.745,32.38,31.322,41.802c12.195,9.138,20.874,21.638,22.234,26.959c1.165-5.214,10.832-18.067,22.121-27.215
				c12.344-10.001,31.466-18.233,31.322-41.802C1430.428,455.206,1390.376,448.416,1377.164,483.916z"/>
		</g>
	</g>
	<g id="Shape_1_copy_30">
		<g>
			<path d="M1377.164,699.042c-13.85-36.975-53.217-28.348-53.476,14.566c-0.144,23.569,18.745,32.38,31.322,41.802
				c12.195,9.138,20.874,21.638,22.234,26.959c1.165-5.213,10.832-18.067,22.121-27.215c12.344-10.001,31.466-18.232,31.322-41.802
				C1430.428,670.332,1390.376,663.542,1377.164,699.042z"/>
		</g>
	</g>
	<g id="Shape_1_copy_20">
		<g>
			<path d="M1269.601,376.354c-13.85-36.975-53.216-28.348-53.476,14.566c-0.144,23.569,18.746,32.379,31.322,41.801
				c12.195,9.139,20.875,21.639,22.235,26.96c1.164-5.214,10.831-18.067,22.12-27.215c12.344-10.002,31.467-18.233,31.322-41.802
				C1322.865,347.643,1282.813,340.854,1269.601,376.354z"/>
		</g>
	</g>
	<g id="Shape_1_copy_21">
		<g>
			<path fill-rule="evenodd" clip-rule="evenodd" d="M1162.038,268.79c-13.85-36.975-53.217-28.348-53.476,14.566
				c-0.143,23.569,18.746,32.38,31.323,41.802c12.195,9.138,20.875,21.638,22.234,26.959c1.165-5.214,10.832-18.067,22.121-27.215
				c12.344-10.002,31.466-18.232,31.322-41.802C1215.302,240.08,1175.25,233.29,1162.038,268.79z"/>
		</g>
	</g>
	<g id="Shape_1_copy_13">
		<g>
			<path d="M1162.038,699.042c-13.85-36.975-53.217-28.348-53.476,14.566c-0.143,23.569,18.746,32.38,31.323,41.802
				c12.195,9.138,20.875,21.638,22.234,26.959c1.165-5.213,10.832-18.067,22.121-27.215c12.344-10.001,31.466-18.232,31.322-41.802
				C1215.302,670.332,1175.25,663.542,1162.038,699.042z"/>
		</g>
	</g>
</g>
</svg>
