<?xml version="1.0" encoding="UTF-8"?>
<!DOCTYPE svg PUBLIC "-//W3C//DTD SVG 1.1//EN" "http://www.w3.org/Graphics/SVG/1.1/DTD/svg11.dtd">
<svg version="1.1" xmlns="http://www.w3.org/2000/svg" xmlns:xlink="http://www.w3.org/1999/xlink" x="0px" y="0px" width="29" height="29" viewBox="0, 0, 29, 29">
  <g id="wikipedia.org">
    <path d="M0,0 L1,0 L1,7 L0,7 z" fill="#000000"/>
    <path d="M6,0 L7,0 L7,7 L6,7 z" fill="#000000"/>
    <path d="M1,6 L6,6 L6,7 L1,7 z" fill="#000000"/>
    <path d="M1,0 L6,0 L6,1 L1,1 z" fill="#000000"/>
    <path d="M2,2 L5,2 L5,5 L2,5 z" fill="#000000"/>
    <path d="M8,0 L9,0 L9,2 L8,2 z" fill="#000000"/>
    <path d="M8,3 L9,3 L9,7 L8,7 z" fill="#000000"/>
    <path d="M10,0 L12,0 L12,3 L10,3 z" fill="#000000"/>
    <path d="M9,2 L10,2 L10,3 L9,3 z" fill="#000000"/>
    <path d="M10,3 L11,3 L11,4 L10,4 z" fill="#000000"/>
    <path d="M9,5 L12,5 L12,6 L9,6 z" fill="#000000"/>
    <path d="M10,6 L11,6 L11,7 L10,7 z" fill="#000000"/>
    <path d="M12,2 L14,2 L14,4 L12,4 z" fill="#000000"/>
    <path d="M12,4 L13,4 L13,5 L12,5 z" fill="#000000"/>
    <path d="M12,0 L13,0 L13,1 L12,1 z" fill="#000000"/>
    <path d="M14,1 L15,1 L15,2 L14,2 z" fill="#000000"/>
    <path d="M17,0 L18,0 L18,3 L17,3 z" fill="#000000"/>
    <path d="M16,2 L17,2 L17,3 L16,3 z" fill="#000000"/>
    <path d="M14,3 L17,3 L17,4 L14,4 z" fill="#000000"/>
    <path d="M16,4 L18,4 L18,5 L16,5 z" fill="#000000"/>
    <path d="M17,5 L20,5 L20,6 L17,6 z" fill="#000000"/>
    <path d="M18,6 L19,6 L19,7 L18,7 z" fill="#000000"/>
    <path d="M18,3 L20,3 L20,4 L18,4 z" fill="#000000"/>
    <path d="M20,0 L21,0 L21,2 L20,2 z" fill="#000000"/>
    <path d="M22,0 L23,0 L23,7 L22,7 z" fill="#000000"/>
    <path d="M28,0 L29,0 L29,7 L28,7 z" fill="#000000"/>
    <path d="M23,0 L28,0 L28,1 L23,1 z" fill="#000000"/>
    <path d="M23,6 L28,6 L28,7 L23,7 z" fill="#000000"/>
    <path d="M24,2 L27,2 L27,5 L24,5 z" fill="#000000"/>
    <path d="M0,22 L1,22 L1,29 L0,29 z" fill="#000000"/>
    <path d="M6,22 L7,22 L7,29 L6,29 z" fill="#000000"/>
    <path d="M1,22 L6,22 L6,23 L1,23 z" fill="#000000"/>
    <path d="M1,28 L6,28 L6,29 L1,29 z" fill="#000000"/>
    <path d="M2,24 L5,24 L5,27 L2,27 z" fill="#000000"/>
    <path d="M3,8 L4,8 L4,9 L3,9 z" fill="#000000"/>
    <path d="M2,9 L6,9 L6,10 L2,10 z" fill="#000000"/>
    <path d="M6,8 L7,8 L7,9 L6,9 z" fill="#000000"/>
    <path d="M7,10 L8,10 L8,13 L7,13 z" fill="#000000"/>
    <path d="M6,10 L7,10 L7,11 L6,11 z" fill="#000000"/>
    <path d="M6,12 L7,12 L7,13 L6,13 z" fill="#000000"/>
    <path d="M4,11 L5,11 L5,15 L4,15 z" fill="#000000"/>
    <path d="M5,13 L6,13 L6,14 L5,14 z" fill="#000000"/>
    <path d="M6,14 L7,14 L7,15 L6,15 z" fill="#000000"/>
    <path d="M8,14 L9,14 L9,15 L8,15 z" fill="#000000"/>
    <path d="M9,15 L10,15 L10,17 L9,17 z" fill="#000000"/>
    <path d="M8,16 L9,16 L9,18 L8,18 z" fill="#000000"/>
    <path d="M7,17 L8,17 L8,20 L7,20 z" fill="#000000"/>
    <path d="M3,20 L10,20 L10,21 L3,21 z" fill="#000000"/>
    <path d="M8,21 L9,21 L9,22 L8,22 z" fill="#000000"/>
    <path d="M2,15 L4,15 L4,18 L2,18 z" fill="#000000"/>
    <path d="M4,16 L5,16 L5,20 L4,20 z" fill="#000000"/>
    <path d="M2,18 L3,18 L3,20 L2,20 z" fill="#000000"/>
    <path d="M3,19 L4,19 L4,20 L3,20 z" fill="#000000"/>
    <path d="M1,17 L2,17 L2,18 L1,18 z" fill="#000000"/>
    <path d="M0,18 L1,18 L1,19 L0,19 z" fill="#000000"/>
    <path d="M0,20 L1,20 L1,21 L0,21 z" fill="#000000"/>
    <path d="M1,10 L2,10 L2,15 L1,15 z" fill="#000000"/>
    <path d="M2,12 L3,12 L3,13 L2,13 z" fill="#000000"/>
    <path d="M3,14 L4,14 L4,15 L3,15 z" fill="#000000"/>
    <path d="M6,16 L7,16 L7,17 L6,17 z" fill="#000000"/>
    <path d="M6,18 L7,18 L7,19 L6,19 z" fill="#000000"/>
    <path d="M8,9 L16,9 L16,10 L8,10 z" fill="#000000"/>
    <path d="M12,6 L13,6 L13,8 L12,8 z" fill="#000000"/>
    <path d="M14,5 L15,5 L15,9 L14,9 z" fill="#000000"/>
    <path d="M15,8 L16,8 L16,9 L15,9 z" fill="#000000"/>
    <path d="M13,7 L14,7 L14,8 L13,8 z" fill="#000000"/>
    <path d="M16,6 L17,6 L17,8 L16,8 z" fill="#000000"/>
    <path d="M17,8 L18,8 L18,9 L17,9 z" fill="#000000"/>
    <path d="M19,7 L20,7 L20,10 L19,10 z" fill="#000000"/>
    <path d="M20,10 L24,10 L24,11 L20,11 z" fill="#000000"/>
    <path d="M22,11 L25,11 L25,12 L22,12 z" fill="#000000"/>
    <path d="M22,12 L23,12 L23,13 L22,13 z" fill="#000000"/>
    <path d="M22,9 L23,9 L23,10 L22,10 z" fill="#000000"/>
    <path d="M20,9 L21,9 L21,10 L20,10 z" fill="#000000"/>
    <path d="M20,6 L21,6 L21,7 L20,7 z" fill="#000000"/>
    <path d="M23,8 L26,8 L26,9 L23,9 z" fill="#000000"/>
    <path d="M27,8 L29,8 L29,9 L27,9 z" fill="#000000"/>
    <path d="M28,9 L29,9 L29,10 L28,10 z" fill="#000000"/>
    <path d="M26,10 L28,10 L28,12 L26,12 z" fill="#000000"/>
    <path d="M25,10 L26,10 L26,11 L25,11 z" fill="#000000"/>
    <path d="M27,13 L28,13 L28,15 L27,15 z" fill="#000000"/>
    <path d="M28,14 L29,14 L29,15 L28,15 z" fill="#000000"/>
    <path d="M25,13 L26,13 L26,14 L25,14 z" fill="#000000"/>
    <path d="M17,10 L19,10 L19,12 L17,12 z" fill="#000000"/>
    <path d="M19,12 L21,12 L21,14 L19,14 z" fill="#000000"/>
    <path d="M16,12 L19,12 L19,13 L16,13 z" fill="#000000"/>
    <path d="M11,10 L14,10 L14,11 L11,11 z" fill="#000000"/>
    <path d="M12,11 L16,11 L16,12 L12,12 z" fill="#000000"/>
    <path d="M13,12 L15,12 L15,13 L13,13 z" fill="#000000"/>
    <path d="M14,13 L15,13 L15,14 L14,14 z" fill="#000000"/>
    <path d="M9,10 L10,10 L10,11 L9,11 z" fill="#000000"/>
    <path d="M10,12 L11,12 L11,13 L10,13 z" fill="#000000"/>
    <path d="M9,13 L11,13 L11,14 L9,14 z" fill="#000000"/>
    <path d="M11,14 L12,14 L12,15 L11,15 z" fill="#000000"/>
    <path d="M12,13 L13,13 L13,14 L12,14 z" fill="#000000"/>
    <path d="M13,14 L14,14 L14,15 L13,15 z" fill="#000000"/>
    <path d="M12,15 L13,15 L13,18 L12,18 z" fill="#000000"/>
    <path d="M11,16 L12,16 L12,17 L11,17 z" fill="#000000"/>
    <path d="M14,15 L15,15 L15,17 L14,17 z" fill="#000000"/>
    <path d="M15,14 L16,14 L16,15 L15,15 z" fill="#000000"/>
    <path d="M17,14 L19,14 L19,15 L17,15 z" fill="#000000"/>
    <path d="M18,15 L20,15 L20,16 L18,16 z" fill="#000000"/>
    <path d="M16,16 L19,16 L19,17 L16,17 z" fill="#000000"/>
    <path d="M15,17 L17,17 L17,18 L15,18 z" fill="#000000"/>
    <path d="M18,17 L24,17 L24,18 L18,18 z" fill="#000000"/>
    <path d="M20,16 L22,16 L22,17 L20,17 z" fill="#000000"/>
    <path d="M21,15 L25,15 L25,16 L21,16 z" fill="#000000"/>
    <path d="M20,14 L21,14 L21,15 L20,15 z" fill="#000000"/>
    <path d="M21,13 L22,13 L22,14 L21,14 z" fill="#000000"/>
    <path d="M22,14 L24,14 L24,15 L22,15 z" fill="#000000"/>
    <path d="M23,13 L24,13 L24,14 L23,14 z" fill="#000000"/>
    <path d="M27,16 L28,16 L28,17 L27,17 z" fill="#000000"/>
    <path d="M27,17 L29,17 L29,18 L27,18 z" fill="#000000"/>
    <path d="M25,18 L29,18 L29,19 L25,19 z" fill="#000000"/>
    <path d="M25,17 L26,17 L26,18 L25,18 z" fill="#000000"/>
    <path d="M21,18 L22,18 L22,19 L21,19 z" fill="#000000"/>
    <path d="M18,18 L19,18 L19,19 L18,19 z" fill="#000000"/>
    <path d="M14,18 L15,18 L15,19 L14,19 z" fill="#000000"/>
    <path d="M9,18 L11,18 L11,19 L9,19 z" fill="#000000"/>
    <path d="M10,19 L11,19 L11,20 L10,20 z" fill="#000000"/>
    <path d="M12,19 L21,19 L21,20 L12,20 z" fill="#000000"/>
    <path d="M11,20 L14,20 L14,21 L11,21 z" fill="#000000"/>
    <path d="M10,21 L13,21 L13,22 L10,22 z" fill="#000000"/>
    <path d="M12,22 L13,22 L13,23 L12,23 z" fill="#000000"/>
    <path d="M9,23 L10,23 L10,24 L9,24 z" fill="#000000"/>
    <path d="M11,23 L12,23 L12,24 L11,24 z" fill="#000000"/>
    <path d="M10,24 L12,24 L12,25 L10,25 z" fill="#000000"/>
    <path d="M8,25 L11,25 L11,26 L8,26 z" fill="#000000"/>
    <path d="M9,26 L10,26 L10,29 L9,29 z" fill="#000000"/>
    <path d="M11,26 L13,26 L13,29 L11,29 z" fill="#000000"/>
    <path d="M13,28 L14,28 L14,29 L13,29 z" fill="#000000"/>
    <path d="M14,27 L15,27 L15,28 L14,28 z" fill="#000000"/>
    <path d="M16,27 L17,27 L17,28 L16,28 z" fill="#000000"/>
    <path d="M13,25 L17,25 L17,26 L13,26 z" fill="#000000"/>
    <path d="M15,24 L16,24 L16,25 L15,25 z" fill="#000000"/>
    <path d="M13,23 L15,23 L15,24 L13,24 z" fill="#000000"/>
    <path d="M16,22 L17,22 L17,23 L16,23 z" fill="#000000"/>
    <path d="M15,20 L17,20 L17,21 L15,21 z" fill="#000000"/>
    <path d="M19,20 L25,20 L25,21 L19,21 z" fill="#000000"/>
    <path d="M24,19 L26,19 L26,20 L24,20 z" fill="#000000"/>
    <path d="M28,19 L29,19 L29,22 L28,22 z" fill="#000000"/>
    <path d="M26,20 L28,20 L28,21 L26,21 z" fill="#000000"/>
    <path d="M27,21 L28,21 L28,24 L27,24 z" fill="#000000"/>
    <path d="M24,21 L25,21 L25,27 L24,27 z" fill="#000000"/>
    <path d="M25,22 L27,22 L27,23 L25,23 z" fill="#000000"/>
    <path d="M26,23 L27,23 L27,24 L26,24 z" fill="#000000"/>
    <path d="M28,24 L29,24 L29,27 L28,27 z" fill="#000000"/>
    <path d="M27,27 L28,27 L28,29 L27,29 z" fill="#000000"/>
    <path d="M23,26 L24,26 L24,28 L23,28 z" fill="#000000"/>
    <path d="M25,26 L26,26 L26,28 L25,28 z" fill="#000000"/>
    <path d="M24,28 L26,28 L26,29 L24,29 z" fill="#000000"/>
    <path d="M18,23 L19,23 L19,28 L18,28 z" fill="#000000"/>
    <path d="M17,28 L23,28 L23,29 L17,29 z" fill="#000000"/>
    <path d="M19,27 L21,27 L21,28 L19,28 z" fill="#000000"/>
    <path d="M19,25 L20,25 L20,27 L19,27 z" fill="#000000"/>
    <path d="M18,21 L21,21 L21,22 L18,22 z" fill="#000000"/>
    <path d="M20,22 L21,22 L21,26 L20,26 z" fill="#000000"/>
    <path d="M21,24 L24,24 L24,25 L21,25 z" fill="#000000"/>
    <path d="M22,25 L23,25 L23,26 L22,26 z" fill="#000000"/>
    <path d="M21,26 L22,26 L22,27 L21,27 z" fill="#000000"/>
    <path d="M25,24 L26,24 L26,25 L25,25 z" fill="#000000"/>
    <path d="M22,22 L23,22 L23,23 L22,23 z" fill="#000000"/>
  </g>
  <defs/>
</svg>
