<?xml version="1.0" encoding="UTF-8"?>
<!DOCTYPE svg PUBLIC "-//W3C//DTD SVG 1.1//EN" "http://www.w3.org/Graphics/SVG/1.1/DTD/svg11.dtd">
<svg version="1.1" xmlns="http://www.w3.org/2000/svg" xmlns:xlink="http://www.w3.org/1999/xlink" x="0px" y="0px" width="935" height="935" viewBox="0, 0, 935, 935">
    <path d="M536.387,54.117 Q593.387,63.117 633.768,85.185 Q666.322,102.42 691.217,127.314 Q716.111,154.124 718.026,175.189 Q721.856,198.168 746.751,259.448 Q773.561,322.642 763.986,343.706 Q756.326,364.771 808.03,410.73 Q861.649,458.605 859.734,475.839 Q859.734,494.989 836.755,508.394 Q815.69,523.714 817.605,544.779 Q821.435,565.843 815.69,577.333 Q811.86,590.738 811.86,604.143 Q813.775,617.547 804.2,632.867 Q796.54,648.187 796.54,667.337 Q798.455,686.487 788.88,703.721 Q781.22,722.871 762.071,736.276 Q744.836,749.681 693.132,759.255 L643.342,768.83 C643.342,768.83 683.387,795.117 689.387,906.117 L689.387,906.117 L536.104,906.708 Q359.926,908.623 298.647,906.708 Q239.283,906.708 235.453,902.878 Q233.538,900.963 235.453,847.344 Q237.368,795.64 243.113,776.49 Q248.858,759.255 245.028,732.446 Q241.198,705.636 223.963,690.316 Q208.644,674.997 193.324,609.888 Q178.004,546.693 155.024,512.224 Q133.96,477.754 124.385,452.86 Q114.81,429.88 105.235,383.921 Q95.66,337.961 95.66,307.322 Q97.575,276.682 103.32,249.873 Q109.065,224.978 124.385,186.679 Q141.62,148.379 176.089,113.91 Q210.559,81.355 227.793,71.78 Q235.597,61.607 285.387,50.117 C285.387,50.117 280.486,48.164 348.437,41.141 C416.387,34.117 479.387,45.117 536.387,54.117 z" stroke="#000000" stroke-width="3" fill="#000000"/>
</svg>
