<?xml version="1.0" encoding="UTF-8"?>
<!DOCTYPE svg PUBLIC "-//W3C//DTD SVG 1.1//EN" "http://www.w3.org/Graphics/SVG/1.1/DTD/svg11.dtd">
<svg version="1.1" xmlns="http://www.w3.org/2000/svg" xmlns:xlink="http://www.w3.org/1999/xlink" x="0px" y="0px" width="400" height="300" viewBox="0, 0, 400, 300">
  <g id="Layer 3" display="none">
    <g>
      <path d="M326.557,102.083 C399.203,132.417 399.203,181.596 326.557,211.93 C253.912,242.263 136.13,242.263 63.484,211.93 C-9.161,181.596 -9.161,132.417 63.484,102.083 C136.13,71.75 253.912,71.75 326.557,102.083" fill="#FFFFFF"/>
      <path d="M345.419,111.277 C398.538,141.657 392.251,184.499 326.557,211.93 C253.912,242.263 136.13,242.263 63.484,211.93 C-9.161,181.596 -9.161,132.417 63.484,102.083 C131.621,73.633 239.464,71.867 312.529,96.785" fill-opacity="0" stroke="#000000" stroke-width="6"/>
      <path d="M348.048,105.884 L331.036,104.266 L342.79,116.67 z" fill-opacity="1" stroke="#000000" stroke-width="6" stroke-opacity="1"/>
      <path d="M312.529,96.785 L323.755,101.025 M320.222,110.38 L327.289,91.67" fill-opacity="0" stroke="#000000" stroke-width="6" stroke-opacity="1"/>
    </g>
  </g>
  <g id="Layer 4" display="none">
    <path d="M327.031,96.936 C399.156,129.74 399.156,182.926 327.031,215.73 C254.906,248.534 137.969,248.534 65.844,215.73 C-6.281,182.926 -6.281,129.74 65.844,96.936 C137.969,64.132 254.906,64.132 327.031,96.936" stroke="#000000" stroke-width="6" fill="#000000" fill-opacity="0"/>
    <path d="M59.667,70.333 C80.967,23.505 168.516,37.714 208.042,41.667" stroke="#000000" stroke-width="1" fill="#000000" fill-opacity="0"/>
    <path d="M300.667,44 C288.966,39.021 259.562,43.878 257.042,59 C251.51,92.192 378.647,81.05 312.042,49.333 C304.44,45.714 296.347,42.863 288.042,41.333 C274.88,38.909 261.398,38 248.042,38" stroke="#000000" stroke-width="1" fill="#000000" fill-opacity="0"/>
    <path d="M236.667,58.667 C232.364,56.537 227.788,56 223.042,56 C210.872,56 196.762,69.022 217.042,71 C241.741,73.41 274.896,60.067 241.375,48" stroke="#000000" stroke-width="1" fill="#000000" fill-opacity="0"/>
    <path d="M302.333,253.333 C239.861,236.863 263.26,293.786 316.375,288.667 C379.038,282.627 332.047,250.348 301.042,242.667 C254.314,231.09 248.522,232.772 200.375,229.333" stroke="#000000" stroke-width="1" fill="#000000" fill-opacity="0"/>
    <path d="M157,258.333 C167.871,246.785 188.582,252.267 201.042,257.667 C246.24,277.253 180.528,287.805 164.042,284 C105.937,270.591 112.96,238.012 173.042,251.667" stroke="#000000" stroke-width="1" fill="#000000" fill-opacity="0"/>
  </g>
  <g id="Layer 7" display="none">
    <path d="M224,76.667 C215.096,76.74 206.034,76.729 197.375,74.333 C126.821,54.818 204.877,41.341 247.042,51.667 C271.583,57.677 274.616,86.406 237.042,87.333 C220.631,87.739 204.119,87.333 187.708,87.333" stroke="#000000" stroke-width="1" fill="#000000" fill-opacity="0"/>
    <path d="M304.333,69 C270.287,53.581 339.159,36.53 342.375,63.333 C343.041,68.882 337.641,72.905 333.042,74.667 C327.243,76.887 316.572,78.412 310.708,79.333 C298.456,81.259 299.736,80.961 287.042,82.333" stroke="#000000" stroke-width="1" fill="#000000" fill-opacity="0"/>
    <path d="M267.667,231 C262.849,237.127 252.247,239.105 244.708,239.333 C230.217,239.772 204.225,219.212 229.375,211.667 C253.254,204.503 281.72,210.15 305.708,214 C309.053,214.537 336.574,220.851 323.042,231 C312.361,239.01 289.412,237.36 276.708,240.333" stroke="#000000" stroke-width="1" fill="#000000" fill-opacity="0"/>
    <path d="M159,243.667 C145.717,246.293 131.503,242.962 118.708,239.333 C64.039,223.83 114.704,209.599 141.708,212.333 C169.963,215.195 223.48,252.872 151.375,256.667" stroke="#000000" stroke-width="1" fill="#000000" fill-opacity="0"/>
    <path d="M224.667,278 C214.093,279.584 203.959,273.973 195.042,269 C151.622,244.785 211.291,259.473 224.042,262 C258.746,268.878 324.708,283.406 242.042,288.667 C235.823,289.062 229.601,289.42 223.375,289.667 C205.707,290.059 213.372,289.792 200.375,290.333" stroke="#000000" stroke-width="1" fill="#000000" fill-opacity="0"/>
    <path d="M96,93 C84.475,94.42 72.571,88.658 62.042,84.333 C5.05,60.926 95.123,60.704 109.042,64 C171.3,78.745 134.108,98.93 99.375,103.667 C80.425,106.251 61.429,107.726 42.708,111.667" stroke="#000000" stroke-width="1" fill="#000000" fill-opacity="0"/>
    <path d="M117.333,15 C132.304,9.503 172.731,19.734 171.042,40 C169.355,60.242 126.01,51.978 116.042,45" stroke="#000000" stroke-width="1" fill="#000000" fill-opacity="0"/>
    <path d="M115.333,43.667 C112.493,39.798 113.868,41.986 111.375,37" stroke="#000000" stroke-width="1" fill="#000000" fill-opacity="0"/>
  </g>
  <g id="Layer 8" display="none">
    <path d="M244.667,68 C233.862,68.768 222.587,64.724 212.708,60.667 C191.238,51.849 182.099,34.772 212.375,34.333 C235.472,33.999 269.188,35.026 288.708,49.667 C309.837,65.513 291.88,82.38 273.375,86 C255.851,89.429 237.74,88.453 220.042,87.667" stroke="#000000" stroke-width="1" fill="#000000" fill-opacity="0"/>
    <path d="M219.04,226.105 C187.422,261.347 140.49,258.237 94.549,248.314 C-170.982,190.958 268.101,-63.051 351.456,114.576 C415.712,251.506 228.498,356.285 105.458,179.576" stroke="#000000" stroke-width="1" fill="#000000" fill-opacity="0"/>
  </g>
  <g id="Layer 9" display="none">
    <path d="M130.113,48.26 L130.957,46.428 L132.787,43.997 L134.813,42.454 L137.507,41.062 L141.007,39.823 L145.132,38.879 L149.69,38.271 L154.532,37.982 L162.078,38.059 L172.051,38.857 L179.023,39.744 L183.259,40.375 L187.058,40.976 L190.319,41.493 L191.724,41.704 L191.721,41.703 L195.967,42.352 L204.045,43.783 L211.599,45.387 L218.636,47.15 L225.156,49.059 L231.159,51.1 L236.642,53.259 L241.605,55.522 L246.048,57.875 L249.969,60.303 L253.367,62.791 L256.242,65.323 L258.593,67.882 L260.419,70.45 L261.721,73.003 L262.505,75.516 L262.779,77.954 L262.568,80.271 L261.916,82.415 L260.887,84.354 L259.517,86.128 L257.745,87.858 L255.444,89.641 L252.531,91.476 L248.989,93.309 L244.836,95.083 L240.09,96.754 L234.77,98.292 L228.887,99.67 L222.45,100.871 L215.463,101.876 L207.93,102.669 L203.975,102.98 L204.018,102.977 L197.32,103.331 L183.853,103.385 L170.262,102.656 L156.6,101.241 L142.95,99.238 L129.391,96.745 L116.002,93.859 L102.862,90.68 L96.415,89.012 L96.432,89.016 L93.806,88.287 L89.182,86.779 L85.35,85.211 L82.28,83.595 L79.956,81.951 L78.36,80.306 L77.473,78.705 L77.247,77.23 L77.562,76.028 L78.172,75.206 L79.02,74.485 L80.469,73.462 L82.707,72.168 L85.683,70.759 L89.312,69.337 L93.532,67.955 L95.818,67.298 L95.818,67.298 C97.038,66.946 98.413,65.638 98.889,64.377 C99.365,63.115 98.762,62.377 97.541,62.728 L95.055,63.447 L90.492,64.954 L86.385,66.585 L82.713,68.369 L79.427,70.385 L76.513,72.766 L74.198,75.518 L72.882,78.216 L72.546,80.556 L72.982,82.622 L74.107,84.538 L75.912,86.361 L78.414,88.114 L81.633,89.799 L85.593,91.414 L90.299,92.946 L92.927,93.676 L92.927,93.676 C92.933,93.678 92.938,93.679 92.944,93.681 L92.944,93.681 L99.423,95.357 L112.615,98.548 L126.07,101.447 L139.713,103.954 L153.467,105.97 L167.26,107.395 L181.018,108.128 L194.641,108.07 L201.341,107.716 L201.341,107.716 C201.356,107.715 201.37,107.714 201.385,107.713 L201.385,107.713 L205.435,107.393 L213.113,106.582 L220.272,105.549 L226.918,104.304 L233.055,102.859 L238.695,101.219 L243.849,99.387 L248.536,97.358 L252.778,95.118 L256.593,92.634 L259.964,89.881 L262.81,86.884 L265.005,83.766 L266.49,80.678 L267.301,77.685 L267.504,74.781 L267.144,71.943 L266.247,69.151 L264.823,66.399 L262.878,63.685 L260.415,61.015 L257.434,58.397 L253.935,55.841 L249.919,53.359 L245.386,50.962 L240.337,48.662 L234.771,46.473 L228.689,44.407 L222.092,42.477 L214.979,40.696 L207.351,39.078 L199.218,37.638 L194.971,36.989 L194.971,36.989 C194.97,36.989 194.97,36.989 194.969,36.989 L194.969,36.989 L193.583,36.781 L190.321,36.264 L186.501,35.66 L182.215,35.022 L175.123,34.122 L164.953,33.316 L157.183,33.245 L152.072,33.56 L147.104,34.245 L142.322,35.389 L137.723,37.141 L133.317,39.751 L129.433,43.327 L126.731,47.24 L125.887,49.074 C125.292,50.364 125.757,51.228 126.924,51.003 C128.091,50.778 129.519,49.55 130.113,48.26 L130.113,48.26" fill="#000000"/>
  </g>
  <g id="Layer 10" display="none">
    <path d="M252.365,41.066 L253.168,40.132 L254.449,39.002 L256.588,37.798 L260.213,36.782 L264.608,36.552 L269.528,37.186 L274.677,38.659 L279.834,40.881 L284.814,43.749 L289.439,47.151 L293.542,50.975 L296.955,55.105 L299.513,59.42 L301.054,63.785 L301.434,68.034 L300.566,71.921 L299.22,74.254 L298.139,75.471 L297.592,75.979 L298.009,75.595 L297.254,76.227 L295.955,76.942 L293.976,77.746 L291.264,78.596 L287.973,79.39 L284.196,80.092 L279.996,80.689 L275.425,81.173 L267.962,81.678 L257.137,81.924 L245.614,81.665 L233.704,80.888 L221.728,79.579 L210.005,77.724 L198.854,75.312 L188.591,72.331 L181.681,69.719 L177.524,67.801 L173.759,65.732 L170.436,63.519 L167.596,61.164 L165.278,58.671 L163.518,56.048 L162.352,53.306 L162.015,51.947 L162.015,51.947 C161.786,51.052 160.554,51.103 159.265,52.06 C157.975,53.018 157.115,54.518 157.345,55.413 L157.777,57.052 L159.09,60.065 L160.999,62.876 L163.458,65.502 L166.427,67.953 L169.866,70.236 L173.736,72.357 L178.009,74.325 L185.062,76.984 L195.465,80.001 L206.742,82.436 L218.581,84.306 L230.671,85.625 L242.701,86.407 L254.361,86.666 L265.335,86.414 L272.932,85.897 L277.641,85.396 L282.019,84.77 L286.042,84.015 L289.693,83.119 L292.986,82.051 L295.996,80.712 L298.593,79.063 L299.35,78.431 L299.35,78.431 C299.494,78.31 299.634,78.182 299.767,78.047 L299.767,78.047 L301.141,76.609 L303.268,73.804 L305.228,69.824 L306.164,64.919 L305.672,60.147 L303.989,55.479 L301.293,50.967 L297.746,46.695 L293.508,42.759 L288.734,39.261 L283.58,36.306 L278.193,34.002 L272.71,32.462 L267.236,31.816 L261.797,32.254 L256.472,34.074 L252.672,36.55 L250.44,38.665 L249.635,39.6 C248.564,40.846 248.307,42.184 249.06,42.589 C249.814,42.994 251.293,42.312 252.365,41.066 L252.365,41.066" fill="#000000"/>
    <path d="M332.484,85.69 L330.167,84.87 L325.514,84.105 L320.933,84.497 L316.455,86.015 L312.115,88.638 L308.123,92.234 L304.754,96.483 L302.118,101.077 L300.194,105.848 L298.959,110.692 L298.416,115.51 L298.59,120.192 L299.517,124.618 L301.241,128.664 L303.81,132.198 L307.275,135.084 L309.4,136.265 L309.4,136.265 C309.419,136.276 309.439,136.286 309.46,136.295 L309.46,136.295 L311.499,137.213 L315.844,138.918 L322.842,141.103 L332.827,143.316 L343.245,144.729 L353.731,145.336 L363.937,145.134 L371.223,144.445 L375.836,143.724 L380.175,142.792 L384.234,141.64 L387.987,140.253 L391.427,138.599 L394.565,136.611 L397.405,134.174 L399.804,131.211 L401.402,127.946 L402.02,124.712 L401.763,121.546 L400.715,118.347 L398.884,115.036 L396.244,111.57 L392.753,107.926 L388.367,104.093 L383.04,100.064 L376.727,95.833 L369.382,91.397 L365.301,89.099 L365.301,89.099 C364.559,88.681 363.082,89.348 362.003,90.589 C360.923,91.83 360.65,93.176 361.392,93.594 C361.392,93.594 361.392,93.594 361.392,93.594 L365.431,95.868 L372.713,100.263 L378.955,104.443 L384.199,108.405 L388.489,112.147 L391.87,115.662 L394.385,118.938 L396.086,121.954 L397.033,124.667 L397.323,127.001 L397.133,128.853 L396.655,130.263 L395.8,131.566 L394.298,132.983 L392.097,134.441 L389.287,135.824 L385.971,137.067 L382.232,138.139 L378.133,139.025 L373.756,139.717 L366.722,140.391 L356.744,140.597 L346.455,140.009 L336.226,138.63 L326.408,136.461 L319.537,134.321 L315.273,132.649 L313.233,131.731 L313.293,131.761 L311.41,130.744 L308.203,128.13 L305.816,124.917 L304.207,121.236 L303.331,117.226 L303.139,113.027 L303.577,108.789 L304.577,104.671 L306.049,100.842 L307.877,97.465 L309.95,94.641 L312.283,92.329 L315.062,90.478 L318.401,89.225 L322.245,88.816 L326.532,89.488 L328.849,90.31 C328.849,90.31 328.849,90.31 328.849,90.31 C329.691,90.607 331.187,89.815 332.191,88.539 C333.194,87.264 333.326,85.988 332.484,85.69 L332.484,85.69" fill="#000000"/>
    <path d="M313.263,202.412 L310.8,201.187 L305.426,199.267 L299.66,198.068 L293.669,197.549 L287.585,197.651 L281.54,198.318 L275.66,199.497 L270.066,201.139 L267.343,202.145 L267.343,202.145 C267.298,202.161 267.253,202.179 267.208,202.198 L267.208,202.198 L265.25,203.024 L261.45,204.892 L257.937,207.002 L254.758,209.343 L251.918,211.921 L249.46,214.714 L246.7,219.017 L244.567,224.928 L244.093,230.828 L245.082,236.572 L247.363,242.166 L250.832,247.563 L255.407,252.687 L261.014,257.444 L267.582,261.733 L275.039,265.449 L283.318,268.487 L292.347,270.736 L302.059,272.088 L307.184,272.395 L307.184,272.395 C307.204,272.396 307.224,272.397 307.245,272.398 L307.245,272.398 L309.234,272.431 L312.992,272.302 L316.415,271.915 L319.511,271.274 L322.319,270.371 L324.894,269.178 L327.291,267.632 L329.5,265.668 L331.958,262.33 L333.609,257.604 L333.684,252.912 L332.578,248.233 L330.497,243.494 L327.549,238.742 L323.829,234.068 L319.426,229.577 L314.428,225.383 L308.923,221.6 L302.998,218.346 L296.737,215.739 L293.479,214.706 L293.479,214.706 C292.617,214.434 291.119,215.252 290.133,216.533 C289.146,217.814 289.045,219.074 289.906,219.346 C289.906,219.346 289.906,219.346 289.906,219.346 L293.01,220.322 L299.105,222.85 L304.895,226.021 L310.283,229.714 L315.174,233.81 L319.474,238.184 L323.089,242.71 L325.929,247.257 L327.902,251.675 L328.94,255.775 L329.064,259.245 L328.487,261.825 L327.672,263.262 L326.892,264.09 L325.63,264.987 L323.852,265.86 L321.59,266.615 L318.877,267.194 L315.729,267.561 L312.131,267.688 L310.141,267.655 L310.201,267.657 L305.277,267.369 L295.799,266.062 L286.972,263.874 L278.873,260.914 L271.579,257.291 L265.165,253.117 L259.707,248.505 L255.277,243.573 L251.949,238.445 L249.786,233.261 L248.829,228.194 L249.053,223.469 L250.409,219.157 L252.182,216.189 L253.694,214.374 L255.604,212.569 L257.972,210.776 L260.822,209.03 L264.219,207.347 L266.178,206.52 L266.043,206.574 L268.377,205.698 L273.545,204.162 L279.067,203.04 L284.794,202.394 L290.582,202.283 L296.292,202.761 L301.788,203.884 L306.966,205.721 L309.43,206.947 C309.43,206.947 309.43,206.947 309.43,206.947 C310.201,207.331 311.685,206.627 312.743,205.375 C313.802,204.122 314.034,202.796 313.263,202.412 L313.263,202.412" fill="#000000"/>
    <path d="M198.673,224.284 L198.239,222.466 L196.71,219.001 L194.412,215.973 L191.469,213.399 L187.983,211.235 L184.053,209.441 L179.771,207.978 L175.229,206.815 L168.144,205.562 L158.628,204.64 L149.701,204.362 L143.833,204.435 L140.489,204.565 L139.018,204.644 L139.018,204.644 C138.998,204.645 138.979,204.646 138.959,204.648 L138.959,204.648 L135.204,204.975 L127.778,206.266 L120.663,208.354 L113.983,211.183 L107.808,214.712 L102.218,218.915 L97.335,223.751 L93.351,229.114 L90.482,234.807 L88.863,240.628 L88.54,246.459 L89.539,252.246 L91.907,257.952 L95.708,263.532 L99.558,267.615 L102.618,270.269 L106.073,272.849 L109.943,275.357 L112.048,276.588 L112.048,276.588 C112.059,276.594 112.072,276.601 112.084,276.608 L112.084,276.608 L114.498,277.861 L120.471,280.369 L127.656,282.75 L135.761,284.902 L144.513,286.727 L153.638,288.128 L162.863,289.004 L171.919,289.255 L180.543,288.776 L186.61,287.865 L190.433,286.955 L194.009,285.783 L197.369,284.304 L200.522,282.448 L203.467,280.116 L206.094,277.242 L208.142,273.954 L209.438,270.483 L210.012,266.903 L209.933,263.15 L209.226,259.152 L207.883,254.854 L205.877,250.22 L204.609,247.753 L204.609,247.753 C204.216,246.989 202.884,247.233 201.635,248.297 C200.385,249.361 199.691,250.843 200.084,251.606 C200.084,251.606 200.084,251.606 200.084,251.606 L201.304,253.971 L203.242,258.424 L204.523,262.464 L205.191,266.079 L205.307,269.241 L204.966,271.9 L204.308,274.019 L203.433,275.697 L202.237,277.189 L200.528,278.65 L198.269,280.038 L195.526,281.278 L192.38,282.326 L188.93,283.163 L183.21,284.037 L174.847,284.513 L165.974,284.273 L156.89,283.414 L147.885,282.035 L139.245,280.236 L131.255,278.119 L124.203,275.787 L118.357,273.339 L115.942,272.085 L115.978,272.105 L113.936,270.913 L110.151,268.464 L106.782,265.953 L103.83,263.403 L100.13,259.506 L96.488,254.22 L94.244,248.938 L93.28,243.762 L93.46,238.804 L94.63,234.159 L96.653,229.857 L99.482,225.846 L103.151,222.075 L107.67,218.588 L112.979,215.494 L118.976,212.913 L125.551,210.953 L132.643,209.706 L136.4,209.378 L136.342,209.382 L137.765,209.306 L141.025,209.178 L146.763,209.104 L155.513,209.371 L164.839,210.267 L171.763,211.485 L176.157,212.605 L180.273,214.001 L184.019,215.697 L187.303,217.714 L190.039,220.067 L192.144,222.769 L193.56,225.897 L193.994,227.716 C193.994,227.716 193.994,227.716 193.994,227.716 C194.21,228.62 195.432,228.585 196.724,227.637 C198.016,226.689 198.889,225.188 198.673,224.284 L198.673,224.284" fill="#000000"/>
  </g>
  <g id="Layer 11" display="none">
    <path d="M157.459,287.618 L163.209,287.243 L174.996,285.881 L187.023,283.749 L199.202,280.9 L211.474,277.387 L223.779,273.26 L236.058,268.572 L248.253,263.374 L260.305,257.717 L272.155,251.652 L283.746,245.23 L295.021,238.501 L305.92,231.516 L316.386,224.325 L326.363,216.975 L335.793,209.517 L340.325,205.728 L340.325,205.728 C340.35,205.707 340.375,205.686 340.4,205.665 L340.4,205.665 L343.872,202.661 L350.552,196.62 L356.79,190.613 L362.558,184.671 L367.862,178.795 L372.707,172.989 L377.097,167.257 L381.035,161.603 L384.524,156.034 L387.566,150.558 L390.167,145.18 L392.33,139.909 L394.061,134.751 L395.368,129.712 L396.257,124.798 L396.738,120.012 L396.819,115.359 L396.51,110.839 L395.819,106.456 L394.755,102.211 L393.328,98.105 L391.544,94.14 L389.412,90.318 L386.94,86.64 L384.135,83.108 L381.005,79.724 L377.557,76.49 L373.798,73.409 L367.601,69.084 L358.312,63.867 L347.895,59.296 L336.414,55.398 L323.923,52.195 L310.478,49.709 L296.131,47.961 L280.938,46.974 L264.952,46.771 L248.229,47.373 L230.821,48.805 L212.783,51.089 L194.17,54.248 L175.034,58.306 L155.432,63.286 L135.415,69.212 L115.039,76.106 L94.358,83.994 L83.889,88.329 L83.889,88.329 C83.873,88.336 83.856,88.343 83.839,88.35 L83.839,88.35 L79.735,90.124 L71.839,93.704 L64.404,97.304 L57.441,100.914 L50.939,104.534 L44.887,108.164 L39.276,111.805 L34.095,115.457 L27.161,120.921 L19.344,128.243 L13.076,135.661 L8.426,143.078 L5.43,150.364 L4.053,157.388 L4.186,164.096 L5.708,170.486 L8.516,176.572 L12.525,182.359 L17.662,187.843 L23.857,193.015 L31.043,197.859 L39.156,202.357 L48.131,206.491 L57.902,210.24 L68.406,213.582 L79.577,216.497 L91.349,218.962 L103.66,220.955 L116.444,222.455 L129.635,223.438 L143.17,223.882 L156.984,223.765 L171.012,223.063 L185.19,221.754 L199.455,219.815 L213.742,217.221 L220.901,215.666 L220.901,215.666 C222.083,215.409 223.499,214.16 224.064,212.875 C224.629,211.591 224.13,210.758 222.948,211.014 L215.941,212.539 L201.835,215.104 L187.732,217.025 L173.699,218.324 L159.804,219.022 L146.113,219.14 L132.693,218.702 L119.611,217.729 L106.932,216.245 L94.724,214.27 L83.052,211.829 L71.983,208.944 L61.583,205.637 L51.918,201.934 L43.055,197.857 L35.06,193.43 L27.999,188.681 L21.938,183.635 L16.941,178.323 L13.071,172.78 L10.385,167.046 L8.928,161.173 L8.729,155.217 L9.797,149.225 L12.157,143.185 L15.902,137.012 L21.201,130.621 L28.253,123.959 L34.716,118.847 L39.568,115.417 L44.888,111.959 L50.684,108.476 L56.961,104.977 L63.725,101.467 L70.983,97.95 L78.76,94.423 L82.866,92.648 L82.816,92.67 L93.107,88.404 L113.564,80.598 L133.73,73.77 L153.548,67.899 L172.964,62.963 L191.922,58.939 L210.367,55.804 L228.243,53.537 L245.495,52.115 L262.068,51.514 L277.905,51.712 L292.953,52.685 L307.155,54.411 L320.457,56.865 L332.802,60.025 L344.137,63.866 L354.406,68.363 L363.563,73.498 L369.666,77.751 L373.349,80.767 L376.722,83.925 L379.778,87.222 L382.511,90.655 L384.914,94.22 L386.98,97.913 L388.705,101.73 L390.083,105.667 L391.107,109.72 L391.773,113.883 L392.076,118.154 L392.011,122.529 L391.574,127.004 L390.76,131.577 L389.563,136.246 L387.978,141.01 L385.998,145.871 L383.616,150.828 L380.821,155.885 L377.604,161.041 L373.955,166.299 L369.863,171.658 L365.318,177.119 L360.309,182.679 L354.827,188.336 L348.865,194.086 L342.382,199.953 L338.907,202.958 L338.982,202.895 L334.69,206.488 L325.563,213.715 L315.872,220.861 L305.677,227.872 L295.039,234.696 L284.018,241.278 L272.675,247.568 L261.069,253.513 L249.259,259.062 L237.306,264.162 L225.268,268.764 L213.206,272.815 L201.176,276.265 L189.239,279.064 L177.453,281.161 L165.846,282.506 L160.094,282.882 C159.005,282.953 157.532,284.071 156.804,285.379 C156.077,286.687 156.37,287.689 157.459,287.618 L157.459,287.618" fill="#000000"/>
  </g>
  <g id="Layer 11 Copy" display="none">
    <path d="M146.008,263.703 L151.791,263.396 L163.766,262.563 L176.179,261.424 L188.931,259.959 L201.929,258.15 L215.084,255.977 L228.304,253.421 L241.498,250.462 L254.576,247.08 L267.449,243.254 L280.029,238.962 L292.229,234.182 L303.964,228.887 L315.15,223.05 L325.705,216.636 L335.547,209.608 L340.268,205.775 L340.268,205.775 C340.313,205.739 340.356,205.702 340.4,205.665 L340.4,205.665 L343.872,202.661 L350.552,196.62 L356.79,190.613 L362.558,184.671 L367.862,178.795 L372.707,172.989 L377.097,167.257 L381.035,161.603 L384.524,156.034 L387.566,150.558 L390.167,145.18 L392.33,139.909 L394.061,134.751 L395.368,129.712 L396.257,124.798 L396.738,120.012 L396.819,115.359 L396.51,110.839 L395.819,106.456 L394.755,102.211 L393.328,98.105 L391.544,94.14 L389.412,90.318 L386.94,86.64 L384.135,83.108 L381.005,79.724 L377.557,76.49 L373.798,73.409 L367.601,69.084 L358.312,63.867 L347.895,59.296 L336.414,55.398 L323.923,52.195 L310.478,49.709 L296.131,47.961 L280.938,46.974 L264.952,46.771 L248.229,47.373 L230.821,48.805 L212.783,51.089 L194.17,54.248 L175.034,58.306 L155.432,63.286 L135.415,69.212 L115.039,76.106 L94.358,83.994 L83.889,88.329 L83.889,88.329 C83.872,88.336 83.855,88.344 83.838,88.351 L83.838,88.351 L79.734,90.127 L71.832,93.726 L64.391,97.363 L57.42,101.029 L50.909,104.721 L44.848,108.44 L36.622,114.038 L27.142,121.584 L19.261,129.27 L12.998,137.05 L8.378,144.845 L5.419,152.517 L4.065,159.957 L4.207,167.119 L5.728,174 L8.533,180.605 L12.539,186.931 L17.674,192.969 L23.867,198.702 L31.054,204.11 L39.168,209.17 L48.145,213.859 L57.918,218.152 L68.424,222.023 L79.598,225.447 L91.374,228.397 L103.689,230.847 L116.476,232.769 L129.672,234.138 L143.211,234.927 L157.03,235.107 L171.064,234.652 L185.249,233.535 L199.52,231.727 L213.816,229.201 L220.981,227.653 L220.981,227.653 C222.162,227.398 223.579,226.15 224.146,224.865 C224.713,223.58 224.215,222.746 223.034,223 L216.035,224.516 L201.936,227.012 L187.838,228.802 L173.809,229.911 L159.915,230.364 L146.225,230.188 L132.805,229.409 L119.722,228.055 L107.041,226.151 L94.83,223.724 L83.155,220.802 L72.082,217.413 L61.677,213.582 L52.007,209.339 L43.139,204.711 L35.137,199.728 L28.068,194.419 L21.998,188.815 L16.991,182.951 L13.11,176.863 L10.413,170.595 L8.949,164.199 L8.751,157.733 L9.837,151.248 L12.228,144.752 L15.998,138.189 L21.297,131.475 L28.281,124.584 L37.1,117.526 L44.931,112.184 L50.716,108.628 L56.983,105.07 L63.738,101.514 L70.99,97.966 L78.762,94.424 L82.868,92.648 L82.816,92.67 L93.107,88.404 L113.564,80.598 L133.73,73.77 L153.548,67.899 L172.964,62.963 L191.922,58.939 L210.367,55.804 L228.243,53.537 L245.495,52.115 L262.068,51.514 L277.905,51.712 L292.953,52.685 L307.155,54.411 L320.457,56.865 L332.802,60.025 L344.137,63.866 L354.406,68.363 L363.563,73.498 L369.666,77.751 L373.349,80.767 L376.722,83.925 L379.778,87.222 L382.511,90.655 L384.914,94.22 L386.98,97.913 L388.705,101.73 L390.083,105.667 L391.107,109.72 L391.773,113.883 L392.076,118.154 L392.011,122.529 L391.574,127.004 L390.76,131.577 L389.563,136.246 L387.978,141.01 L385.998,145.871 L383.616,150.828 L380.821,155.885 L377.604,161.041 L373.955,166.299 L369.863,171.658 L365.318,177.119 L360.309,182.679 L354.827,188.336 L348.865,194.086 L342.382,199.953 L338.907,202.958 L339.039,202.848 L334.869,206.26 L325.655,212.872 L315.608,218.998 L304.83,224.636 L293.423,229.793 L281.489,234.476 L269.128,238.697 L256.438,242.473 L243.514,245.818 L230.453,248.749 L217.35,251.284 L204.298,253.441 L191.391,255.239 L178.723,256.695 L166.388,257.828 L154.469,258.657 L148.684,258.964 C147.603,259.022 146.127,260.129 145.388,261.438 C144.649,262.746 144.927,263.76 146.008,263.703 L146.008,263.703" fill="#000000"/>
  </g>
  <g id="Layer 13" display="none">
    <path d="M204.637,158.966 L201.596,159.19 L195.635,159.207 L189.706,158.719 L183.789,157.786 L174.967,155.678 L163.452,151.874 L157.852,149.694 L157.882,149.706 L154.411,148.208 L148.132,144.941 L142.7,141.359 L138.122,137.533 L134.423,133.546 L131.629,129.48 L129.761,125.426 L128.839,121.487 L128.865,117.792 L129.788,114.52 L131.44,111.887 L133.674,109.845 L136.857,107.947 L141.415,106.143 L145.701,105.033 L148.978,104.451 L152.613,104.017 L156.56,103.758 L158.63,103.698 L158.57,103.698 L160.142,103.714 L163.952,103.983 L168.699,104.554 L174.29,105.412 L180.611,106.538 L187.56,107.914 L195.034,109.52 L202.933,111.338 L215.365,114.422 L232.498,119.098 L249.54,124.28 L261.783,128.408 L269.501,131.238 L276.753,134.112 L283.437,137.007 L289.451,139.903 L294.694,142.781 L299.064,145.616 L302.457,148.382 L304.767,151.04 L305.889,153.511 L305.78,155.578 L304.825,156.692 L303.363,157.389 L301.085,158.431 L298.831,159.292 L295.999,160.196 L292.686,161.076 L288.896,161.919 L284.627,162.718 L279.874,163.466 L274.628,164.158 L268.881,164.792 L262.621,165.365 L259.303,165.627 L259.327,165.625 L245.627,166.507 L218.591,167.848 L198.466,169.125 L185.05,170.41 L171.62,172.232 L158.136,174.757 L151.33,176.342 L151.33,176.342 C150.14,176.62 148.732,177.882 148.185,179.162 C147.639,180.443 148.162,181.255 149.352,180.978 C149.352,180.978 149.352,180.978 149.352,180.978 L155.961,179.434 L169.238,176.942 L182.52,175.138 L195.823,173.862 L215.901,172.588 L242.987,171.244 L256.689,170.362 L256.689,170.362 C256.697,170.361 256.705,170.361 256.713,170.36 L256.713,170.36 L260.076,170.094 L266.404,169.515 L272.233,168.871 L277.577,168.164 L282.452,167.395 L286.873,166.566 L290.861,165.673 L294.438,164.716 L297.632,163.683 L300.567,162.514 L304.553,160.348 L308.74,156.484 L310.524,152.749 L310.443,149.715 L309.079,146.871 L306.586,144.037 L303.058,141.173 L298.587,138.277 L293.265,135.359 L287.188,132.433 L280.452,129.517 L273.156,126.627 L265.391,123.78 L253.094,119.634 L235.996,114.436 L218.816,109.748 L206.349,106.656 L198.419,104.831 L190.91,103.218 L183.919,101.834 L177.542,100.698 L171.873,99.829 L166.997,99.246 L163.019,98.971 L161.446,98.955 L161.446,98.955 C161.426,98.955 161.406,98.955 161.385,98.956 L161.385,98.956 L159.192,99.022 L155.053,99.299 L151.183,99.768 L147.531,100.434 L142.491,101.801 L136.571,104.331 L131.473,107.804 L127.571,112.014 L125.186,116.36 L124.121,120.642 L124.161,124.919 L125.205,129.217 L127.209,133.51 L130.142,137.749 L133.979,141.867 L138.696,145.796 L144.271,149.462 L150.661,152.782 L154.134,154.281 L154.134,154.281 C154.144,154.285 154.153,154.289 154.163,154.293 L154.163,154.293 L159.855,156.506 L171.534,160.356 L180.528,162.498 L186.63,163.454 L192.799,163.951 L198.987,163.924 L202.03,163.701 C202.03,163.701 202.03,163.701 202.03,163.701 C203.124,163.62 204.595,162.494 205.315,161.187 C206.035,159.88 205.731,158.885 204.637,158.966 L204.637,158.966" fill="#000000"/>
    <path d="M233.9,233.415 L235.93,232.037 L240.047,229.837 L244.719,227.982 L249.972,226.434 L255.674,225.229 L261.713,224.382 L271.209,223.78 L284.126,224.213 L293.6,225.427 L299.662,226.642 L305.437,228.176 L310.823,230.016 L315.733,232.153 L320.082,234.574 L321.998,235.873 L321.933,235.824 L323.271,236.957 L325.139,239.488 L326.128,242.298 L326.339,245.228 L325.848,248.055 L324.78,250.52 L323.356,252.339 L321.784,253.45 L321.137,253.688 L321.459,253.527 L319.175,254.542 L314.619,256.252 L307.368,258.289 L297.06,260.149 L286.28,261.203 L275.261,261.659 L264.261,261.726 L253.523,261.621 L243.284,261.564 L238.413,261.622 L238.413,261.622 C238.399,261.622 238.385,261.622 238.37,261.623 L238.37,261.623 L230.984,261.906 L215.722,262.609 L204.347,262.421 L196.999,261.569 L189.896,259.895 L183.145,257.194 L179.959,255.411 L179.959,255.411 C179.215,254.995 177.737,255.666 176.66,256.908 C175.582,258.15 175.312,259.494 176.056,259.909 L179.442,261.788 L186.471,264.576 L193.837,266.295 L201.452,267.164 L213.02,267.349 L228.258,266.647 L235.645,266.364 L235.603,266.365 L240.421,266.307 L250.647,266.364 L261.433,266.469 L272.545,266.399 L283.759,265.93 L294.861,264.831 L305.617,262.866 L313.342,260.673 L318.271,258.81 L320.556,257.794 L320.556,257.794 C320.663,257.746 320.77,257.693 320.878,257.633 L320.878,257.633 L323.214,256.211 L326.729,252.983 L329.138,249.401 L330.546,245.762 L331.073,242.145 L330.741,238.647 L329.524,235.41 L327.422,232.63 L326.083,231.496 L326.083,231.496 C326.062,231.479 326.04,231.462 326.018,231.447 L326.018,231.447 L323.982,230.074 L319.486,227.58 L314.438,225.39 L308.92,223.51 L303.017,221.946 L296.792,220.705 L287.07,219.471 L273.85,219.043 L264.074,219.674 L257.742,220.573 L251.65,221.878 L245.855,223.616 L240.396,225.843 L235.467,228.539 L233.434,229.918 C232.13,230.803 231.178,232.303 231.306,233.269 C231.435,234.235 232.596,234.3 233.9,233.415 L233.9,233.415" fill="#000000"/>
    <path d="M98.424,237.661 L97.046,237.916 L93.697,238.237 L89.422,238.352 L84.392,238.253 L78.798,237.938 L72.818,237.406 L63.488,236.203 L54.255,234.52 L48.439,233.139 L43.074,231.548 L38.34,229.755 L34.408,227.769 L31.454,225.605 L29.651,223.307 L29.144,220.995 L29.361,220.151 L29.25,220.599 L29.52,219.81 L30.065,218.963 L30.577,218.574 L31.341,218.101 L33.524,217.021 L37.811,215.633 L43.276,214.546 L49.639,213.815 L56.64,213.438 L64.059,213.388 L75.546,213.845 L86.856,214.821 L93.979,215.694 L100.564,216.698 L106.41,217.791 L111.326,218.933 L115.114,220.078 L116.493,220.625 L116.426,220.595 L117.513,221.134 L119.629,222.511 L122.793,225.326 L126.707,230.172 L129.87,235.809 L131.495,240.238 L132.128,243.149 L132.357,245.97 L132.139,248.58 L131.474,250.839 L130.457,252.554 L129.267,253.645 L127.689,254.512 L126.743,254.883 L127.066,254.752 L124.111,255.766 L118.021,256.944 L111.312,257.352 L104.141,257.178 L93.036,256.249 L82.174,255.156 L75.362,254.693 L72.13,254.622 L72.13,254.622 C71.095,254.6 69.605,255.643 68.802,256.953 C67.998,258.263 68.185,259.342 69.219,259.365 C69.219,259.365 69.219,259.365 69.219,259.365 L72.321,259.43 L79.048,259.886 L89.955,260.983 L101.224,261.92 L108.668,262.089 L115.889,261.613 L122.66,260.249 L125.616,259.235 L125.616,259.235 C125.722,259.199 125.83,259.155 125.94,259.104 L125.94,259.104 L128.138,258.02 L131.775,255.361 L134.453,252.202 L136.058,249.064 L136.872,245.983 L137.091,242.887 L136.815,239.753 L136.106,236.581 L134.366,231.901 L131.055,226.047 L126.97,221.022 L123.623,218.067 L121.345,216.598 L120.256,216.059 L120.256,216.059 C120.235,216.048 120.212,216.038 120.189,216.029 L120.189,216.029 L118.663,215.431 L114.746,214.251 L109.737,213.09 L103.814,211.984 L97.159,210.97 L89.945,210.088 L78.509,209.104 L66.884,208.645 L59.314,208.7 L52.096,209.094 L45.386,209.881 L39.295,211.138 L33.919,213.002 L30.322,215.006 L28.018,216.914 L26.145,219.178 L25.035,221.266 L24.765,222.055 L24.765,222.055 C24.712,222.211 24.675,222.36 24.655,222.502 L24.655,222.502 L24.472,224.453 L25.296,227.425 L27.391,230.001 L30.567,232.3 L34.668,234.361 L39.535,236.198 L45.009,237.818 L50.938,239.223 L60.293,240.924 L69.722,242.139 L75.789,242.677 L81.487,242.996 L86.662,243.094 L91.175,242.964 L94.863,242.595 L96.243,242.339 C96.243,242.339 96.243,242.339 96.243,242.339 C97.406,242.123 98.837,240.901 99.439,239.609 C100.042,238.317 99.587,237.445 98.424,237.661 L98.424,237.661" fill="#000000"/>
    <path d="M108.46,67.962 L105.834,67.896 L100.551,67.13 L95.201,65.567 L89.97,63.254 L85.089,60.244 L80.785,56.599 L77.276,52.383 L74.778,47.667 L73.992,45.201 L74.021,45.311 L73.721,43.843 L73.63,41.294 L74.087,39.216 L74.907,37.651 L75.898,36.566 L77.13,35.645 L78.867,34.656 L81.169,33.661 L83.942,32.777 L87.078,32.07 L92.309,31.403 L99.817,31.316 L107.521,32.152 L115.025,33.908 L120.256,35.816 L123.462,37.363 L126.402,39.136 L129.012,41.125 L131.243,43.323 L133.046,45.725 L134.375,48.318 L135.188,51.091 L135.449,54.025 L135.128,57.1 L134.206,60.307 L132.656,63.654 L130.431,67.179 L127.452,70.939 L125.734,72.824 L125.96,72.587 L123.189,75.341 L117.556,79.972 L114.701,81.963 L114.908,81.824 L111.026,84.284 L103.366,88.255 L95.416,91.184 L86.946,93.093 L82.551,93.636 L82.638,93.627 L79.764,93.849 L73.922,94.055 L64.855,93.886 L52.527,93.04 L40.401,91.87 L34.568,91.295 L34.568,91.295 C33.582,91.198 32.083,92.177 31.222,93.484 C30.36,94.79 30.461,95.928 31.447,96.025 L37.286,96.601 L49.485,97.777 L61.953,98.629 L71.187,98.797 L77.168,98.582 L80.044,98.36 L80.044,98.36 C80.073,98.358 80.102,98.355 80.132,98.351 L80.132,98.351 L84.948,97.734 L94.118,95.613 L102.899,92.312 L111.225,87.956 L115.108,85.496 L115.108,85.496 C115.177,85.452 115.246,85.406 115.315,85.358 L115.315,85.358 L118.854,82.843 L125.283,77.489 L128.056,74.733 L128.056,74.733 C128.134,74.656 128.209,74.577 128.282,74.496 L128.282,74.496 L130.518,71.994 L134.155,67.296 L136.906,62.79 L138.789,58.534 L139.856,54.572 L140.18,50.912 L139.837,47.548 L138.899,44.462 L137.426,41.64 L135.476,39.071 L133.101,36.748 L130.351,34.664 L127.275,32.818 L123.906,31.202 L118.446,29.227 L110.663,27.424 L102.622,26.573 L94.715,26.689 L89.075,27.43 L85.478,28.265 L82.043,29.406 L78.761,30.925 L75.637,32.939 L72.829,35.515 L70.7,38.422 L69.418,41.348 L68.889,44.261 L69.027,47.207 L69.328,48.676 L69.328,48.676 C69.335,48.714 69.345,48.751 69.357,48.786 L69.357,48.786 L70.265,51.542 L72.943,56.526 L76.635,60.927 L81.128,64.708 L86.209,67.823 L91.673,70.221 L97.322,71.847 L102.912,72.639 L105.54,72.705 C106.573,72.73 108.063,71.689 108.869,70.38 C109.675,69.07 109.492,67.988 108.46,67.962 L108.46,67.962" fill="#000000"/>
    <path d="M245.928,53.738 L244.944,51.834 L243.535,48.345 L242.803,45.249 L242.68,42.552 L243.084,40.313 L243.864,38.627 L244.804,37.525 L245.887,36.724 L247.423,35.881 L249.558,35.015 L252.202,34.262 L255.241,33.699 L260.381,33.27 L267.882,33.515 L275.758,34.659 L283.655,36.65 L291.21,39.434 L298.065,42.948 L302.523,46.015 L305.086,48.244 L307.291,50.623 L309.08,53.129 L310.412,55.747 L311.249,58.457 L311.56,61.232 L311.323,64.04 L311.017,65.344 L311.066,65.157 L310.716,66.319 L309.941,68.188 L308.543,70.374 L306.414,72.359 L303.932,73.764 L300.7,74.997 L296.906,75.932 L290.723,76.734 L286.674,76.958 L286.718,76.956 L283.352,77.056 L277.02,77.102 L268.158,76.816 L256.728,75.84 L247.792,74.716 L241.368,73.803 L237.96,73.302 L237.96,73.302 C237.958,73.302 237.955,73.302 237.953,73.301 L237.953,73.301 L232.702,72.559 L221.613,70.932 L213.207,69.309 L207.751,67.903 L202.506,66.151 L197.578,63.987 L195.284,62.74 L195.284,62.74 C194.533,62.332 193.054,63.01 191.981,64.255 C190.908,65.5 190.647,66.84 191.398,67.247 L193.82,68.557 L198.904,70.782 L204.282,72.572 L209.867,74.007 L218.375,75.648 L229.477,77.277 L234.73,78.019 L234.722,78.018 L238.142,78.521 L244.604,79.439 L253.642,80.573 L265.216,81.558 L274.196,81.846 L280.598,81.798 L283.964,81.698 L283.964,81.698 C283.979,81.697 283.993,81.697 284.008,81.696 L284.008,81.696 L288.328,81.447 L295.022,80.544 L299.581,79.356 L304.156,77.419 L308.629,74.386 L312.295,70.445 L314.297,67.076 L315.266,64.661 L315.617,63.497 L315.617,63.497 C315.636,63.433 315.652,63.371 315.665,63.31 L315.665,63.31 L316.057,61.439 L316.285,58.063 L315.891,54.888 L314.938,51.897 L313.483,49.076 L311.572,46.42 L309.252,43.929 L306.551,41.595 L301.916,38.422 L294.866,34.823 L287.113,31.978 L278.989,29.942 L270.821,28.773 L262.947,28.539 L257.408,29.023 L253.896,29.7 L250.545,30.711 L247.325,32.146 L244.236,34.157 L241.506,36.775 L239.534,39.674 L238.389,42.584 L237.941,45.55 L238.125,48.683 L238.945,52.056 L240.42,55.689 L241.405,57.595 C241.405,57.595 241.405,57.595 241.405,57.595 C241.799,58.358 243.132,58.112 244.381,57.047 C245.63,55.982 246.323,54.501 245.928,53.738 L245.928,53.738" fill="#000000"/>
    <path d="M336.376,116.962 L334.542,117.017 L330.815,116.902 L326.991,116.475 L323.149,115.713 L319.395,114.591 L315.834,113.088 L312.57,111.183 L309.704,108.856 L308.476,107.553 L308.518,107.601 L307.646,106.51 L306.495,104.567 L306.022,102.932 L306.095,101.677 L306.474,100.989 L306.774,100.91 L307.73,100.516 L310.528,99.606 L314.323,98.964 L318.281,98.84 L321.681,99.264 L322.9,99.65 L322.808,99.617 L324.821,100.466 L329.07,102.535 L333.536,105.046 L338.061,107.911 L342.48,111.037 L346.624,114.33 L350.328,117.696 L353.425,121.038 L355.747,124.25 L357.124,127.208 L357.404,129.709 L356.942,130.826 L356.759,130.742 L356.578,130.67 L355.902,130.915 L354.499,131.37 L352.452,131.818 L349.842,132.155 L346.698,132.336 L343.03,132.336 L338.831,132.137 L336.541,131.959 L336.577,131.963 L332.749,131.557 L325.092,130.368 L313.592,127.999 L306.042,126.317 L306.042,126.317 C305.128,126.114 303.627,126.998 302.688,128.292 C301.749,129.586 301.728,130.8 302.641,131.003 C302.641,131.003 302.641,131.003 302.641,131.003 L310.225,132.692 L321.835,135.081 L329.609,136.285 L333.439,136.691 L333.439,136.691 C333.451,136.692 333.463,136.693 333.475,136.694 L333.475,136.694 L335.847,136.877 L340.185,137.079 L344.041,137.074 L347.449,136.868 L350.457,136.458 L353.139,135.822 L355.612,134.877 L358.004,133.433 L360.121,131.401 L361.508,129.113 L362.125,126.512 L361.676,123.409 L360.145,120.19 L357.707,116.836 L354.519,113.404 L350.739,109.974 L346.526,106.629 L342.041,103.458 L337.443,100.549 L332.891,97.994 L328.556,95.886 L326.541,95.036 L326.541,95.036 C326.512,95.024 326.481,95.013 326.449,95.003 L326.449,95.003 L324.853,94.54 L321.014,94.099 L316.52,94.283 L311.768,95.199 L307.045,97.172 L303.706,99.857 L302.047,102.284 L301.352,104.477 L301.376,106.486 L302.02,108.509 L303.291,110.627 L304.164,111.719 L304.164,111.719 C304.177,111.736 304.191,111.752 304.206,111.767 L304.206,111.767 L305.58,113.205 L308.642,115.667 L312.1,117.669 L315.853,119.24 L319.799,120.41 L323.841,121.202 L327.879,121.644 L331.788,121.759 L333.624,121.704 C334.691,121.672 336.172,120.585 336.932,119.275 C337.692,117.966 337.443,116.93 336.376,116.962 L336.376,116.962" fill="#000000"/>
    <path d="M369.675,197.962 L369.121,195.514 L367.516,191.17 L365.346,187.673 L362.718,185.035 L359.726,183.221 L356.462,182.199 L353.011,181.943 L349.446,182.438 L345.827,183.692 L342.222,185.745 L338.767,188.628 L335.736,192.25 L333.416,196.368 L331.93,200.787 L331.291,205.454 L331.523,210.378 L331.99,212.986 L331.99,212.986 C331.994,213.011 332,213.036 332.006,213.06 L332.006,213.06 L332.562,215.234 L334,219.36 L335.823,223.084 L337.983,226.363 L340.439,229.183 L343.153,231.528 L346.088,233.383 L349.207,234.731 L352.48,235.554 L355.879,235.826 L359.384,235.518 L362.983,234.584 L366.66,232.964 L370.367,230.594 L373.991,227.453 L377.371,223.606 L379.026,221.318 L379.026,221.318 C379.948,220.02 379.941,218.823 379.01,218.644 C378.079,218.465 376.578,219.372 375.656,220.669 L374.644,222.138 L372.386,224.844 L370.038,227.005 L367.521,228.716 L364.803,229.988 L361.921,230.789 L358.94,231.091 L355.929,230.879 L352.952,230.156 L350.064,228.928 L347.314,227.209 L344.751,225.014 L342.419,222.358 L340.362,219.259 L338.622,215.733 L337.233,211.77 L336.676,209.594 L336.692,209.668 L336.263,207.38 L336.006,203.043 L336.45,199.226 L337.415,196.009 L338.714,193.417 L340.267,191.328 L342.16,189.577 L344.464,188.145 L347.114,187.141 L349.976,186.68 L352.908,186.844 L355.781,187.695 L358.478,189.281 L360.889,191.646 L362.907,194.831 L364.437,198.921 L364.991,201.371 C365.198,202.282 366.414,202.257 367.707,201.316 C369.001,200.375 369.882,198.873 369.675,197.962 L369.675,197.962" fill="#000000"/>
  </g>
  <g id="Layer 14" display="none">
    <path d="M189.762,41.521 L187.786,39.724 L183.448,36.727 L178.73,34.567 L173.74,33.228 L168.557,32.666 L163.263,32.844 L157.934,33.724 L152.645,35.273 L147.47,37.463 L142.484,40.273 L137.768,43.686 L133.43,47.675 L129.611,52.182 L126.469,57.1 L124.137,62.305 L122.698,67.698 L122.317,70.532 L122.317,70.532 C122.311,70.579 122.307,70.625 122.305,70.671 L122.305,70.671 L122.187,73.009 L122.422,77.711 L123.259,82.248 L124.639,86.571 L126.505,90.692 L128.799,94.616 L131.466,98.351 L134.454,101.899 L139.413,106.873 L146.661,112.89 L154.257,118.213 L161.775,122.843 L165.382,124.905 L165.382,124.905 C165.387,124.908 165.392,124.911 165.398,124.914 L165.398,124.914 L168.789,126.759 L175.686,130.187 L182.701,133.244 L189.813,135.92 L197.013,138.212 L204.291,140.114 L215.316,142.222 L230.194,143.625 L245.218,143.382 L260.297,141.447 L271.629,138.85 L279.18,136.555 L282.969,135.228 L282.969,135.228 C283.002,135.217 283.036,135.204 283.07,135.191 L283.07,135.191 L288.151,133.215 L297.862,128.74 L306.772,123.654 L314.764,118.014 L321.769,111.851 L327.684,105.211 L332.354,98.198 L335.621,90.976 L337.388,83.704 L337.621,76.482 L336.301,69.358 L333.399,62.368 L330.145,57.22 L327.451,53.851 L324.342,50.553 L320.799,47.318 L316.814,44.153 L312.379,41.065 L307.486,38.062 L302.125,35.149 L299.257,33.726 L299.257,33.726 C299.246,33.72 299.234,33.714 299.221,33.709 L299.221,33.709 L294.275,31.528 L283.99,27.956 L273.463,25.028 L262.951,22.207 L257.778,20.669 L257.778,20.669 C256.907,20.409 255.408,21.24 254.43,22.524 C253.452,23.808 253.366,25.059 254.237,25.318 C254.237,25.318 254.237,25.318 254.237,25.318 L259.461,26.871 L269.956,29.688 L280.366,32.579 L290.514,36.097 L295.461,38.278 L295.425,38.261 L298.238,39.657 L303.525,42.526 L308.342,45.48 L312.7,48.51 L316.606,51.608 L320.069,54.764 L323.098,57.97 L325.693,61.201 L328.816,66.098 L331.601,72.69 L332.878,79.246 L332.755,85.671 L331.35,91.887 L328.769,97.865 L325.05,103.635 L320.174,109.235 L314.124,114.638 L306.933,119.765 L298.672,124.515 L289.361,128.819 L284.279,130.796 L284.38,130.759 L280.823,132.009 L273.62,134.211 L262.704,136.733 L248.013,138.639 L233.303,138.894 L218.651,137.522 L207.766,135.446 L200.59,133.573 L193.482,131.314 L186.455,128.672 L179.519,125.652 L172.677,122.253 L169.285,120.407 L169.3,120.415 L165.738,118.38 L158.298,113.801 L150.801,108.554 L143.657,102.633 L138.783,97.751 L135.87,94.298 L133.28,90.685 L131.066,86.914 L129.277,82.991 L127.96,78.922 L127.161,74.716 L126.927,70.324 L127.044,67.983 L127.032,68.122 L127.305,65.839 L128.421,61.364 L130.166,57.26 L132.454,53.514 L135.249,50.089 L138.54,46.967 L142.301,44.174 L146.47,41.772 L150.961,39.831 L155.679,38.415 L160.529,37.585 L165.418,37.395 L170.255,37.893 L174.951,39.128 L179.417,41.146 L183.594,44.016 L185.571,45.813 C186.185,46.37 187.621,45.862 188.778,44.676 C189.935,43.491 190.376,42.078 189.762,41.521 L189.762,41.521" fill="#000000"/>
    <path d="M267.485,195.245 L265.741,193.276 L261.856,189.838 L257.547,187.109 L252.893,185.07 L247.956,183.678 L242.793,182.887 L237.466,182.654 L232.033,182.935 L223.854,184.216 L215.726,186.407 L210.405,188.317 L205.307,190.514 L200.44,192.97 L195.858,195.649 L191.61,198.519 L189.545,200.077 L189.545,200.077 C189.489,200.119 189.434,200.163 189.379,200.208 L189.379,200.208 L187.771,201.527 L184.628,204.413 L180.655,208.914 L176.82,215.1 L174.672,221.32 L174.142,227.255 L174.971,232.894 L176.947,238.262 L179.908,243.361 L183.714,248.171 L188.229,252.654 L193.326,256.769 L198.872,260.47 L204.742,263.708 L210.806,266.434 L216.938,268.597 L223.015,270.146 L226.022,270.679 L226.022,270.679 C226.047,270.684 226.071,270.687 226.096,270.69 L226.096,270.69 L228.673,270.982 L234.417,271.116 L240.674,270.644 L247.24,269.589 L253.95,267.974 L260.645,265.816 L267.172,263.13 L273.383,259.915 L279.143,256.151 L284.312,251.791 L288.692,246.783 L291.935,241.214 L293.669,235.356 L293.882,230.841 L293.481,227.815 L292.654,224.809 L291.388,221.763 L289.668,218.672 L287.474,215.533 L286.183,213.932 L286.183,213.932 C286.176,213.924 286.17,213.916 286.163,213.908 L286.163,213.908 L283.095,210.407 L276.591,203.685 L266.222,194.212 L259.084,188.164 L259.084,188.164 C259.08,188.16 259.076,188.157 259.072,188.154 L259.072,188.154 L255.351,185.122 L247.717,179.263 L235.962,170.881 L228.021,165.449 L228.021,165.449 C228.02,165.448 228.019,165.448 228.017,165.447 L228.017,165.447 L226.016,164.092 L222.351,161.642 L219.086,159.506 L216.155,157.645 L212.244,155.281 L207.589,152.718 L203.092,150.537 L198.246,148.425 L194.072,146.698 L190.913,145.403 L187.374,143.946 L183.388,142.287 L181.208,141.37 L181.208,141.37 C180.401,141.03 178.91,141.779 177.879,143.044 C176.848,144.309 176.666,145.61 177.474,145.95 C177.474,145.95 177.474,145.95 177.474,145.95 L179.661,146.871 L183.653,148.532 L187.194,149.99 L190.348,151.282 L194.492,152.997 L199.274,155.079 L203.694,157.221 L208.293,159.751 L212.173,162.096 L215.086,163.946 L218.339,166.074 L221.996,168.519 L223.998,169.874 L223.995,169.871 L231.911,175.285 L243.623,183.636 L251.222,189.467 L254.944,192.5 L254.932,192.49 L262.028,198.501 L272.331,207.91 L278.784,214.577 L281.853,218.079 L281.833,218.055 L283.061,219.573 L285.169,222.575 L286.806,225.492 L287.994,228.316 L288.762,231.035 L289.14,233.582 L289.084,237.133 L288.005,241.447 L285.945,245.338 L282.877,249.034 L278.799,252.573 L273.855,255.856 L268.251,258.787 L262.196,261.3 L255.889,263.347 L249.519,264.893 L243.272,265.91 L237.33,266.373 L231.831,266.256 L229.253,265.964 L229.327,265.974 L226.477,265.475 L220.571,263.977 L214.578,261.87 L208.637,259.206 L202.883,256.037 L197.449,252.419 L192.468,248.407 L188.072,244.057 L184.392,239.432 L181.556,234.599 L179.684,229.64 L178.876,224.662 L179.181,219.792 L180.601,215.124 L183.329,210.443 L186.401,206.869 L189.027,204.432 L190.637,203.112 L190.47,203.243 L192.072,202.018 L195.779,199.491 L199.888,197.07 L204.332,194.812 L209.045,192.769 L213.922,190.999 L221.558,188.914 L229.355,187.674 L234.496,187.395 L239.545,187.601 L244.445,188.336 L249.138,189.642 L253.569,191.563 L257.681,194.144 L261.435,197.452 L263.181,199.422 C263.181,199.422 263.181,199.422 263.181,199.422 C263.732,200.043 265.142,199.61 266.33,198.457 C267.519,197.303 268.036,195.865 267.485,195.245 L267.485,195.245" fill="#000000"/>
  </g>
  <g id="Layer 15" display="none">
    <path d="M267.018,40.987 L264.161,40.395 L258.233,39.494 L249.065,38.809 L236.653,38.924 L224.449,39.916 L218.556,40.64 L218.556,40.64 C218.54,40.642 218.525,40.644 218.509,40.647 L218.509,40.647 L215.651,41.067 L209.265,42.219 L202.274,43.766 L194.952,45.693 L187.545,47.991 L180.298,50.654 L173.445,53.687 L167.199,57.111 L161.736,61.008 L157.219,65.563 L154.614,69.653 L153.563,72.545 L153.206,75.226 L153.437,77.837 L154.238,80.402 L155.607,82.955 L157.562,85.52 L160.13,88.111 L163.339,90.738 L167.223,93.407 L171.813,96.118 L177.144,98.875 L180.107,100.274 L180.107,100.274 C180.113,100.277 180.119,100.279 180.125,100.282 L180.125,100.282 L185.151,102.52 L195.294,106.623 L205.521,110.205 L215.81,113.247 L226.149,115.734 L236.524,117.651 L246.925,118.983 L257.337,119.715 L267.75,119.83 L278.153,119.314 L288.533,118.15 L298.88,116.322 L309.182,113.811 L319.429,110.6 L329.607,106.67 L339.706,102.003 L344.779,99.358 L344.779,99.358 C344.818,99.337 344.858,99.316 344.898,99.293 L344.898,99.293 L347.694,97.72 L352.903,94.437 L357.486,91.017 L361.412,87.445 L364.672,83.691 L367.188,79.789 L368.872,75.86 L369.719,72.011 L369.799,68.262 L369.19,64.578 L367.948,60.919 L366.109,57.252 L363.702,53.555 L360.749,49.813 L357.269,46.014 L353.284,42.149 L351.101,40.184 L351.101,40.184 C350.484,39.629 349.048,40.141 347.892,41.327 C346.736,42.514 346.299,43.925 346.915,44.48 L349.057,46.408 L352.981,50.209 L356.389,53.924 L359.261,57.553 L361.578,61.093 L363.323,64.536 L364.483,67.87 L365.056,71.071 L365.057,74.106 L364.526,76.949 L363.492,79.629 L361.911,82.261 L359.655,84.975 L356.607,87.815 L352.718,90.757 L347.916,93.796 L345.118,95.371 L345.237,95.306 L340.508,97.782 L330.83,102.27 L321.027,106.068 L311.111,109.187 L301.098,111.637 L291.002,113.429 L280.841,114.575 L270.63,115.087 L260.383,114.978 L250.117,114.261 L239.846,112.949 L229.585,111.057 L219.348,108.597 L209.15,105.585 L199.005,102.033 L188.918,97.954 L183.891,95.715 L183.909,95.724 L181.001,94.351 L175.751,91.64 L171.251,88.986 L167.47,86.395 L164.376,83.872 L161.935,81.426 L160.115,79.069 L158.874,76.82 L158.167,74.705 L157.927,72.762 L158.071,71.019 L158.429,69.619 L159.495,67.527 L162.444,64.335 L166.908,61.073 L172.534,57.957 L178.976,55.092 L185.93,52.528 L193.111,50.295 L200.245,48.413 L207.061,46.902 L213.313,45.772 L216.173,45.351 L216.126,45.357 L221.868,44.648 L233.835,43.668 L246.008,43.544 L254.984,44.208 L260.791,45.087 L263.649,45.68 C263.649,45.68 263.649,45.68 263.649,45.68 C264.571,45.871 266.073,44.975 267.003,43.679 C267.933,42.383 267.94,41.178 267.018,40.987 L267.018,40.987" fill="#000000"/>
    <path d="M308.581,183.38 L307.522,181.493 L304.817,177.971 L301.455,174.889 L297.541,172.248 L293.156,170.016 L288.38,168.161 L283.293,166.653 L277.972,165.462 L269.737,164.213 L258.656,163.398 L248.022,163.359 L240.712,163.715 L236.3,164.086 L234.254,164.303 L234.254,164.303 C234.241,164.305 234.228,164.306 234.216,164.308 L234.216,164.308 L231.256,164.682 L225.559,165.624 L220.216,166.809 L215.246,168.222 L210.638,169.854 L206.384,171.698 L202.471,173.753 L198.888,176.02 L195.633,178.506 L192.719,181.21 L190.184,184.106 L188.083,187.138 L185.878,191.668 L184.494,197.731 L184.802,203.692 L186.695,209.411 L190.096,214.847 L193.627,218.705 L196.44,221.144 L199.604,223.448 L203.128,225.615 L207.011,227.633 L211.25,229.484 L215.846,231.154 L220.796,232.629 L226.099,233.891 L231.753,234.927 L234.725,235.357 L234.725,235.357 C234.735,235.359 234.746,235.36 234.756,235.361 L234.756,235.361 L238.245,235.777 L245.609,236.388 L253.369,236.676 L261.424,236.616 L269.689,236.183 L278.079,235.354 L286.512,234.104 L294.905,232.405 L303.176,230.23 L311.248,227.548 L319.047,224.325 L326.502,220.518 L333.543,216.075 L340.091,210.937 L346.032,205.057 L351.205,198.435 L353.537,194.723 L353.537,194.723 C353.58,194.653 353.62,194.584 353.658,194.515 L353.658,194.515 L354.748,192.532 L356.894,188.068 L358.718,183.248 L359.986,178.276 L360.495,173.303 L360.043,168.491 L358.436,164.001 L356.347,160.916 L354.488,159.04 L353.404,158.158 L353.404,158.158 C353.392,158.148 353.38,158.14 353.368,158.131 L353.368,158.131 L351.077,156.486 L346.22,153.445 L338.489,149.476 L327.738,144.987 L317.011,140.988 L311.845,139.03 L311.845,139.03 C311.016,138.715 309.522,139.491 308.507,140.763 C307.493,142.034 307.342,143.32 308.171,143.634 C308.171,143.634 308.171,143.634 308.171,143.634 L313.347,145.596 L324.009,149.569 L334.636,154.001 L342.247,157.902 L347.022,160.888 L349.314,162.533 L349.279,162.506 L350.246,163.283 L351.926,164.945 L353.824,167.654 L355.314,171.615 L355.768,175.826 L355.371,180.171 L354.296,184.53 L352.718,188.775 L350.781,192.831 L349.691,194.816 L349.812,194.608 L348.092,197.439 L343.916,202.931 L338.995,207.903 L333.343,212.404 L327.019,216.436 L320.121,219.985 L312.751,223.047 L305.016,225.628 L297.015,227.74 L288.844,229.4 L280.598,230.628 L272.369,231.444 L264.247,231.872 L256.324,231.934 L248.689,231.654 L241.417,231.052 L237.926,230.636 L237.957,230.64 L235.071,230.224 L229.53,229.213 L224.338,227.979 L219.495,226.541 L215.006,224.912 L210.869,223.111 L207.09,221.152 L203.667,219.051 L200.604,216.827 L197.913,214.508 L194.551,210.87 L191.323,205.801 L189.539,200.664 L189.149,195.669 L190.071,190.926 L191.582,187.6 L192.913,185.572 L194.575,183.588 L196.628,181.62 L199.112,179.676 L202.046,177.787 L205.428,175.989 L209.251,174.315 L213.508,172.796 L218.191,171.456 L223.294,170.318 L228.839,169.397 L231.8,169.023 L231.762,169.027 L233.729,168.818 L238.02,168.455 L245.166,168.103 L255.601,168.134 L266.489,168.928 L274.569,170.148 L279.755,171.303 L284.695,172.761 L289.311,174.545 L293.525,176.677 L297.262,179.178 L300.446,182.068 L303.025,185.399 L304.085,187.287 C304.085,187.287 304.085,187.287 304.085,187.287 C304.503,188.03 305.848,187.757 307.089,186.678 C308.331,185.599 308.999,184.123 308.581,183.38 L308.581,183.38" fill="#000000"/>
    <path d="M106.764,151.628 L103.346,151.609 L95.593,151.462 L87.001,151.484 L78.114,152.059 L71.535,153.098 L67.268,154.192 L63.2,155.678 L59.312,157.662 L55.614,160.295 L52.222,163.72 L49.468,167.86 L47.625,172.454 L47.019,175.004 L47.019,175.004 C47.006,175.066 46.995,175.126 46.986,175.185 L46.986,175.185 L46.663,177.529 L46.586,182.243 L47.284,186.713 L48.701,190.865 L50.777,194.706 L53.453,198.245 L56.675,201.485 L60.393,204.429 L64.556,207.077 L69.115,209.43 L74.02,211.486 L79.224,213.242 L84.677,214.695 L90.332,215.844 L99.071,216.984 L110.98,217.405 L122.853,216.537 L131.533,215.008 L137.142,213.551 L142.513,211.741 L147.643,209.556 L152.503,206.97 L157.059,203.947 L161.266,200.445 L165.032,196.446 L168.215,191.993 L170.678,187.192 L172.354,182.123 L173.233,176.805 L173.378,173.984 L173.378,173.984 C173.38,173.941 173.38,173.9 173.379,173.859 L173.379,173.859 L173.259,170.318 L172.103,163.404 L169.827,156.947 L166.581,151.011 L162.505,145.592 L157.734,140.694 L152.404,136.321 L146.647,132.481 L143.634,130.754 L143.634,130.754 C143.626,130.749 143.617,130.745 143.609,130.74 L143.609,130.74 L139.853,128.758 L132.653,125.342 L125.737,122.623 L118.926,120.548 L112.037,119.06 L104.892,118.101 L97.313,117.613 L89.125,117.533 L84.731,117.627 L84.731,117.627 C84.726,117.627 84.72,117.628 84.715,117.628 L84.715,117.628 L81.886,117.717 L76.771,117.906 L72.313,118.124 L68.424,118.385 L63.472,118.895 L58.026,119.887 L53.204,121.384 L48.401,123.523 L44.479,125.588 L41.608,127.176 L38.431,128.946 L34.829,130.929 L32.847,132.003 L32.847,132.003 C31.54,132.711 30.404,134.178 30.309,135.28 C30.214,136.382 31.196,136.702 32.502,135.994 L34.536,134.892 L38.176,132.888 L41.332,131.13 L44.058,129.621 L47.527,127.777 L51.61,125.915 L55.833,124.567 L60.969,123.62 L65.794,123.121 L69.621,122.863 L74.041,122.648 L79.137,122.459 L81.968,122.37 L81.951,122.37 L86.25,122.276 L94.283,122.35 L101.685,122.821 L108.65,123.748 L115.372,125.194 L122.043,127.22 L128.849,129.891 L135.983,133.274 L139.74,135.257 L139.715,135.243 L142.636,136.913 L148.271,140.663 L153.478,144.923 L158.124,149.676 L162.077,154.903 L165.209,160.583 L167.395,166.69 L168.518,173.263 L168.637,176.805 L168.638,176.68 L168.537,179.092 L167.836,183.68 L166.562,187.775 L164.804,191.403 L162.593,194.654 L159.89,197.639 L156.651,200.411 L152.885,202.958 L148.642,205.247 L143.988,207.249 L138.992,208.946 L133.75,210.323 L125.46,211.802 L113.929,212.663 L102.268,212.262 L93.693,211.149 L88.163,210.03 L82.832,208.614 L77.751,206.904 L72.97,204.906 L68.538,202.626 L64.505,200.069 L60.92,197.244 L57.83,194.157 L55.284,190.82 L53.325,187.244 L51.995,183.445 L51.329,179.439 L51.372,175.158 L51.696,172.812 L51.663,172.993 L52.036,171.203 L53.141,168.059 L54.542,165.638 L56.374,163.585 L58.829,161.727 L61.882,160.113 L65.407,158.799 L69.244,157.795 L75.476,156.796 L84.163,156.227 L92.689,156.205 L100.483,156.353 L103.902,156.372 C104.947,156.377 106.434,155.32 107.225,154.01 C108.015,152.7 107.809,151.634 106.764,151.628 L106.764,151.628" fill="#000000"/>
  </g>
  <g id="Layer 16" display="none">
    <path d="M311.845,260.483 L313.638,259.71 L317.712,257.241 L321.727,253.794 L325.208,249.652 L327.856,245.068 L329.408,240.312 L329.663,235.623 L328.468,231.18 L327.249,229.034 L327.249,229.034 C327.234,229.007 327.216,228.981 327.198,228.956 L327.198,228.956 L325.919,227.261 L323.031,224.173 L319.785,221.547 L316.24,219.383 L312.438,217.661 L308.423,216.359 L304.236,215.456 L299.92,214.93 L293.322,214.803 L284.452,215.753 L275.768,217.843 L267.604,220.928 L261.929,223.855 L258.398,226.109 L255.205,228.547 L252.322,231.215 L249.818,234.11 L247.8,237.19 L246.399,240.348 L245.696,243.464 L245.709,246.468 L246.427,249.349 L247.849,252.116 L249.995,254.776 L252.893,257.332 L256.581,259.775 L261.097,262.094 L266.485,264.274 L269.535,265.312 L269.535,265.312 C269.546,265.316 269.558,265.32 269.569,265.323 L269.569,265.323 L274.412,266.773 L284.315,269.121 L289.354,270.018 L289.354,270.018 C289.372,270.021 289.389,270.024 289.407,270.026 L289.407,270.026 L294.462,270.693 L304.713,271.462 L309.85,271.702 L309.85,271.702 C309.854,271.702 309.858,271.703 309.862,271.703 L309.862,271.703 L314.476,271.881 L323.398,271.859 L332.08,270.858 L338.628,269.085 L343.107,267.227 L345.439,266.028 L345.439,266.028 C346.743,265.35 347.904,263.892 348.034,262.771 C348.164,261.65 347.213,261.291 345.91,261.969 L344.146,262.901 L340.416,264.497 L334.535,266.138 L326.236,267.115 L317.436,267.14 L312.82,266.961 L312.833,266.962 L307.772,266.727 L297.664,265.972 L292.608,265.305 L292.661,265.313 L287.744,264.442 L277.957,262.125 L273.113,260.674 L273.148,260.685 L270.196,259.683 L264.949,257.568 L260.586,255.339 L257.064,253.022 L254.341,250.649 L252.369,248.251 L251.094,245.873 L250.452,243.562 L250.358,241.369 L250.719,239.323 L251.467,237.398 L252.602,235.512 L254.17,233.601 L256.195,231.664 L258.662,229.739 L261.459,227.913 L266.349,225.34 L273.833,222.469 L281.968,220.476 L290.421,219.546 L296.744,219.654 L300.851,220.145 L304.838,220.995 L308.663,222.224 L312.284,223.851 L315.662,225.896 L318.754,228.38 L321.538,231.344 L322.818,233.041 L322.766,232.964 L323.812,234.697 L324.922,238.35 L324.867,241.939 L323.915,245.322 L322.287,248.415 L320.143,251.168 L317.604,253.512 L314.617,255.409 L312.822,256.183 C311.54,256.737 310.282,258.148 310.013,259.335 C309.743,260.522 310.563,261.036 311.845,260.483 L311.845,260.483" fill="#000000"/>
    <path d="M154.76,253.03 L156.529,253.224 L160.746,253.444 L165.535,253.344 L170.587,252.819 L175.627,251.754 L180.432,249.997 L183.925,247.999 L186.272,246.106 L188.307,243.838 L189.901,241.239 L190.538,239.73 L190.538,239.73 C190.583,239.613 190.62,239.499 190.648,239.388 L190.648,239.388 L190.916,238.329 L191.029,235.825 L190.478,233.511 L189.433,231.477 L187.261,228.868 L183.77,226.127 L181.967,225.087 L181.967,225.087 C181.945,225.075 181.923,225.063 181.9,225.053 L181.9,225.053 L178.039,223.28 L170.032,220.75 L161.882,219.513 L153.795,219.445 L145.943,220.411 L138.489,222.277 L131.59,224.919 L125.385,228.235 L120.002,232.163 L115.594,236.686 L112.516,241.691 L111.382,245.589 L111.317,248.049 L111.778,250.267 L112.73,252.348 L114.176,254.294 L116.126,256.104 L118.596,257.772 L121.605,259.289 L125.172,260.643 L129.321,261.819 L131.639,262.341 L131.639,262.341 C131.652,262.344 131.665,262.347 131.678,262.349 L131.678,262.349 L135.322,263.03 L142.994,264.004 L150.875,264.341 L158.666,263.908 L162.505,263.351 L162.505,263.351 C163.645,263.184 165.092,261.995 165.738,260.696 C166.384,259.397 165.983,258.479 164.844,258.646 C164.844,258.646 164.844,258.646 164.844,258.646 L161.333,259.17 L153.846,259.6 L146.184,259.281 L138.649,258.329 L135.004,257.648 L135.044,257.656 L132.837,257.163 L128.845,256.037 L125.444,254.757 L122.611,253.343 L120.324,251.819 L118.557,250.211 L117.282,248.549 L116.464,246.867 L116.061,245.204 L115.996,243.699 L116.382,241.57 L117.939,238.577 L120.821,235.409 L125.029,232.233 L130.364,229.32 L136.598,226.891 L143.52,225.127 L150.928,224.189 L158.637,224.227 L166.46,225.39 L174.253,227.838 L178.116,229.611 L178.049,229.577 L179.666,230.492 L182.931,233.015 L184.916,235.346 L185.81,236.987 L186.287,238.597 L186.303,240.215 L186.034,241.276 L186.145,240.934 L186.009,241.405 L185.539,242.417 L184.877,243.317 L183.977,244.173 L181.734,245.567 L177.69,247.099 L173.083,248.095 L168.315,248.602 L163.742,248.705 L159.677,248.497 L157.907,248.303 C157.907,248.303 157.907,248.303 157.907,248.303 C156.927,248.196 155.428,249.167 154.559,250.473 C153.69,251.778 153.78,252.923 154.76,253.03 L154.76,253.03" fill="#000000"/>
  </g>
  <g id="Layer 17" display="none">
    <path d="M217.694,206.222 L221.806,207.35 L230.923,209.549 L241.043,211.585 L251.975,213.366 L263.54,214.8 L275.557,215.799 L287.846,216.27 L300.23,216.122 L312.532,215.262 L324.579,213.596 L336.205,211.024 L344.588,208.426 L349.994,206.338 L355.181,203.962 L360.169,201.264 L364.941,198.221 L369.473,194.805 L373.73,190.998 L377.661,186.795 L381.205,182.212 L384.306,177.278 L385.729,174.594 L385.729,174.594 C385.767,174.521 385.802,174.449 385.835,174.378 L385.835,174.378 L386.987,171.815 L388.785,166.325 L389.739,160.808 L389.893,155.399 L389.34,150.098 L388.158,144.908 L386.42,139.84 L384.194,134.906 L381.543,130.126 L378.531,125.519 L373.482,118.99 L366.07,111.091 L358.334,104.289 L354.489,101.35 L354.489,101.35 C354.482,101.345 354.474,101.339 354.467,101.334 L354.467,101.334 L350.128,98.25 L341.302,92.404 L332.314,86.996 L323.186,82.023 L313.934,77.475 L304.572,73.343 L295.116,69.617 L285.58,66.29 L271.171,62.026 L251.82,57.644 L232.415,54.686 L213.087,53.079 L193.954,52.751 L175.137,53.629 L156.755,55.641 L138.928,58.714 L121.771,62.779 L105.403,67.764 L93.688,72.075 L86.17,75.21 L78.938,78.529 L71.978,82.036 L65.306,85.723 L58.934,89.583 L52.876,93.612 L47.146,97.803 L41.76,102.153 L36.733,106.655 L32.087,111.301 L27.843,116.083 L24.027,120.985 L20.665,125.99 L17.785,131.076 L15.409,136.219 L13.555,141.399 L12.236,146.597 L11.464,151.802 L11.246,157.004 L11.591,162.196 L12.509,167.372 L14.01,172.528 L16.106,177.658 L18.811,182.755 L22.135,187.814 L26.096,192.827 L30.705,197.787 L35.979,202.686 L41.931,207.517 L48.577,212.272 L55.931,216.941 L64.01,221.516 L72.828,225.989 L82.399,230.351 L92.741,234.593 L98.212,236.669 L98.212,236.669 C98.217,236.672 98.223,236.674 98.228,236.675 L98.228,236.675 L106.803,239.75 L124.526,245.516 L142.843,250.676 L161.573,255.12 L180.545,258.743 L199.588,261.439 L218.531,263.102 L237.206,263.625 L246.417,263.425 L246.417,263.425 C247.478,263.402 248.961,262.322 249.728,261.012 C250.496,259.703 250.258,258.66 249.196,258.683 L240.135,258.883 L221.624,258.37 L202.813,256.722 L183.881,254.044 L165.003,250.441 L146.357,246.019 L128.115,240.882 L110.446,235.133 L101.87,232.059 L101.886,232.065 L96.46,230.006 L86.18,225.791 L76.673,221.46 L67.922,217.023 L59.913,212.489 L52.63,207.868 L46.058,203.17 L40.182,198.405 L34.986,193.584 L30.455,188.715 L26.574,183.811 L23.325,178.882 L20.694,173.941 L18.663,168.997 L17.213,164.065 L16.328,159.156 L15.987,154.284 L16.169,149.462 L16.852,144.702 L18.016,140.011 L19.639,135.397 L21.706,130.859 L24.203,126.395 L27.123,122.002 L30.463,117.674 L34.219,113.411 L38.387,109.219 L42.957,105.106 L47.921,101.082 L53.265,97.16 L58.972,93.355 L65.027,89.678 L71.414,86.142 L78.115,82.76 L85.114,79.543 L92.369,76.512 L103.76,72.309 L119.811,67.41 L136.691,63.403 L154.275,60.364 L172.438,58.369 L191.056,57.494 L210.006,57.813 L229.165,59.4 L248.411,62.329 L267.632,66.676 L281.953,70.911 L291.42,74.214 L300.81,77.911 L310.107,82.014 L319.297,86.53 L328.365,91.468 L337.294,96.839 L346.078,102.656 L350.419,105.741 L350.397,105.725 L354.161,108.597 L361.794,115.3 L369.112,123.088 L374.09,129.518 L377.042,134.025 L379.631,138.682 L381.796,143.458 L383.475,148.321 L384.611,153.238 L385.151,158.167 L385.048,163.062 L384.269,167.874 L382.733,172.689 L381.58,175.253 L381.685,175.037 L380.594,177.143 L378.069,181.247 L375.229,184.997 L372.063,188.446 L368.554,191.633 L364.7,194.575 L360.508,197.276 L356.003,199.731 L351.212,201.94 L346.2,203.89 L338.234,206.377 L326.95,208.887 L315.152,210.527 L303.039,211.378 L290.805,211.528 L278.637,211.065 L266.724,210.077 L255.25,208.656 L244.4,206.89 L234.361,204.872 L225.307,202.689 L221.193,201.561 C220.309,201.318 218.808,202.165 217.842,203.452 C216.876,204.74 216.81,205.98 217.694,206.222 L217.694,206.222" fill="#000000"/>
  </g>
  <g id="Layer 5" display="none">
    <path d="M34.667,111.667 C37.375,108.333 92.625,63.333 170,66 C247.375,68.667 291.958,60.333 357,95.333 C422.042,130.333 398.292,192 391,211.667 C383.708,231.333 162.292,62.333 203.333,64.667" stroke="#000000" stroke-width="1" fill="#000000" fill-opacity="0"/>
  </g>
  <g id="Layer 6" display="none">
    <path d="M203.042,55 C260.75,54.667 590.333,254.333 214.708,254.333" stroke="#000000" stroke-width="1" fill="#000000" fill-opacity="0"/>
  </g>
  <g id="Layer 2" display="none">
    <path d="M74.667,224.333" stroke="#000000" stroke-width="1" fill="#000000" fill-opacity="0"/>
    <path d="M188.348,247.566 L206.679,247.566 C257.019,245.143 311.229,238.383 354.331,209.879 C369.855,199.613 386.6,183.859 388.143,164.037 C388.36,161.243 388.143,158.432 388.143,155.63 C383.22,125.769 355.101,107.38 329.147,96.268 C288.139,78.713 243.645,73.075 199.344,73.064 C145.557,74.818 83.724,83.284 38.729,115.573 C22.435,127.265 7.574,143.942 8.562,165.25 C9.362,182.486 22.764,196.807 35.849,206.464 C73.981,234.607 124.218,242.659 170.085,246.759 z M188.321,248.565 C164.312,247.981 140.321,245.507 116.823,240.466 C85.454,233.737 50.506,222.413 26.372,199.944 C12.62,187.14 3.514,169.09 9.352,150.258 C14.666,133.121 6.042,114.68 42.375,88.68 C74.049,66.014 103.051,64.699 149.375,65.68 C212.375,67.013 261.596,71.382 311.458,88.349 C339.145,97.77 380.582,117.394 387.985,149.172 C389.647,156.306 389.141,156.105 389.141,164.105 C384.525,193.226 358.026,211.206 333.026,222.748 C293.424,241.032 249.844,246.658 206.706,248.565 z" fill="#000000"/>
  </g>
  <g id="Layer 1" display="none">
    <text transform="matrix(1, 0, 0, 1, 199.146, 153.409)" fill="#000000">
      <tspan x="-162.626" y="32.751" font-family="SFNewRepublic-Bold" font-size="107">2b||!2b</tspan>
    </text>
  </g>
  <g id="Layer 1 Copy" display="none">
    <text transform="matrix(1, 0, 0, 1, 202.479, 153.242)" fill="#000000">
      <tspan x="-145.431" y="28.333" font-family="Allan" font-size="109">2b||!2b</tspan>
    </text>
  </g>
  <g id="Layer 1 Copy Copy" display="none">
    <text transform="matrix(1, 0, 0, 1, 237.284, 148.242)" fill="#000000">
      <tspan x="-145.431" y="38.333" font-family="BlueHighwayCondensed" font-size="154">2b||!2b</tspan>
    </text>
  </g>
  <g id="Layer 1 Copy Copy Copy" display="none">
    <text transform="matrix(1, 0, 0, 1, 217.294, 143.742)" fill="#000000">
      <tspan x="-169.4" y="39.167" font-family="BorisBlackBloxx" font-size="94">2b||!2b</tspan>
    </text>
  </g>
  <g id="Layer 1 Copy Copy Copy Copy">
    <text transform="matrix(1, 0, 0, 1, 207.273, 158.409)" fill="#000000">
      <tspan x="-169.4" y="21.167" font-family="Days" font-size="91">2b||!2b</tspan>
    </text>
  </g>
  <g id="Layer 1 Copy Copy Copy Copy Copy" display="none">
    <text transform="matrix(1, 0, 0, 1, 223.707, 173.115)" fill="#000000">
      <tspan x="-169.4" y="9.167" font-family="HoboStd" font-size="91">2b||!2b</tspan>
    </text>
  </g>
  <g id="Layer 17 Copy">
    <path d="M219.061,214.182 L223.252,214.965 L232.594,216.413 L242.945,217.615 L254.088,218.492 L265.842,218.968 L278.027,218.968 L290.464,218.414 L302.978,217.225 L315.404,215.318 L327.589,212.597 L339.397,208.953 L348.065,205.478 L353.777,202.726 L359.239,199.67 L364.567,196.213 L369.737,192.311 L374.7,187.925 L379.364,183.058 L383.606,177.76 L387.31,172.122 L390.4,166.24 L391.811,162.986 L391.811,162.986 C391.892,162.796 391.965,162.608 392.03,162.423 L392.03,162.423 L392.966,159.775 L394.454,153.638 L395.035,147.519 L394.745,141.714 L393.717,136.178 L392.052,130.878 L389.834,125.797 L387.138,120.929 L384.033,116.276 L380.584,111.846 L374.934,105.667 L366.791,98.312 L358.404,92.081 L354.239,89.411 L354.239,89.411 C354.216,89.396 354.193,89.382 354.169,89.368 L354.169,89.368 L349.589,86.652 L340.262,81.507 L330.791,76.781 L321.214,72.478 L311.543,68.587 L301.793,65.099 L287.079,60.61 L267.314,55.941 L247.464,52.703 L227.672,50.83 L208.051,50.245 L188.71,50.874 L169.764,52.641 L151.32,55.474 L133.486,59.301 L116.366,64.054 L100.059,69.668 L84.662,76.086 L73.67,81.443 L66.619,85.279 L59.933,89.252 L53.527,93.41 L47.415,97.752 L41.606,102.281 L36.117,107 L30.972,111.906 L26.2,116.995 L21.84,122.251 L17.942,127.643 L14.554,133.13 L11.722,138.663 L9.477,144.191 L7.838,149.674 L6.81,155.078 L6.389,160.39 L6.568,165.604 L7.345,170.718 L8.716,175.736 L10.684,180.658 L13.254,185.486 L16.434,190.221 L20.234,194.86 L24.665,199.4 L29.739,203.836 L35.47,208.164 L41.871,212.377 L48.956,216.469 L56.74,220.431 L65.236,224.257 L74.46,227.937 L84.425,231.465 L95.146,234.83 L100.819,236.456 L100.819,236.456 C100.837,236.461 100.855,236.466 100.873,236.471 L100.873,236.471 L109.672,238.822 L127.875,243.114 L146.647,246.755 L165.781,249.646 L185.102,251.697 L204.437,252.814 L223.614,252.904 L242.471,251.869 L251.823,250.89 L251.823,250.89 C255.165,250.538 259.55,247.08 261.616,243.167 C263.683,239.253 262.649,236.365 259.307,236.717 L250.482,237.654 L232.195,238.673 L213.474,238.598 L194.519,237.512 L175.522,235.503 L156.672,232.66 L138.158,229.075 L120.134,224.828 L111.33,222.476 L111.385,222.491 L105.855,220.908 L95.33,217.608 L85.568,214.157 L76.557,210.567 L68.281,206.847 L60.726,203.008 L53.879,199.063 L47.723,195.023 L42.245,190.9 L37.428,186.707 L33.258,182.459 L29.718,178.169 L26.791,173.854 L24.457,169.531 L22.695,165.219 L21.482,160.939 L20.792,156.713 L20.593,152.56 L20.852,148.5 L21.535,144.545 L22.608,140.701 L24.049,136.954 L25.846,133.284 L28.003,129.658 L30.536,126.045 L33.465,122.425 L36.81,118.785 L40.583,115.129 L44.782,111.473 L49.403,107.831 L54.435,104.226 L59.859,100.681 L65.657,97.214 L71.718,93.891 L81.506,89.08 L95.741,83.107 L111.055,77.802 L127.315,73.262 L144.39,69.575 L162.153,66.827 L180.48,65.099 L199.249,64.472 L218.344,65.024 L237.643,66.834 L257.03,69.98 L276.415,74.547 L290.87,78.95 L300.419,82.361 L309.895,86.169 L319.286,90.384 L328.574,95.014 L337.768,100.082 L342.351,102.8 L342.28,102.756 L346.181,105.245 L354.23,111.198 L362.069,118.253 L367.487,124.156 L370.738,128.313 L373.638,132.63 L376.124,137.073 L378.136,141.607 L379.619,146.186 L380.529,150.753 L380.839,155.238 L380.55,159.557 L379.572,163.965 L378.635,166.619 L378.854,166.056 L378.157,167.784 L376.391,171.375 L374.424,174.572 L372.229,177.489 L369.735,180.236 L366.867,182.882 L363.582,185.448 L359.877,187.914 L355.776,190.255 L351.442,192.393 L344.238,195.343 L333.637,198.663 L322.334,201.217 L310.572,203.041 L298.578,204.193 L286.565,204.738 L274.736,204.745 L263.294,204.287 L252.437,203.438 L242.361,202.273 L233.231,200.862 L229.037,200.079 C226.235,199.556 221.73,202.29 218.975,206.184 C216.22,210.079 216.259,213.66 219.061,214.182 L219.061,214.182" fill="#000000"/>
  </g>
  <defs/>
</svg>
